{"glyphs":{"0":{"ha":1389,"x_min":19,"x_max":1369,"o":"m 1175 506 q 1189 459 1192 486 q 1167 417 1186 432 q 1133 413 1153 407 q 1108 435 1114 418 q 1106 444 1106 439 q 1113 461 1106 454 q 1121 467 1113 461 q 1113 450 1114 450 q 1119 433 1113 442 q 1133 422 1125 424 q 1167 440 1156 418 q 1160 487 1178 467 q 1117 503 1143 507 q 1075 472 1093 499 q 1049 434 1068 463 q 1019 390 1031 406 q 1008 378 1014 383 q 992 365 1001 372 q 979 353 983 357 q 918 322 953 329 q 903 318 910 321 q 897 309 899 317 q 901 299 896 301 q 936 281 928 283 q 971 276 953 276 q 979 278 975 276 q 1021 286 1001 279 q 1097 294 1067 301 q 1157 251 1140 286 q 1153 193 1169 224 q 1124 165 1143 174 q 1074 175 1100 154 q 1053 185 1065 182 q 1040 178 1047 185 q 1033 163 1033 171 q 1038 151 1032 157 q 1050 143 1043 144 q 1056 142 1053 142 q 1040 140 1047 136 q 1029 153 1032 143 q 1025 165 1025 158 q 1043 194 1025 186 q 1079 190 1060 203 q 1097 182 1088 185 q 1118 185 1108 179 q 1132 203 1128 192 q 1135 230 1138 219 q 1117 250 1132 240 q 1099 257 1108 256 q 1025 240 1076 261 q 993 231 1010 233 q 935 226 964 228 q 876 243 913 226 q 807 292 838 261 q 801 299 806 293 q 793 308 796 306 q 783 311 793 308 q 782 300 782 306 q 783 289 782 294 q 808 215 786 249 q 868 169 825 188 q 938 128 921 147 q 958 57 965 94 q 921 13 954 26 q 892 6 907 6 q 875 8 883 6 q 858 19 867 10 q 847 38 850 29 q 840 63 846 50 q 824 71 836 72 q 803 54 807 69 q 801 50 801 53 q 810 36 801 40 q 815 35 811 36 q 821 33 818 33 q 813 31 817 31 q 803 35 807 31 q 796 60 789 47 q 836 81 810 85 q 860 54 850 78 q 874 31 867 35 q 908 33 889 22 q 929 61 928 43 q 918 93 931 79 q 867 124 901 114 q 760 186 796 142 q 714 328 714 250 q 714 331 714 329 q 708 345 714 339 q 697 351 703 351 q 676 332 678 351 q 675 327 675 329 q 676 322 675 325 q 676 317 676 318 q 661 246 676 289 q 607 163 643 193 q 557 135 585 144 q 529 124 549 131 q 500 114 510 118 q 471 93 483 108 q 461 60 458 78 q 481 33 463 46 q 505 26 492 25 q 524 39 518 28 q 533 61 529 50 q 568 81 543 83 q 594 57 585 79 q 588 36 599 49 q 569 33 581 28 q 579 36 575 35 q 588 49 588 40 q 588 54 588 51 q 572 68 582 64 q 544 50 551 75 q 518 10 538 15 q 497 6 508 6 q 488 7 492 6 q 443 31 461 10 q 433 90 424 54 q 458 133 439 115 q 511 165 482 154 q 594 236 575 188 q 606 313 611 278 q 594 306 600 310 q 504 239 561 265 q 407 226 463 219 q 357 243 392 229 q 289 257 315 261 q 264 243 275 254 q 254 218 253 232 q 278 182 257 192 q 303 185 290 176 q 332 196 319 196 q 360 181 353 197 q 350 140 371 154 q 335 138 350 140 l 335 140 q 339 143 336 142 q 356 158 354 143 q 346 181 356 168 q 326 182 339 189 q 304 167 318 176 q 283 160 294 160 q 263 165 272 160 q 228 225 228 185 q 228 229 228 228 q 254 278 228 257 q 332 294 283 300 q 359 289 342 294 q 381 282 376 283 q 449 279 424 271 q 469 288 456 282 q 483 294 482 294 q 492 307 492 297 q 492 310 492 308 q 479 318 492 315 q 401 358 429 335 q 335 444 371 386 q 290 494 313 481 q 239 494 265 511 q 228 432 204 472 q 243 424 232 426 q 261 424 254 421 q 274 435 269 426 q 276 451 279 443 q 263 464 275 464 q 256 465 260 464 q 250 465 251 465 q 278 460 269 472 q 278 429 289 446 q 244 410 265 408 q 207 436 222 413 q 206 489 193 463 q 243 526 218 515 q 319 514 281 540 q 390 439 346 497 q 433 400 404 421 q 472 381 451 388 q 501 379 481 378 q 532 385 517 381 q 544 396 540 388 q 535 408 547 401 q 489 433 511 419 q 426 515 449 461 q 418 556 424 525 q 415 586 415 571 q 415 593 415 589 q 425 649 417 600 q 429 667 426 651 q 433 690 432 682 q 438 728 438 708 q 407 776 438 767 q 372 776 388 783 q 349 749 356 768 q 360 717 343 729 q 383 714 369 710 q 399 729 396 718 q 396 746 399 731 q 403 725 406 739 q 386 706 400 711 q 371 703 379 703 q 336 728 344 703 q 333 744 333 736 q 340 772 333 760 q 375 800 351 793 q 397 803 386 803 q 418 801 408 803 q 463 764 450 793 q 472 729 469 747 q 474 700 474 714 q 472 671 474 685 q 469 649 472 664 q 465 628 467 635 q 465 617 465 622 q 468 581 465 599 q 476 547 469 564 q 536 489 492 503 q 579 496 553 482 q 606 551 613 514 q 599 567 604 560 q 590 593 585 581 q 592 597 590 596 q 557 689 557 636 q 597 786 557 746 q 694 826 638 826 q 792 786 751 826 q 833 689 833 746 q 799 597 833 636 q 800 592 799 594 q 801 583 801 588 q 794 569 801 575 q 783 531 779 556 q 807 499 788 507 q 844 488 833 486 q 889 510 867 489 q 921 575 917 536 q 925 614 925 610 q 921 638 924 622 q 918 661 918 654 q 917 713 918 667 q 917 718 917 714 q 928 765 917 743 q 996 803 949 803 q 1054 758 1038 803 q 1057 744 1057 751 q 1036 707 1057 719 q 1008 704 1022 700 q 988 722 993 708 q 985 731 985 726 q 993 746 985 740 q 993 742 993 744 q 993 738 993 740 q 992 732 992 735 q 1008 714 992 715 q 1032 718 1025 713 q 1040 746 1043 729 q 1025 771 1038 763 q 968 769 999 790 q 951 736 954 760 q 951 724 951 731 q 958 674 951 699 q 965 641 961 663 q 972 608 968 619 q 969 544 978 588 q 936 469 963 503 q 865 411 911 436 q 858 409 863 411 q 851 407 853 407 q 844 399 846 404 q 849 389 843 393 q 869 381 858 383 q 893 378 882 378 q 897 378 896 378 q 925 383 911 379 q 994 433 967 399 q 1012 456 999 439 q 1032 482 1025 472 q 1083 524 1054 507 q 1133 530 1108 535 q 1175 506 1157 525 m 641 597 q 643 594 641 597 q 652 592 646 592 q 663 597 658 592 q 668 608 668 601 q 663 619 668 614 q 652 624 658 624 q 641 619 646 624 q 636 608 636 614 q 641 597 636 601 m 739 592 l 740 592 q 751 597 746 592 q 756 608 756 601 q 751 619 756 614 q 740 624 746 624 q 728 619 733 624 q 724 608 724 614 q 728 597 724 601 q 739 592 733 592 m 74 155 q 48 217 74 155 q 21 417 21 279 q 74 678 21 554 q 218 893 128 803 q 433 1037 308 983 q 694 1090 557 1090 q 956 1037 832 1090 q 1171 893 1081 983 q 1315 678 1261 803 q 1368 417 1368 554 q 1315 155 1368 279 q 1171 -60 1261 31 q 956 -203 1081 -150 q 694 -257 832 -257 q 433 -203 557 -257 q 218 -60 308 -150 q 74 155 128 31 m 182 714 q 142 646 182 714 q 103 417 103 578 q 182 119 103 256 q 397 -96 261 -17 q 694 -175 533 -175 q 992 -96 856 -175 q 1207 119 1128 -17 q 1286 417 1286 256 q 1207 714 1286 578 q 992 929 1128 850 q 694 1008 856 1008 q 397 929 533 1008 q 182 714 261 850 z "},"1":{"ha":1389,"x_min":19,"x_max":1369,"o":"m 74 155 q 48 217 74 155 q 21 417 21 279 q 74 678 21 554 q 218 893 128 803 q 433 1037 308 983 q 694 1090 557 1090 q 956 1037 832 1090 q 1171 893 1081 983 q 1315 678 1261 803 q 1368 417 1368 554 q 1315 155 1368 279 q 1171 -60 1261 31 q 956 -203 1081 -150 q 694 -257 832 -257 q 433 -203 557 -257 q 218 -60 308 -150 q 74 155 128 31 m 182 714 q 142 646 182 714 q 103 417 103 578 q 182 119 103 256 q 397 -96 261 -17 q 694 -175 533 -175 q 992 -96 856 -175 q 1207 119 1128 -17 q 1286 417 1286 256 q 1207 714 1286 578 q 992 929 1128 850 q 694 1008 856 1008 q 397 929 533 1008 q 182 714 261 850 m 1006 378 q 984 413 997 400 q 951 427 971 425 q 918 428 931 429 q 882 424 906 428 q 803 450 831 415 q 793 460 799 454 q 780 471 788 465 q 768 479 772 476 q 760 485 764 482 q 756 489 757 488 q 756 490 756 490 q 790 485 765 488 q 835 479 815 483 q 867 469 854 475 q 920 465 894 457 q 957 504 946 474 q 1019 476 990 497 q 1047 451 1033 467 q 1065 425 1060 436 l 1072 415 l 1044 414 l 1074 354 l 1046 372 l 1040 333 l 1013 410 l 1006 378 m 664 -93 q 681 -76 669 -83 q 704 -71 693 -69 q 742 -67 736 -75 q 747 -24 749 -60 q 742 42 746 -4 q 738 114 739 89 q 737 139 738 126 q 742 167 736 151 q 758 192 747 182 q 768 -51 765 83 q 761 -83 768 -82 q 700 -97 732 -96 q 664 -93 674 -99 m 510 685 q 483 723 490 699 q 483 768 475 747 q 506 810 492 790 q 522 817 511 817 q 524 817 522 817 q 536 800 533 814 q 535 775 540 781 q 519 750 525 765 q 513 722 514 735 q 511 697 511 708 q 510 685 511 686 m 739 221 l 721 368 q 750 313 754 356 q 754 285 750 303 q 758 251 758 267 q 747 226 758 236 l 739 221 m 933 532 q 939 500 942 522 q 935 495 939 497 q 926 491 932 493 q 918 488 921 489 q 915 485 918 486 q 910 483 911 485 q 897 474 904 475 q 885 476 889 474 q 872 485 881 478 q 869 488 872 486 q 836 494 851 503 q 815 494 832 492 q 770 504 803 497 q 719 515 738 511 q 692 515 718 515 q 818 413 765 478 q 779 383 781 390 q 796 339 778 376 q 810 306 797 336 q 828 261 822 276 q 830 231 835 240 q 804 215 825 222 q 769 203 788 208 q 681 113 688 185 q 660 82 679 97 l 664 106 l 647 85 q 646 92 646 89 q 651 128 649 108 q 653 153 654 147 q 658 171 653 160 q 663 183 663 182 q 674 190 663 183 q 689 198 685 197 q 714 206 693 199 q 749 217 735 213 q 803 245 799 235 q 788 306 807 256 q 744 372 774 346 q 671 417 715 397 q 618 431 665 419 q 606 431 614 431 q 594 433 599 432 q 476 517 500 450 q 513 657 451 583 q 597 719 550 704 q 649 774 642 736 q 648 788 650 781 q 642 803 646 794 q 638 817 639 813 q 607 806 608 806 q 556 785 588 799 q 552 801 554 789 q 548 818 550 814 q 539 828 546 822 q 519 833 532 833 q 552 880 536 863 q 593 901 568 897 q 675 860 640 908 q 699 758 711 808 q 631 681 686 708 q 558 629 590 660 q 535 578 542 611 q 541 547 529 558 q 572 542 553 535 q 651 585 592 549 q 706 622 654 586 l 719 629 l 700 600 q 706 600 706 600 q 883 574 786 640 q 933 532 911 556 m 582 842 l 582 842 q 592 851 592 842 l 592 851 q 582 863 592 863 q 572 852 572 863 q 582 842 572 842 z "},"2":{"ha":1389,"x_min":19,"x_max":1369,"o":"m 951 728 l 925 735 q 976 747 953 750 q 991 743 983 746 q 1007 737 999 740 q 1021 732 1015 733 q 1031 729 1026 729 q 1035 729 1033 729 q 1094 711 1074 739 l 1058 708 l 1058 704 q 1075 701 1075 701 q 1115 681 1096 700 q 1142 660 1128 669 q 1155 649 1144 657 q 1171 636 1165 640 q 1168 618 1179 628 q 1160 607 1163 614 q 1121 572 1150 585 l 1104 610 q 1085 582 1090 600 q 1088 551 1079 564 q 1106 549 1088 551 q 1107 538 1107 543 q 1096 507 1107 519 q 1076 491 1082 490 q 1058 508 1071 492 q 1047 535 1057 510 l 1033 518 q 992 558 1004 526 q 989 633 981 589 q 975 644 982 639 q 965 656 968 649 q 961 684 957 674 q 985 696 965 694 q 1004 696 985 696 q 978 701 994 701 q 957 693 963 700 q 956 653 944 676 q 965 640 958 649 q 974 629 972 631 q 978 619 978 625 q 1032 493 960 536 q 1038 489 1035 492 q 1057 325 1085 407 q 1056 321 1057 324 q 1054 317 1054 318 q 986 390 1024 364 q 990 383 988 386 q 1117 181 1061 300 q 1129 171 1119 172 q 1154 160 1144 171 q 1165 133 1164 149 q 1121 133 1124 133 q 1085 151 1099 131 q 919 308 1019 258 q 671 326 793 371 q 651 317 661 324 q 666 320 653 317 q 685 325 679 324 q 704 327 692 325 q 721 329 717 329 q 733 321 731 331 q 718 224 750 267 q 714 213 714 218 q 715 206 714 208 q 751 176 728 178 q 790 147 786 174 q 790 145 790 146 q 790 144 790 144 q 713 149 749 135 q 654 199 676 164 q 653 204 653 201 q 654 211 653 208 q 658 259 665 238 q 628 289 650 281 q 613 275 622 285 q 597 258 604 265 q 583 246 590 250 q 449 213 532 207 q 442 213 446 213 q 388 189 410 213 q 381 178 383 183 q 394 160 393 161 q 396 147 396 154 q 394 138 396 143 q 381 133 394 135 q 324 133 381 133 q 331 163 331 163 q 374 246 343 214 q 390 254 381 253 q 499 310 464 261 q 511 336 507 321 q 476 321 479 322 q 328 278 396 286 q 233 285 274 271 q 176 335 189 299 q 185 411 163 371 q 260 476 208 450 q 363 507 308 501 q 361 500 363 504 q 299 439 340 454 q 268 433 289 435 q 246 431 247 431 q 231 424 238 429 q 213 403 221 414 q 203 351 194 375 q 243 317 211 326 q 336 314 282 303 q 531 396 432 331 q 667 457 594 436 q 757 496 731 475 q 790 525 775 508 q 810 568 808 542 q 863 653 814 624 q 843 647 853 650 q 822 636 842 646 q 872 703 836 678 q 951 728 900 724 m 1107 661 l 1110 667 q 1101 675 1101 675 q 1074 672 1088 675 l 1072 669 l 1107 661 m 919 301 q 858 178 869 239 q 892 143 890 171 q 826 143 847 143 q 822 149 822 143 q 842 326 815 246 q 846 329 842 326 l 919 301 m 74 155 q 48 217 74 155 q 21 417 21 279 q 74 678 21 554 q 218 893 128 803 q 433 1037 308 983 q 694 1090 557 1090 q 956 1037 832 1090 q 1171 893 1081 983 q 1315 678 1261 803 q 1368 417 1368 554 q 1315 155 1368 279 q 1171 -60 1261 31 q 956 -203 1081 -150 q 694 -257 832 -257 q 433 -203 557 -257 q 218 -60 308 -150 q 74 155 128 31 m 182 714 q 142 646 182 714 q 103 417 103 578 q 182 119 103 256 q 397 -96 261 -17 q 694 -175 533 -175 q 992 -96 856 -175 q 1207 119 1128 -17 q 1286 417 1286 256 q 1207 714 1286 578 q 992 929 1128 850 q 694 1008 856 1008 q 397 929 533 1008 q 182 714 261 850 z "},"3":{"ha":1389,"x_min":19,"x_max":1369,"o":"m 74 155 q 48 217 74 155 q 21 417 21 279 q 74 678 21 554 q 218 893 128 803 q 433 1037 308 983 q 694 1090 557 1090 q 956 1037 832 1090 q 1171 893 1081 983 q 1315 678 1261 803 q 1368 417 1368 554 q 1315 155 1368 279 q 1171 -60 1261 31 q 956 -203 1081 -150 q 694 -257 832 -257 q 433 -203 557 -257 q 218 -60 308 -150 q 74 155 128 31 m 182 714 q 142 646 182 714 q 103 417 103 578 q 182 119 103 256 q 397 -96 261 -17 q 694 -175 533 -175 q 992 -96 856 -175 q 1207 119 1128 -17 q 1286 417 1286 256 q 1207 714 1286 578 q 992 929 1128 850 q 694 1008 856 1008 q 397 929 533 1008 q 182 714 261 850 m 614 547 q 804 626 804 563 q 799 643 799 643 q 765 669 792 661 q 753 689 758 676 q 774 731 749 701 q 869 778 799 760 q 883 776 876 779 q 899 763 889 772 q 908 751 908 753 q 942 701 932 731 q 949 644 951 671 q 942 594 947 618 q 931 556 936 569 l 924 542 q 913 528 919 536 q 885 497 907 519 q 837 458 863 475 q 769 425 811 440 q 681 408 726 410 q 599 397 635 407 q 543 372 563 386 q 511 344 524 358 q 496 321 499 331 l 492 311 q 485 301 489 307 q 474 275 482 294 q 464 238 467 256 q 465 195 461 219 q 485 151 469 171 q 545 110 508 119 q 608 106 582 100 l 633 113 q 648 118 639 114 q 683 148 657 122 q 730 213 708 174 q 778 281 751 253 q 821 318 806 310 l 838 326 q 846 330 840 328 q 874 335 851 332 q 924 337 896 338 q 965 320 951 336 q 979 288 979 304 l 981 271 l 985 268 q 987 266 986 268 q 988 259 988 264 q 988 250 989 254 q 982 242 986 246 q 969 239 978 239 q 951 244 957 238 q 942 262 944 251 q 938 274 939 272 q 920 284 931 279 q 890 292 910 289 q 856 282 871 294 q 806 223 832 267 q 758 135 779 179 q 706 50 738 92 q 640 -6 674 8 q 525 -11 590 -25 q 405 49 460 3 q 331 178 350 96 q 354 378 311 261 q 361 394 353 379 q 388 433 369 410 q 435 481 407 457 q 510 523 463 504 q 614 547 558 542 m 910 761 q 915 764 908 763 q 925 768 925 767 q 940 765 931 771 q 954 760 950 760 q 966 760 958 760 q 979 758 974 760 q 986 750 986 757 q 976 744 986 747 q 976 740 974 743 q 981 735 978 736 q 1003 714 993 726 q 1011 700 1010 704 q 1008 693 1011 696 q 1003 692 1006 690 q 999 694 1001 693 q 994 697 996 696 q 990 699 993 699 q 988 686 983 697 q 1007 657 989 681 q 1014 642 1015 647 q 1003 633 1011 629 q 998 638 1001 633 q 992 640 994 642 q 988 628 985 638 q 991 622 989 625 q 994 614 993 618 q 990 611 994 613 q 986 607 986 610 q 1003 579 986 596 q 1006 572 1006 576 q 1001 567 1006 567 q 996 567 999 565 q 990 570 993 568 q 985 572 988 572 q 982 572 983 572 q 975 567 976 572 q 976 556 975 563 q 976 546 978 550 q 970 544 976 543 q 961 544 964 546 q 963 528 957 539 q 972 497 972 507 q 969 492 972 494 q 964 489 967 489 q 958 496 960 492 q 946 508 954 508 q 933 482 935 508 q 926 463 932 469 q 922 459 925 460 q 918 461 918 458 q 915 464 917 461 q 907 471 911 472 q 900 460 903 469 q 899 449 900 454 q 892 448 897 446 q 886 449 888 450 q 885 437 885 447 q 885 425 885 426 q 876 417 885 417 q 875 417 875 417 q 869 425 871 417 q 867 431 869 428 q 864 433 865 433 q 858 426 860 432 q 856 418 857 419 q 849 414 853 414 q 846 415 847 414 q 842 417 844 415 q 838 420 839 419 q 833 419 836 421 q 826 406 829 415 q 818 393 822 397 q 796 386 801 378 q 796 394 794 389 q 797 401 797 399 q 794 406 797 404 q 789 401 792 407 q 788 400 788 400 q 776 385 782 388 q 772 384 775 383 q 769 386 769 385 q 768 393 768 393 q 763 389 765 394 q 756 388 758 383 q 755 391 754 388 q 754 394 756 394 q 751 394 753 396 q 747 389 750 393 q 728 365 738 369 q 718 367 721 363 q 719 374 718 368 q 718 386 721 386 q 713 388 715 388 q 706 385 710 388 q 698 376 701 383 q 690 368 694 368 q 681 358 685 372 q 663 338 672 338 q 653 349 653 339 q 653 350 653 350 q 656 360 653 353 q 657 372 660 368 q 649 374 654 376 q 640 367 643 371 q 631 363 636 363 q 622 367 625 363 q 613 368 617 372 q 607 358 610 365 q 601 348 604 351 q 593 344 599 344 q 593 351 593 346 q 593 357 593 356 q 592 361 593 361 q 586 356 588 363 q 579 340 585 346 q 569 335 574 332 q 567 337 568 335 q 567 342 567 339 q 568 347 568 344 q 565 352 568 350 q 561 353 563 354 q 553 340 560 353 q 553 339 553 340 q 550 335 551 335 q 547 338 549 336 q 546 339 546 339 q 535 327 540 331 q 525 324 529 324 l 522 324 q 533 344 528 335 q 547 359 539 353 q 562 370 556 365 q 580 378 568 375 q 597 384 592 382 q 617 388 603 386 q 635 391 631 390 q 653 392 639 392 q 671 393 668 393 q 732 405 694 394 q 797 424 769 415 l 824 432 q 835 439 828 435 q 863 458 843 443 q 900 490 883 472 q 933 538 917 508 q 957 601 950 568 q 961 665 964 639 q 951 710 958 692 q 934 741 943 729 q 918 758 925 753 q 910 761 911 763 m 599 118 l 583 114 q 606 147 597 124 q 617 176 614 171 q 632 199 624 189 q 653 211 643 214 q 651 203 653 207 q 645 196 649 200 q 640 189 642 192 q 640 185 638 185 q 656 192 646 183 q 672 211 660 196 q 697 232 685 226 q 703 228 701 235 q 700 211 704 218 q 688 190 696 200 q 686 183 682 183 q 688 183 686 183 q 694 188 693 183 q 699 193 696 189 q 703 199 701 197 q 708 201 706 201 q 708 200 708 200 q 707 193 708 196 q 665 144 692 163 q 618 122 638 125 l 599 118 m 706 35 q 719 50 710 40 q 735 67 729 60 q 751 94 742 78 q 764 118 760 111 q 773 140 768 126 q 782 161 778 153 q 786 170 783 164 q 791 179 789 176 q 796 186 793 182 q 803 192 799 190 q 811 193 807 193 q 806 183 811 189 q 799 174 800 176 q 801 157 794 160 q 813 167 806 160 q 827 177 821 174 q 842 179 833 181 q 843 171 847 179 q 832 157 838 164 q 814 138 814 138 q 801 118 811 135 q 788 92 790 99 q 799 98 793 92 q 809 106 806 104 q 815 102 813 107 q 815 94 818 97 q 782 60 803 71 q 743 40 753 44 q 721 36 732 38 q 713 33 719 36 q 703 28 706 29 q 699 29 700 28 l 706 35 m 932 256 q 933 251 932 254 q 936 240 933 249 q 944 228 939 232 q 959 222 950 225 q 981 224 968 218 q 1003 244 1000 231 q 1001 267 1007 257 l 994 278 q 1029 261 1015 285 q 1054 224 1050 226 q 1060 216 1058 221 q 1060 208 1061 211 q 1057 207 1058 206 q 1047 208 1050 207 q 1040 217 1044 211 q 1033 222 1036 222 q 1029 215 1026 221 q 1035 208 1031 214 q 1047 194 1040 201 q 1058 176 1053 186 q 1063 156 1063 165 q 1065 123 1065 136 q 1057 108 1064 110 q 1047 117 1049 106 q 1047 119 1047 118 q 1040 148 1042 146 q 1034 155 1038 150 q 1029 162 1031 160 q 1024 167 1028 164 q 1019 169 1021 169 q 1017 169 1018 169 q 1018 156 1014 168 q 1029 72 1036 103 q 1026 60 1028 67 q 1024 51 1025 54 q 1022 42 1024 47 q 1020 35 1021 38 q 1017 31 1019 33 q 1013 28 1015 29 q 1007 29 1011 28 q 997 53 992 31 q 993 111 1003 82 q 985 133 989 119 q 978 149 981 146 q 972 151 976 153 q 965 122 964 149 q 969 106 965 121 q 974 83 974 92 q 963 63 971 63 q 957 67 960 63 q 939 101 940 89 q 944 130 939 108 q 947 164 949 151 q 936 204 943 201 q 932 206 932 206 q 933 201 932 204 q 935 194 935 197 q 931 149 938 161 q 926 140 928 144 q 924 135 924 136 q 922 133 924 135 q 919 131 921 132 q 915 130 918 131 q 910 131 911 129 q 909 135 908 132 q 910 141 910 139 q 911 147 910 143 q 914 181 914 164 q 914 188 914 183 q 913 203 914 193 q 911 221 911 213 q 915 238 911 229 q 922 251 918 246 q 929 256 926 256 l 932 256 m 910 761 q 915 764 908 763 l 925 768 q 940 765 931 771 q 954 759 950 760 q 966 758 958 758 q 979 757 974 758 q 986 750 986 757 q 976 744 986 747 q 976 740 974 743 q 981 735 978 736 q 1003 714 993 726 q 1011 700 1010 704 q 1008 694 1011 697 q 1003 692 1006 690 q 999 694 1001 693 q 995 697 997 696 q 990 697 993 699 q 988 686 983 696 q 1007 657 989 679 q 1014 642 1015 647 q 1003 633 1011 629 q 998 638 1001 633 q 992 640 994 642 q 988 628 985 638 q 991 622 989 625 q 994 614 993 618 q 990 611 994 613 q 986 607 986 610 q 1003 579 986 596 q 1006 572 1006 576 q 1001 567 1006 567 q 996 567 999 565 q 990 569 993 568 q 985 572 988 571 q 983 572 983 572 q 975 567 976 572 q 976 556 975 563 q 976 546 978 550 q 970 544 976 543 q 961 544 964 546 q 963 528 957 539 q 972 497 972 507 q 969 491 972 493 q 964 489 967 489 q 958 496 960 492 q 946 508 954 508 q 933 482 935 508 q 926 463 932 469 q 922 459 925 460 q 918 461 918 458 q 907 471 911 471 q 900 460 903 469 q 899 449 900 454 q 892 448 897 446 q 886 447 888 450 q 885 437 885 447 q 885 425 885 426 q 876 417 885 417 q 875 417 875 417 q 869 425 871 417 q 868 431 869 428 q 864 433 867 433 q 858 426 860 432 q 856 418 857 421 q 849 414 853 414 q 846 415 847 414 q 842 417 844 415 q 838 420 839 419 q 833 419 836 421 q 826 406 829 415 q 818 393 822 397 q 796 386 801 378 q 796 394 794 389 q 797 401 797 399 q 794 406 797 404 q 789 401 792 407 q 788 399 788 400 q 778 385 782 388 q 773 384 775 383 q 769 386 771 385 q 768 393 768 393 q 763 389 767 394 q 756 388 757 383 q 755 391 754 388 q 754 394 756 394 q 747 389 751 397 q 728 365 738 369 q 718 365 721 363 q 719 374 718 367 q 718 386 721 385 q 713 388 715 388 q 706 385 710 388 q 698 376 701 383 q 690 368 694 368 q 681 358 686 372 q 663 338 672 338 q 653 349 653 339 q 653 350 653 350 q 656 360 653 353 q 657 372 660 368 q 649 374 654 376 q 640 365 643 371 q 631 362 638 361 q 622 367 625 363 q 613 368 617 372 q 607 358 610 365 q 601 348 604 351 q 593 344 599 344 q 593 351 593 346 q 593 357 593 356 q 592 361 593 361 q 586 356 588 363 q 579 340 585 346 q 569 335 574 332 q 568 337 568 335 q 568 342 568 339 q 568 347 568 344 q 565 352 568 350 q 561 353 563 354 q 554 340 560 353 q 553 339 553 340 q 550 336 551 335 q 546 339 550 336 q 535 327 540 331 q 525 324 529 324 l 522 324 q 533 344 528 335 q 547 359 539 353 q 563 370 556 365 q 581 378 569 375 q 597 384 592 382 q 617 388 603 386 q 635 391 631 390 q 653 392 639 392 q 671 393 668 393 q 707 399 686 394 q 747 408 728 403 q 784 419 767 414 q 813 429 801 425 l 824 432 q 835 439 828 435 q 863 458 843 443 q 900 490 883 472 q 933 538 917 508 q 957 601 950 568 q 961 665 964 639 q 951 710 958 692 q 934 741 943 729 q 918 758 925 753 q 910 761 911 763 m 599 118 q 583 114 583 114 q 606 147 597 124 q 617 176 614 171 q 632 199 624 189 q 653 211 643 214 q 651 203 653 207 q 645 196 649 200 q 640 189 642 192 q 640 185 638 185 q 656 192 646 183 q 672 211 660 196 q 697 232 685 226 q 703 226 701 235 q 700 211 704 218 q 688 190 696 200 q 686 183 682 183 q 688 183 686 183 q 694 188 693 183 q 699 193 696 189 q 703 199 701 197 q 708 201 706 201 q 708 200 708 200 q 707 193 708 196 q 665 144 692 163 q 618 122 638 125 l 599 118 m 706 35 q 719 50 710 40 q 735 67 729 60 q 751 94 742 78 q 764 118 760 111 q 773 140 768 126 q 782 161 778 153 q 786 170 783 164 q 791 179 789 176 q 796 186 793 182 q 803 192 799 190 q 811 193 807 193 q 806 183 811 189 q 799 174 800 176 q 801 157 794 160 q 813 167 806 160 q 827 177 821 174 q 842 179 833 181 q 843 171 847 179 q 832 157 838 164 q 826 151 829 156 q 819 144 822 147 q 814 138 817 142 q 801 118 811 135 q 788 92 790 99 q 799 98 793 92 q 809 106 806 104 q 815 102 813 107 q 815 94 817 97 q 782 60 803 71 q 742 40 753 44 q 721 36 732 38 q 713 33 719 36 q 703 28 706 29 q 699 29 700 28 l 706 35 m 932 256 q 933 251 932 254 q 936 240 933 249 q 944 228 939 232 q 959 222 950 225 q 981 224 968 218 q 1003 244 1000 231 q 1001 267 1007 257 l 994 278 q 1029 261 1015 285 q 1054 224 1050 226 q 1060 216 1058 221 q 1060 208 1061 211 q 1057 206 1058 206 q 1047 208 1050 207 q 1040 216 1044 210 q 1033 222 1036 222 q 1029 215 1026 221 q 1035 208 1031 214 q 1047 194 1040 201 q 1058 176 1053 186 q 1063 156 1063 165 q 1065 123 1065 136 q 1057 108 1064 110 q 1047 117 1049 106 q 1047 119 1047 118 q 1040 148 1042 146 q 1034 155 1038 150 q 1029 162 1031 160 q 1024 167 1028 164 q 1019 169 1021 169 q 1017 169 1018 169 q 1018 156 1014 168 q 1029 72 1036 103 q 1026 60 1028 67 q 1024 51 1025 54 q 1022 42 1024 47 q 1020 35 1021 38 q 1017 31 1019 33 q 1013 28 1015 29 q 1007 29 1011 28 q 997 53 992 31 q 993 111 1003 82 q 985 133 989 119 q 978 149 981 146 q 972 151 976 153 q 965 122 964 149 q 969 106 965 121 q 974 83 974 92 q 963 63 971 63 q 957 67 960 63 q 939 101 940 89 q 944 130 939 108 q 947 164 949 151 q 936 204 943 201 q 932 206 932 206 q 933 201 932 204 q 935 194 935 197 q 931 149 938 161 q 926 140 928 144 q 924 135 924 136 q 922 133 924 135 q 919 131 921 132 q 915 130 918 131 q 910 131 911 129 q 909 135 908 132 q 910 141 910 139 q 911 147 910 143 q 914 181 914 164 q 914 188 914 183 q 913 203 914 193 q 911 221 911 213 q 915 238 911 229 q 922 251 918 246 q 929 256 926 256 l 932 256 m 615 644 q 613 635 617 640 q 606 626 608 629 q 607 621 604 624 q 619 618 611 618 q 629 614 626 618 q 624 610 628 611 q 614 608 619 608 q 606 607 608 608 q 608 600 603 604 q 644 594 614 597 q 641 587 646 589 q 628 583 636 585 q 597 588 622 583 q 606 575 596 585 q 583 581 600 568 q 564 607 565 594 q 567 617 563 614 q 578 622 571 619 q 589 628 586 625 q 597 634 593 629 q 606 641 601 639 q 615 644 610 643 m 533 661 q 572 651 543 644 q 591 663 581 653 q 611 675 601 674 q 625 676 621 676 q 638 673 629 675 q 653 669 647 671 q 689 681 671 668 q 711 697 710 696 q 715 703 713 699 q 721 709 718 707 q 728 713 724 711 q 782 725 776 724 q 808 735 803 733 q 814 733 811 735 q 815 731 817 732 q 806 721 811 724 q 757 701 779 704 q 750 702 754 701 q 743 703 746 703 q 739 700 740 703 q 740 696 738 697 q 764 696 747 694 q 778 697 771 697 q 790 696 783 697 q 792 696 792 696 q 803 695 797 696 q 808 693 808 694 q 804 689 808 692 q 756 672 782 675 q 731 672 751 671 q 720 671 725 674 q 717 664 715 668 q 743 646 732 650 q 747 646 744 646 q 755 640 757 643 q 744 635 753 636 q 719 637 736 633 q 679 649 701 640 q 693 621 675 646 q 689 617 697 617 q 685 618 688 617 q 672 625 678 621 q 653 647 661 635 q 651 647 651 647 l 654 618 q 642 631 649 618 q 635 646 639 635 q 626 663 632 657 q 603 650 618 671 q 579 631 594 636 q 539 631 560 619 q 525 656 525 639 q 531 661 525 661 q 533 661 532 661 m 629 703 q 661 713 643 696 q 668 719 664 714 q 675 726 672 724 q 682 730 678 728 q 690 735 686 732 q 719 739 704 739 q 725 739 722 739 q 736 729 736 738 q 725 719 736 726 q 713 714 722 718 q 697 704 703 710 q 667 683 678 686 q 651 681 660 681 q 639 682 644 681 q 624 694 626 685 q 625 701 624 697 q 629 703 626 704 m 563 713 q 579 696 575 699 q 591 694 583 693 q 601 693 599 696 q 588 675 606 688 q 567 664 574 665 q 558 662 565 664 q 547 663 550 660 q 538 676 538 665 q 539 683 538 679 q 539 695 540 686 q 542 706 538 704 q 547 709 543 708 q 553 710 551 710 q 563 713 561 714 m 528 760 q 520 753 525 756 q 513 753 515 750 q 510 767 510 760 q 510 769 510 768 q 521 779 513 778 q 522 768 521 769 q 525 765 522 767 q 528 760 528 763 m 535 751 q 537 750 536 751 q 538 744 538 749 q 538 739 538 740 q 546 735 539 735 q 553 728 553 735 q 543 718 553 721 q 538 718 540 718 q 524 731 525 718 q 535 751 519 749 m 507 722 q 517 717 510 719 q 526 710 524 715 q 531 683 533 700 q 513 657 529 668 q 489 644 501 649 q 419 639 461 635 q 403 643 413 640 q 389 646 394 646 q 344 639 360 651 q 394 664 364 664 q 411 660 396 664 q 440 655 426 656 q 475 658 453 654 q 497 665 497 665 q 512 681 507 671 q 511 700 517 690 q 493 710 504 713 q 488 706 488 708 q 493 699 489 703 q 496 692 497 696 q 491 689 493 689 q 483 691 489 689 q 475 694 478 693 q 456 696 458 694 q 444 711 444 700 q 446 714 444 713 q 457 732 446 721 q 478 743 468 743 q 485 742 485 743 q 486 739 486 742 q 489 736 488 736 q 494 740 492 736 q 498 744 496 740 q 503 749 500 749 q 507 747 506 750 q 508 742 508 744 q 507 738 508 740 q 506 732 506 735 q 507 727 506 732 q 507 722 508 722 m 440 717 q 461 683 440 686 q 472 685 464 683 q 482 685 479 688 q 485 678 486 681 q 480 678 483 676 q 475 679 476 679 q 477 674 475 676 q 479 669 479 672 q 472 669 476 669 q 468 669 469 669 q 464 672 467 669 q 458 674 461 674 q 457 665 457 672 q 456 663 457 664 q 453 661 454 661 q 448 667 450 663 q 444 674 446 671 q 440 675 442 676 q 438 672 439 674 q 435 669 436 669 q 431 674 432 668 q 429 686 429 681 l 429 688 q 430 692 429 689 q 429 699 431 696 q 426 700 428 700 q 422 699 425 700 q 417 697 418 697 q 417 699 417 697 q 432 718 417 714 q 436 718 433 719 q 440 717 439 717 m 465 747 l 453 742 q 417 761 432 763 q 404 757 410 760 q 392 749 399 754 q 381 740 385 743 q 343 729 364 729 q 340 729 342 729 q 322 737 329 729 q 314 756 314 744 q 318 749 315 754 q 324 743 321 744 q 351 739 336 735 q 373 752 361 742 q 393 765 385 763 q 433 776 421 778 q 465 747 460 774 m 569 833 q 578 838 572 838 q 575 828 578 833 q 574 819 572 824 q 583 825 578 819 q 592 832 588 831 q 590 822 594 832 q 589 817 589 818 q 603 822 592 817 q 632 833 621 833 q 638 833 635 833 q 668 824 654 833 q 676 807 681 815 q 669 801 675 803 q 661 803 664 800 q 629 811 649 817 q 612 803 622 808 q 594 796 601 799 q 576 793 586 793 q 575 793 575 793 q 567 796 572 794 q 560 797 563 797 q 557 794 558 797 q 559 788 556 790 q 568 785 563 785 q 577 788 571 785 q 588 790 583 790 q 621 793 611 790 q 629 797 624 794 q 639 801 635 800 q 653 794 653 804 q 651 789 653 793 q 651 782 650 785 q 654 778 651 779 q 661 776 657 776 q 667 774 665 775 q 672 769 669 772 q 672 760 674 767 q 671 751 669 754 q 674 748 672 750 q 676 743 676 746 q 671 735 678 739 q 650 721 661 726 q 638 717 640 717 q 635 724 633 717 q 636 735 638 732 q 621 749 633 743 q 613 764 613 753 q 596 764 613 774 q 589 756 592 761 q 589 749 586 751 q 606 743 589 747 q 629 719 629 738 q 624 721 626 719 q 618 722 621 722 q 620 717 618 719 q 624 711 622 714 q 618 708 624 707 q 608 715 613 708 q 600 721 604 721 q 601 715 600 718 q 603 708 603 711 q 592 711 601 703 q 590 715 592 713 q 588 719 589 718 q 585 719 586 719 q 585 717 585 718 q 585 710 585 714 q 586 704 586 707 q 578 708 581 704 q 574 717 576 711 q 568 726 571 722 q 563 730 567 728 q 557 735 558 732 q 554 744 554 739 q 554 746 554 746 q 547 768 554 758 q 540 779 544 774 q 533 786 538 783 q 531 790 531 789 q 528 790 529 790 q 526 790 528 790 q 528 796 526 793 q 531 799 529 799 q 535 803 532 800 q 540 806 539 806 q 546 815 544 808 q 547 824 547 822 q 554 833 550 829 q 558 835 557 836 q 558 828 558 833 q 561 821 558 822 q 564 824 563 821 q 569 833 569 833 m 604 835 q 597 844 597 840 q 603 850 599 846 q 625 861 613 857 q 637 867 629 863 q 651 873 644 871 q 664 875 657 875 q 663 871 664 872 q 659 867 661 869 q 656 864 657 865 q 656 860 656 863 q 656 857 656 858 q 664 860 657 857 q 690 868 683 868 q 697 863 697 867 q 685 856 692 858 q 679 849 681 851 q 683 847 679 847 q 699 846 696 849 q 699 840 701 843 q 692 833 697 836 q 683 831 688 829 q 672 836 679 832 q 660 840 665 840 q 608 836 646 842 l 604 835 m 679 790 q 682 797 679 793 q 687 801 685 800 q 695 805 689 803 q 703 808 701 807 q 713 815 708 811 q 721 824 717 818 q 728 833 725 831 q 740 846 733 840 q 752 848 749 851 q 747 839 756 844 q 735 826 739 835 q 735 815 731 818 q 750 817 739 811 q 758 822 754 819 q 766 827 761 824 q 774 833 771 831 q 801 856 786 842 q 826 878 817 869 q 838 883 831 879 q 850 888 844 886 q 868 886 864 889 q 856 872 874 882 q 846 866 851 869 q 838 861 840 863 q 817 847 826 854 q 799 830 808 840 q 782 814 789 819 q 771 806 778 810 q 761 800 764 803 q 747 792 754 794 q 731 790 740 790 q 717 788 722 789 q 692 782 706 783 q 679 786 681 781 q 679 790 678 789 m 685 747 q 689 756 686 750 q 694 764 692 761 q 724 772 704 772 q 747 774 744 771 q 756 781 751 775 q 765 790 761 788 q 772 790 768 793 q 772 782 778 789 q 765 768 765 769 q 765 762 764 765 q 769 760 767 758 q 776 763 772 760 q 782 768 779 767 q 832 789 815 785 q 885 796 867 797 l 886 796 q 899 790 893 796 q 898 785 901 789 q 890 781 894 782 q 876 780 885 779 q 861 779 867 781 q 804 761 822 771 q 791 753 801 760 q 774 744 781 747 q 765 740 771 744 q 756 736 760 736 q 747 742 754 736 q 722 750 736 750 q 714 749 718 750 q 706 748 713 749 q 696 746 700 747 q 685 747 683 743 z "},"4":{"ha":1389,"x_min":19,"x_max":1369,"o":"m 547 454 q 543 350 531 413 q 475 422 497 367 q 472 435 474 426 q 467 450 469 444 q 460 458 464 456 q 417 463 450 464 q 348 458 394 461 q 278 453 301 454 q 265 451 271 451 q 231 456 247 451 q 219 463 221 457 q 224 476 217 469 q 247 490 232 482 q 265 500 263 499 q 281 513 279 508 q 376 611 301 578 q 647 646 503 668 q 674 642 661 644 q 707 649 686 638 q 754 668 729 661 q 803 657 779 675 q 794 649 801 657 q 783 639 786 642 q 778 630 781 636 q 775 617 775 624 q 785 594 776 600 q 940 368 883 521 q 983 201 971 286 q 1003 178 986 185 q 1074 142 1039 163 q 1115 92 1099 126 q 1053 100 1057 99 q 1010 117 1029 106 q 975 118 988 129 q 961 113 968 114 q 893 99 947 110 q 897 150 876 125 q 918 169 906 161 q 925 201 936 179 q 794 374 874 318 q 628 442 729 422 q 585 449 614 444 q 547 454 557 453 m 74 155 q 48 217 74 155 q 21 417 21 279 q 74 678 21 554 q 218 893 128 803 q 433 1037 308 983 q 694 1090 557 1090 q 956 1037 832 1090 q 1171 893 1081 983 q 1315 678 1261 803 q 1368 417 1368 554 q 1315 155 1368 279 q 1171 -60 1261 31 q 956 -203 1081 -150 q 694 -257 832 -257 q 433 -203 557 -257 q 218 -60 308 -150 q 74 155 128 31 m 182 714 q 142 646 182 714 q 103 417 103 578 q 182 119 103 256 q 397 -96 261 -17 q 694 -175 533 -175 q 992 -96 856 -175 q 1207 119 1128 -17 q 1286 417 1286 256 q 1207 714 1286 578 q 992 929 1128 850 q 694 1008 856 1008 q 397 929 533 1008 q 182 714 261 850 z "},"5":{"ha":1389,"x_min":19,"x_max":1369,"o":"m 675 410 q 674 426 672 415 q 674 440 675 436 q 646 497 663 471 q 601 561 644 499 q 600 572 596 569 q 610 567 603 574 q 671 463 647 519 q 673 455 671 460 q 675 450 675 450 q 684 438 679 440 q 699 436 689 436 q 714 449 710 438 q 779 565 738 513 q 790 571 786 575 q 792 567 792 568 q 790 563 793 567 q 786 560 786 560 q 715 442 743 506 q 714 438 714 439 q 717 429 717 433 q 717 428 717 429 q 717 419 717 424 q 714 411 717 419 l 717 410 q 722 418 721 415 q 940 635 811 558 q 1067 683 1004 672 q 1100 688 1083 688 q 1129 685 1114 688 q 1170 659 1158 679 q 1172 611 1182 639 q 1138 551 1161 578 q 1118 508 1121 533 q 1082 383 1110 436 q 1049 344 1067 356 q 1015 326 1047 343 q 1017 325 1015 325 q 1044 206 1054 267 q 983 101 1033 144 q 867 60 931 56 q 767 114 810 64 q 718 201 738 147 q 715 210 717 206 q 713 211 714 211 q 714 186 714 189 q 711 121 713 144 q 706 106 710 113 q 694 96 699 96 q 683 106 688 96 q 676 133 678 118 q 676 203 676 133 q 676 204 676 203 q 675 210 676 207 l 669 196 q 618 111 649 143 q 528 60 579 68 q 429 85 478 53 q 343 243 339 142 q 369 319 346 285 l 375 329 q 324 358 342 336 q 292 418 307 381 q 268 525 272 471 q 263 539 267 533 q 221 600 232 574 q 213 635 213 617 q 214 643 213 639 q 261 685 218 678 q 363 674 304 693 q 546 564 457 643 q 668 417 617 499 q 671 411 671 411 q 672 411 671 411 l 672 410 l 675 410 m 746 365 q 757 364 757 364 q 879 357 867 357 q 915 356 897 356 q 1001 363 958 356 q 1038 378 1025 365 q 1046 399 1049 388 q 1029 413 1043 410 q 1007 414 1018 414 q 1000 414 1004 414 q 978 414 989 414 q 897 424 938 414 q 850 421 871 431 q 746 365 833 413 m 642 365 q 567 408 575 403 q 535 422 551 417 q 513 426 524 426 q 496 425 504 426 q 410 414 454 414 q 386 414 397 414 q 381 415 383 415 q 358 411 369 415 q 344 399 346 408 q 350 379 342 389 q 381 364 363 367 q 436 357 408 358 q 564 358 490 357 q 642 365 565 358 m 892 117 q 888 132 890 124 q 815 249 853 210 q 746 299 785 279 q 740 299 743 299 q 742 294 740 296 q 754 276 747 285 q 854 129 797 221 q 876 106 863 115 q 886 103 882 100 q 892 117 890 107 m 497 117 q 513 106 497 96 q 524 114 519 108 q 540 138 528 118 q 580 195 554 157 q 626 262 606 233 q 647 293 646 290 q 649 299 649 296 q 642 297 646 299 q 569 243 601 276 q 501 132 535 206 q 497 117 499 124 m 472 238 q 483 232 472 226 q 554 257 517 250 q 564 263 560 258 q 593 285 572 268 q 626 310 614 301 q 633 313 628 311 q 639 317 638 315 q 642 321 640 318 q 642 322 642 322 q 638 325 638 325 q 578 322 594 324 q 542 307 551 321 q 499 276 525 285 q 493 274 496 275 q 472 238 478 263 m 781 325 l 751 325 q 747 324 747 325 q 747 322 747 324 q 749 318 747 319 q 753 315 750 317 q 825 263 793 293 q 835 257 829 258 q 906 232 872 250 q 914 231 913 229 q 917 238 917 233 q 915 240 917 239 q 888 278 913 267 q 879 281 886 279 q 869 286 872 283 q 857 296 863 289 q 818 322 842 318 q 781 325 815 322 m 935 511 q 922 522 933 522 q 872 500 890 522 q 760 401 835 454 q 739 386 749 394 q 738 376 739 386 l 743 376 q 871 451 851 439 q 925 496 882 458 q 936 511 932 503 l 935 511 m 467 522 q 456 517 456 517 q 460 501 453 511 q 478 482 468 490 q 519 450 496 467 q 557 425 543 433 q 605 398 571 417 q 646 375 639 379 q 649 376 647 375 q 651 376 651 376 q 649 388 651 382 q 635 397 642 393 q 515 501 554 454 q 467 522 501 519 m 964 433 q 1006 436 1003 436 q 1032 443 1019 438 q 1043 457 1044 447 q 1028 468 1042 465 q 1019 468 1024 468 q 1018 468 1019 468 q 926 472 940 469 q 914 468 921 474 q 883 446 907 464 q 879 443 882 444 q 885 440 882 442 q 964 433 910 438 m 421 432 l 504 440 q 508 442 507 442 q 506 446 507 444 q 472 469 475 468 q 461 472 468 472 q 458 472 460 472 q 444 471 454 472 q 429 469 435 469 q 371 469 429 469 q 369 469 369 469 q 356 467 363 469 q 346 458 347 464 q 351 447 344 451 q 371 438 360 440 q 421 432 381 436 m 947 131 q 936 161 946 147 q 927 174 936 161 q 914 192 918 186 q 857 235 899 219 q 851 235 854 235 q 849 235 850 235 q 850 232 849 235 q 851 228 851 229 q 853 226 853 226 q 901 135 885 185 q 913 117 906 125 q 935 109 922 104 q 947 131 947 114 m 442 131 q 455 108 442 113 q 476 117 468 104 q 489 139 485 126 q 533 222 504 183 q 540 231 538 226 q 540 235 542 233 q 536 235 539 236 q 485 206 497 222 q 453 160 475 192 q 442 131 442 147 m 657 286 l 654 286 q 651 283 653 285 q 549 132 611 200 q 542 122 544 128 q 550 106 536 110 q 556 104 553 104 q 578 117 569 104 q 611 169 599 149 q 653 260 644 224 q 657 286 656 272 m 735 286 l 732 286 q 736 260 733 272 q 814 114 751 204 q 832 104 821 104 q 840 106 836 104 q 847 122 853 111 q 838 135 843 129 q 747 264 785 193 l 735 286 m 918 271 q 938 239 933 246 q 942 235 940 236 q 978 215 968 221 q 993 210 985 211 q 1008 213 1003 207 q 1011 229 1014 218 q 989 253 1007 247 q 918 271 983 254 m 472 271 q 399 251 408 254 q 378 228 381 246 q 381 213 376 218 q 394 210 386 207 q 414 217 406 213 q 444 233 421 221 q 451 238 449 235 q 461 256 454 244 q 472 272 468 267 l 472 271 m 911 314 q 878 310 882 311 q 874 306 875 308 q 878 300 874 303 q 890 296 883 297 q 974 272 932 283 q 988 269 981 271 q 997 272 993 269 q 996 282 997 276 q 960 307 981 303 q 933 310 950 308 q 911 314 917 313 m 401 268 q 408 271 401 269 q 417 272 414 272 q 488 292 451 282 q 511 300 504 297 q 515 306 515 301 q 510 310 515 307 q 504 311 507 311 q 482 313 493 313 q 426 306 454 313 q 393 279 404 300 q 401 268 385 268 m 964 157 q 989 171 982 156 q 979 194 993 183 q 975 197 978 196 q 926 221 932 218 q 918 221 926 221 q 919 213 918 217 q 944 168 932 190 q 964 157 951 157 m 425 157 q 443 167 438 157 q 469 213 457 190 q 471 219 471 215 q 471 221 471 219 l 463 221 q 410 194 422 200 q 400 171 396 185 q 425 157 406 157 m 949 485 q 992 494 988 493 q 1011 511 1004 500 q 1013 522 1015 517 q 1003 529 1010 528 q 996 531 1000 531 q 986 528 990 531 q 943 499 965 522 q 933 488 938 493 l 949 485 m 440 485 l 442 486 l 451 486 q 454 490 457 486 q 399 529 425 522 q 392 531 396 531 q 386 529 389 531 q 376 522 378 528 q 378 510 374 517 q 399 494 386 500 q 440 485 401 493 m 793 117 q 771 157 789 124 q 747 203 753 190 q 734 243 742 217 q 725 293 726 269 q 735 201 717 250 q 793 117 754 151 m 664 294 q 657 249 657 250 q 617 156 650 215 q 596 118 613 150 l 597 117 q 664 294 676 194 m 1107 613 q 1108 613 1107 613 q 1124 619 1118 613 q 1131 636 1131 626 q 1124 653 1131 646 q 1107 660 1117 660 q 1090 653 1097 660 q 1083 636 1083 646 q 1090 619 1083 626 q 1107 613 1097 613 l 1107 613 m 282 613 q 299 619 292 613 q 306 636 306 626 q 299 653 306 646 q 282 660 292 660 q 265 653 272 660 q 258 636 258 646 q 258 636 258 636 q 265 619 258 626 q 281 613 272 613 l 282 613 m 861 332 q 906 326 875 331 q 956 319 938 321 q 965 318 961 318 q 972 318 969 318 q 976 321 972 318 q 974 324 974 324 q 960 329 967 328 q 861 332 919 340 m 526 332 q 436 332 475 339 q 415 324 425 329 q 413 321 415 324 q 417 318 417 318 q 422 318 419 318 q 433 319 428 318 q 528 332 453 321 l 526 332 m 439 590 l 439 592 q 434 603 439 599 q 422 608 429 608 l 421 608 q 409 603 414 608 q 404 590 404 597 q 421 574 404 574 q 433 578 428 574 q 439 590 439 583 m 950 592 l 950 590 q 955 578 950 583 q 968 574 960 574 q 985 590 983 574 q 980 602 985 597 q 968 608 975 607 q 967 608 968 608 q 955 603 960 608 q 950 592 950 599 l 950 592 m 899 546 q 885 561 899 561 q 869 547 871 561 l 869 546 q 883 532 869 532 l 885 532 q 899 546 899 532 q 899 546 899 546 m 519 546 q 506 561 519 560 q 490 547 492 561 l 490 546 q 504 532 490 532 q 506 532 506 532 q 519 546 519 532 l 519 546 m 1106 557 q 1106 558 1106 558 q 1093 571 1106 571 q 1081 558 1081 571 q 1081 558 1081 558 q 1092 546 1081 546 q 1093 546 1092 546 q 1104 557 1104 546 l 1106 557 m 308 558 q 297 571 308 571 q 285 558 285 571 q 297 546 285 546 q 308 558 308 546 m 1033 614 q 1044 625 1044 614 l 1044 625 q 1033 636 1044 636 l 1033 636 q 1022 625 1022 636 q 1022 625 1022 625 q 1032 614 1022 614 l 1033 614 m 346 625 q 357 614 346 614 q 357 614 357 614 q 367 624 367 614 l 367 625 q 357 636 367 636 q 346 625 346 636 m 350 528 l 350 531 q 340 536 342 536 q 333 529 335 535 q 340 521 335 524 q 350 528 342 521 m 1057 526 l 1057 531 q 1049 536 1049 536 q 1040 529 1043 535 q 1047 521 1042 524 q 1057 526 1049 521 m 1085 486 q 1074 493 1075 493 q 1074 493 1074 493 q 1067 488 1067 493 q 1067 486 1067 486 q 1075 479 1069 481 q 1085 486 1075 479 m 325 486 q 315 493 315 493 q 307 486 314 493 q 315 479 314 479 q 325 486 315 479 m 829 513 q 824 501 824 503 q 831 496 824 496 q 836 503 836 496 q 829 513 836 504 m 558 493 q 565 503 565 501 q 559 508 565 508 q 553 503 553 508 q 558 492 553 501 l 558 493 m 957 557 q 951 547 951 549 q 958 542 951 547 q 964 548 964 547 q 957 557 964 549 m 432 538 q 438 547 438 547 q 433 551 438 549 q 431 554 432 553 q 425 547 425 547 q 432 538 425 547 m 1028 579 q 1022 572 1022 572 q 1028 568 1024 568 q 1031 569 1029 567 q 1033 572 1033 571 q 1028 579 1033 574 m 368 571 q 361 576 363 576 q 356 572 357 576 q 361 567 357 568 q 368 571 361 567 m 74 155 q 48 217 74 155 q 21 417 21 279 q 74 678 21 554 q 218 893 128 803 q 433 1037 308 983 q 694 1090 557 1090 q 956 1037 832 1090 q 1171 893 1081 983 q 1315 678 1261 803 q 1368 417 1368 554 q 1315 155 1368 279 q 1171 -60 1261 31 q 956 -203 1081 -150 q 694 -257 832 -257 q 433 -203 557 -257 q 218 -60 308 -150 q 74 155 128 31 m 182 714 q 142 646 182 714 q 103 417 103 578 q 182 119 103 256 q 397 -96 261 -17 q 694 -175 533 -175 q 992 -96 856 -175 q 1207 119 1128 -17 q 1286 417 1286 256 q 1207 714 1286 578 q 992 929 1128 850 q 694 1008 856 1008 q 397 929 533 1008 q 182 714 261 850 z "},"6":{"ha":1389,"x_min":19,"x_max":1369,"o":"m 353 833 q 363 828 363 829 l 499 781 q 503 779 499 781 q 501 785 503 783 q 495 790 499 788 q 490 794 492 793 q 493 794 492 794 q 496 794 494 794 q 515 789 507 792 q 521 790 519 788 q 549 818 529 811 q 575 833 551 818 q 582 839 576 835 q 597 843 589 843 q 611 839 604 843 q 628 828 618 835 q 642 824 635 824 q 651 826 646 824 q 696 824 672 836 q 707 818 701 821 q 739 808 722 808 q 744 808 742 808 q 758 810 744 808 l 758 808 q 744 803 753 806 q 722 799 735 799 q 708 800 715 799 q 698 802 704 800 q 689 804 692 804 q 683 804 689 804 l 683 803 q 688 801 685 801 q 710 793 706 794 q 733 771 726 788 q 738 761 735 767 q 708 779 721 778 q 710 778 710 779 q 726 757 719 774 q 736 740 731 749 q 749 735 740 735 q 750 735 749 735 q 775 742 763 735 q 776 742 775 742 q 778 742 776 742 q 765 726 774 732 q 749 722 757 722 q 728 729 738 722 q 723 734 726 731 q 718 739 719 738 q 713 743 718 739 q 713 738 713 740 q 713 735 713 736 q 729 707 717 718 q 746 700 736 700 l 747 700 q 810 667 779 701 q 813 664 811 665 q 797 671 811 664 q 754 682 774 683 q 735 681 753 682 q 731 681 733 681 q 713 688 721 681 q 708 689 711 688 q 729 668 714 674 q 761 658 761 658 q 793 633 781 650 q 814 621 800 621 q 825 624 819 621 q 831 627 828 625 q 835 629 833 629 q 838 629 836 629 q 821 614 833 618 q 792 619 803 607 q 763 638 779 633 q 758 638 760 638 l 757 638 q 765 631 758 636 q 774 621 771 625 q 778 610 778 617 q 782 589 778 610 l 781 588 q 778 592 779 590 q 774 601 778 594 q 769 613 771 608 q 751 626 764 624 q 733 631 742 629 q 715 640 724 632 q 713 642 714 642 q 719 631 718 632 q 733 619 725 622 q 758 596 746 614 q 774 554 771 576 q 774 551 774 553 q 772 546 774 549 q 767 557 767 556 q 738 583 756 574 q 715 606 721 592 q 714 610 715 608 q 713 607 713 607 q 736 564 717 576 q 756 542 750 557 q 760 529 758 533 q 786 513 767 510 q 832 525 810 515 q 843 531 835 526 l 844 529 q 840 526 844 529 q 832 521 835 522 q 797 501 817 508 q 779 500 788 500 q 775 500 776 500 q 746 521 760 500 q 738 533 743 528 q 722 542 732 542 q 718 536 717 542 q 753 496 732 506 q 761 492 758 492 q 792 457 779 483 q 793 455 793 456 q 792 453 793 454 l 788 458 q 756 478 775 474 q 726 488 740 482 q 722 490 725 489 l 722 489 q 725 485 722 489 q 729 481 728 482 q 790 443 751 458 q 839 422 824 429 q 881 392 864 411 q 885 389 883 390 q 888 397 886 396 q 900 433 893 415 q 942 489 918 472 q 978 500 958 500 q 986 500 982 500 q 1014 490 993 499 q 1058 472 1047 475 q 1104 464 1081 464 q 1115 464 1111 464 q 1146 472 1131 465 l 1150 475 q 1137 458 1149 468 q 1113 444 1125 449 q 1063 447 1092 439 q 1065 444 1064 446 q 1100 429 1078 432 q 1106 428 1103 428 q 1108 428 1107 428 q 1133 408 1129 428 q 1142 376 1139 393 q 1182 333 1146 340 q 1214 329 1183 333 l 1218 329 q 1217 328 1217 328 q 1164 322 1186 317 q 1129 351 1142 328 q 1124 363 1128 356 q 1119 375 1121 371 q 1086 401 1111 393 l 1085 400 q 1086 399 1085 400 q 1088 397 1088 397 q 1117 353 1111 375 q 1119 326 1119 340 q 1115 297 1119 311 q 1114 293 1114 294 q 1113 297 1113 297 q 1096 353 1113 328 q 1088 361 1092 358 q 1082 364 1085 363 l 1082 363 q 1085 358 1083 358 q 1100 311 1100 332 q 1098 300 1099 307 q 1096 290 1097 293 q 1121 239 1093 260 q 1136 229 1122 238 q 1133 229 1135 229 q 1129 229 1132 229 q 1110 233 1119 231 q 1082 275 1081 243 q 1081 299 1082 288 q 1076 306 1079 301 q 1071 308 1075 308 q 1065 306 1067 308 q 1051 272 1051 292 q 1051 269 1051 271 q 1068 217 1051 247 q 1081 194 1079 197 q 1085 175 1085 186 q 1078 150 1085 161 q 1042 113 1068 135 q 1003 78 1010 83 q 988 50 988 64 q 1010 -18 986 8 l 1010 -19 q 1008 -18 1010 -19 q 971 29 983 0 q 976 103 957 65 q 986 122 979 110 q 996 139 993 133 q 1011 188 1010 161 q 1011 190 1011 189 q 1004 222 1011 207 q 998 238 1003 228 q 992 251 993 247 q 985 283 985 267 q 994 321 985 304 q 1004 343 999 329 q 1004 375 1011 360 q 985 397 997 390 q 968 401 978 401 q 949 396 957 401 q 954 394 953 394 q 976 388 965 393 q 985 356 996 375 q 968 335 978 344 q 960 324 967 332 q 954 281 942 304 q 972 250 957 275 q 971 251 972 250 q 938 288 947 268 q 933 307 933 296 q 939 328 933 318 q 951 353 947 344 q 954 367 954 360 q 951 374 954 371 q 915 382 931 388 q 899 369 904 378 q 899 367 899 368 q 899 364 899 365 q 906 350 901 358 q 901 274 922 313 q 883 246 893 260 q 881 242 881 243 q 882 238 881 239 q 903 217 890 225 q 924 201 910 211 q 944 188 939 192 q 961 174 954 182 q 965 165 965 171 q 965 163 965 164 q 939 40 946 75 q 939 38 939 39 q 940 29 939 33 q 942 25 940 28 q 939 3 949 13 q 938 -18 931 -7 q 947 -35 943 -26 q 950 -43 950 -39 q 946 -56 950 -50 q 914 -87 933 -75 q 911 -89 913 -89 q 910 -89 910 -89 q 908 -85 908 -87 q 907 -46 907 -56 q 910 -33 907 -39 q 913 -19 913 -26 q 911 -7 913 -12 q 908 4 908 -1 q 910 14 908 10 q 929 106 925 85 q 932 143 932 125 q 932 144 932 144 q 919 165 932 160 q 879 182 904 172 q 860 189 872 185 q 844 195 849 193 q 838 193 839 197 q 835 192 836 192 q 836 150 818 169 q 863 125 836 149 q 867 119 863 124 q 871 108 871 114 q 868 99 871 103 q 807 -8 838 46 q 806 -19 806 -14 q 806 -21 806 -21 q 807 -29 806 -25 q 807 -31 807 -29 q 801 -40 807 -37 q 792 -69 783 -50 q 793 -75 793 -72 q 794 -82 794 -79 q 783 -103 794 -96 q 751 -121 768 -114 q 750 -121 750 -121 q 745 -121 749 -121 q 742 -121 742 -121 q 742 -114 742 -117 q 750 -83 747 -90 q 758 -69 753 -75 q 767 -43 769 -54 q 767 -42 767 -42 q 772 -24 767 -32 q 818 56 810 40 q 832 93 826 74 q 835 101 835 97 q 825 118 835 113 q 797 138 811 129 q 776 149 792 140 q 753 164 760 158 q 708 238 715 190 q 707 261 707 250 q 707 264 707 263 q 719 299 707 283 q 715 314 728 308 q 699 319 707 318 q 674 326 693 321 q 643 336 654 332 q 600 351 622 342 q 574 365 586 358 q 542 394 556 378 q 533 396 538 399 q 530 394 532 396 q 526 392 528 393 q 486 386 510 376 q 473 392 482 388 q 458 399 464 397 q 421 413 431 410 q 408 412 411 415 q 406 399 404 408 q 421 367 408 388 q 433 346 424 364 q 438 332 438 339 q 438 324 438 328 q 436 319 436 321 q 438 315 436 317 q 444 310 439 310 q 447 310 446 310 q 453 311 449 310 q 457 313 457 313 q 475 307 469 315 q 492 276 486 288 q 499 254 496 267 q 499 249 500 250 q 493 249 497 247 q 456 265 468 260 q 444 276 449 269 q 436 284 442 278 q 426 294 431 290 q 403 336 408 311 q 394 369 400 353 q 385 388 392 376 q 376 404 378 400 q 371 417 374 410 q 371 422 371 419 q 383 438 371 436 q 417 443 400 442 q 447 445 428 444 q 472 447 467 446 q 503 461 488 449 q 504 465 504 463 q 501 482 503 474 q 499 485 500 485 q 471 511 482 490 q 443 550 457 532 q 432 561 439 557 q 424 564 429 564 q 415 560 418 564 q 401 544 407 553 q 382 513 394 535 q 363 499 376 501 q 356 492 357 497 q 358 483 354 488 q 362 479 358 482 q 367 475 365 476 q 369 467 369 471 q 368 464 369 465 q 335 417 357 436 l 325 450 q 326 456 325 451 q 328 469 326 463 q 331 481 329 474 q 335 492 333 488 q 351 525 342 515 q 356 530 353 526 q 361 535 360 533 q 396 576 382 551 q 403 588 399 582 q 429 594 414 601 q 461 578 444 588 q 486 563 469 572 q 504 553 503 554 q 510 553 508 550 q 543 583 524 571 q 590 644 576 606 q 592 692 600 671 q 581 707 589 701 q 580 703 581 706 q 579 700 579 701 q 562 669 575 682 q 531 654 549 657 q 527 654 529 654 q 525 654 525 654 q 501 639 514 651 q 493 619 493 631 l 493 618 q 482 608 493 610 q 481 608 482 608 q 475 608 478 608 q 471 607 472 607 q 465 608 468 607 q 458 613 463 611 q 449 624 450 614 q 448 632 449 626 q 447 640 447 638 q 447 643 447 642 q 453 658 447 651 q 481 693 469 674 q 486 722 489 710 q 485 725 485 724 q 488 732 485 728 q 494 742 490 738 q 496 744 494 742 l 496 746 q 483 737 488 743 q 477 727 478 731 q 475 713 476 724 q 474 738 465 728 q 482 747 478 742 q 483 750 482 749 q 476 748 481 750 q 471 744 472 746 q 453 725 458 742 q 451 721 451 724 q 465 750 449 743 q 479 760 472 754 l 350 832 l 353 833 m 74 155 q 48 217 74 155 q 21 417 21 279 q 74 678 21 554 q 218 893 128 803 q 433 1037 308 983 q 694 1090 557 1090 q 956 1037 832 1090 q 1171 893 1081 983 q 1315 678 1261 803 q 1368 417 1368 554 q 1315 155 1368 279 q 1171 -60 1261 31 q 956 -203 1081 -150 q 694 -257 832 -257 q 433 -203 557 -257 q 218 -60 308 -150 q 74 155 128 31 m 182 714 q 142 646 182 714 q 103 417 103 578 q 182 119 103 256 q 397 -96 261 -17 q 694 -175 533 -175 q 992 -96 856 -175 q 1207 119 1128 -17 q 1286 417 1286 256 q 1207 714 1286 578 q 992 929 1128 850 q 694 1008 856 1008 q 397 929 533 1008 q 182 714 261 850 z "},"7":{"ha":1389,"x_min":19,"x_max":1369,"o":"m 611 206 q 642 285 617 247 q 697 347 668 324 q 767 403 726 371 q 828 460 807 435 q 853 511 850 483 q 844 556 857 539 q 807 578 831 572 q 751 563 783 583 q 709 515 725 544 q 680 444 693 485 q 657 385 667 404 q 591 312 632 340 q 504 292 550 283 q 421 355 442 310 q 418 450 400 400 q 481 539 436 500 q 495 594 503 565 q 463 646 488 624 q 436 649 454 649 q 404 653 418 650 q 379 667 390 656 q 326 740 340 697 q 369 786 311 788 q 374 786 371 786 q 444 766 421 778 q 470 744 467 754 q 482 715 474 733 q 508 681 490 697 q 561 572 563 628 q 508 461 560 517 q 498 415 492 439 q 524 385 504 390 q 568 399 544 381 q 615 501 590 426 q 671 606 640 575 q 755 656 706 643 q 851 649 804 668 q 919 582 897 631 q 930 497 940 536 q 892 429 919 457 q 826 372 864 401 q 754 319 788 343 q 699 265 721 296 q 683 200 678 233 q 723 157 689 161 q 785 186 757 153 q 827 259 800 206 q 876 335 854 313 q 940 373 903 369 q 999 349 976 376 q 1014 276 1022 321 q 982 153 975 204 q 1057 51 989 103 q 970 117 1003 67 q 957 219 938 167 q 968 313 975 272 q 940 331 963 340 q 889 280 908 317 q 851 198 869 243 q 810 131 832 153 q 726 88 775 89 q 643 120 678 86 q 611 206 608 154 m 74 155 q 48 217 74 155 q 21 417 21 279 q 74 678 21 554 q 218 893 128 803 q 433 1037 308 983 q 694 1090 557 1090 q 956 1037 832 1090 q 1171 893 1081 983 q 1315 678 1261 803 q 1368 417 1368 554 q 1315 155 1368 279 q 1171 -60 1261 31 q 956 -203 1081 -150 q 694 -257 832 -257 q 433 -203 557 -257 q 218 -60 308 -150 q 74 155 128 31 m 182 714 q 142 646 182 714 q 103 417 103 578 q 182 119 103 256 q 397 -96 261 -17 q 694 -175 533 -175 q 992 -96 856 -175 q 1207 119 1128 -17 q 1286 417 1286 256 q 1207 714 1286 578 q 992 929 1128 850 q 694 1008 856 1008 q 397 929 533 1008 q 182 714 261 850 z "},"8":{"ha":1389,"x_min":19,"x_max":1369,"o":"m 746 789 q 753 792 750 792 q 761 789 757 792 q 806 745 776 775 q 850 701 836 715 q 874 668 857 696 q 876 663 876 665 q 876 660 876 661 q 869 653 876 653 q 864 656 867 654 q 694 706 778 700 q 689 725 671 706 l 746 789 m 661 690 q 902 608 801 688 q 1040 388 1003 528 q 1071 342 1049 357 q 1161 217 1140 294 q 1161 200 1161 215 q 1144 207 1153 203 q 1090 238 1108 226 q 1047 222 1060 256 q 1003 117 1040 201 q 993 104 999 110 q 983 117 983 117 q 988 299 958 203 q 992 314 989 303 q 997 330 996 325 q 1000 344 999 335 q 999 357 1001 354 q 939 438 976 403 q 800 450 875 494 q 727 401 774 433 q 671 361 681 368 q 638 346 669 360 q 640 376 640 375 q 628 471 632 449 q 639 506 622 494 q 881 535 765 592 q 890 531 885 532 q 899 531 894 531 q 903 531 900 531 q 894 542 900 536 q 729 572 817 596 q 629 528 690 563 q 605 519 615 519 q 585 532 594 519 q 569 546 578 540 q 557 551 564 549 q 563 538 563 538 q 607 344 640 456 q 574 308 601 317 q 288 311 444 260 q 271 343 268 318 q 367 566 289 476 q 575 681 446 656 q 661 690 588 682 m 393 451 q 403 427 393 438 q 429 417 414 417 q 431 417 431 417 q 455 429 444 418 q 465 454 465 440 q 453 479 464 469 q 425 489 442 489 q 393 451 392 486 m 801 365 q 778 358 801 365 q 739 351 756 351 q 707 358 722 351 q 729 379 728 378 q 757 400 738 386 q 785 410 769 410 q 808 408 801 411 q 833 399 815 406 q 861 393 846 393 q 864 392 865 392 q 801 365 846 378 m 74 155 q 48 217 74 155 q 21 417 21 279 q 74 678 21 554 q 218 893 128 803 q 433 1037 308 983 q 694 1090 557 1090 q 956 1037 832 1090 q 1171 893 1081 983 q 1315 678 1261 803 q 1368 417 1368 554 q 1315 155 1368 279 q 1171 -60 1261 31 q 956 -203 1081 -150 q 694 -257 832 -257 q 433 -203 557 -257 q 218 -60 308 -150 q 74 155 128 31 m 182 714 q 142 646 182 714 q 103 417 103 578 q 182 119 103 256 q 397 -96 261 -17 q 694 -175 533 -175 q 992 -96 856 -175 q 1207 119 1128 -17 q 1286 417 1286 256 q 1207 714 1286 578 q 992 929 1128 850 q 694 1008 856 1008 q 397 929 533 1008 q 182 714 261 850 z "},"9":{"ha":1389,"x_min":19,"x_max":1369,"o":"m 736 551 q 738 561 738 558 q 736 570 738 564 q 735 579 735 576 q 733 585 735 582 q 748 588 739 586 q 765 592 757 590 q 778 596 772 593 q 851 604 814 604 q 879 603 865 604 q 1042 489 990 590 q 1082 339 1078 418 q 1079 267 1083 289 q 1078 263 1079 265 q 1078 258 1078 260 l 1076 258 q 1076 262 1076 260 q 1076 265 1076 264 q 1072 329 1072 329 q 1047 392 1068 364 q 1040 400 1046 393 q 1038 372 1038 375 q 1031 285 1031 294 q 1031 266 1031 276 q 1033 243 1032 256 q 1035 224 1035 231 q 1039 183 1036 217 q 1043 129 1042 149 q 1050 78 1044 114 q 1042 63 1053 65 q 1003 58 1022 58 q 969 63 986 58 q 963 82 950 67 q 976 126 976 103 q 965 219 979 181 q 936 264 957 246 q 919 260 924 275 q 892 154 896 176 q 889 75 885 126 q 879 61 889 63 q 846 58 863 58 q 814 61 831 58 q 806 72 804 63 q 813 90 808 82 q 828 192 833 132 q 824 218 826 204 q 820 249 822 232 q 817 275 818 265 q 806 283 815 282 q 794 284 803 283 q 779 286 785 285 q 760 289 772 286 q 747 282 750 292 q 733 232 735 239 q 717 151 724 188 q 721 78 708 110 q 713 63 725 65 q 682 60 697 60 q 647 64 664 60 q 635 69 638 65 q 636 82 633 72 q 647 107 643 97 q 656 144 656 125 q 654 154 656 150 q 646 238 649 215 q 635 285 642 263 q 624 310 635 285 l 621 310 q 614 281 614 282 q 600 231 610 265 q 585 176 590 196 q 574 133 583 172 q 576 93 571 121 q 579 76 578 85 q 569 65 579 65 q 528 64 544 64 q 499 68 513 65 q 493 86 485 72 q 497 93 494 90 q 514 135 513 108 q 521 226 521 225 q 520 265 522 240 q 518 294 518 289 q 517 363 518 303 l 517 382 q 524 384 517 382 q 536 386 532 386 q 592 417 554 392 q 656 458 650 454 q 725 525 699 483 q 736 551 736 543 m 736 551 q 725 525 736 542 q 656 458 699 483 q 592 417 646 453 q 535 386 556 392 q 501 385 504 385 q 482 392 488 386 q 476 413 476 399 l 476 414 q 475 433 476 424 l 475 424 q 461 425 474 424 q 443 428 449 426 q 358 457 399 436 q 349 458 354 458 q 315 458 344 458 q 279 458 285 458 q 188 499 233 461 q 324 476 274 467 q 306 485 314 486 q 299 485 303 485 q 221 514 254 485 q 300 496 267 496 q 278 521 279 519 q 247 611 243 565 q 313 704 254 683 q 353 726 335 713 q 361 763 371 740 q 346 783 360 764 q 344 785 346 783 q 342 786 343 786 q 342 790 342 789 q 342 793 342 792 q 346 796 343 796 l 347 796 q 386 803 367 789 q 390 803 388 803 q 394 803 392 803 q 395 799 394 801 q 394 796 396 797 q 399 763 389 781 q 372 682 425 710 q 356 673 367 678 q 343 667 346 668 q 310 642 324 658 q 300 610 300 626 q 308 579 300 593 q 329 564 317 567 q 354 569 342 561 q 371 586 364 576 q 415 629 397 618 q 486 650 449 649 q 560 628 524 651 l 558 624 q 622 660 588 649 q 647 667 635 664 q 654 667 651 667 q 686 653 672 667 q 735 572 728 613 q 735 561 735 568 q 736 551 736 554 m 431 546 q 417 560 428 557 q 404 554 410 563 l 431 546 m 74 155 q 48 217 74 155 q 21 417 21 279 q 74 678 21 554 q 218 893 128 803 q 433 1037 308 983 q 694 1090 557 1090 q 956 1037 832 1090 q 1171 893 1081 983 q 1315 678 1261 803 q 1368 417 1368 554 q 1315 155 1368 279 q 1171 -60 1261 31 q 956 -203 1081 -150 q 694 -257 832 -257 q 433 -203 557 -257 q 218 -60 308 -150 q 74 155 128 31 m 182 714 q 142 646 182 714 q 103 417 103 578 q 182 119 103 256 q 397 -96 261 -17 q 694 -175 533 -175 q 992 -96 856 -175 q 1207 119 1128 -17 q 1286 417 1286 256 q 1207 714 1286 578 q 992 929 1128 850 q 694 1008 856 1008 q 397 929 533 1008 q 182 714 261 850 z "},",":{"ha":1389,"x_min":19,"x_max":1369,"o":"m 74 155 q 48 217 74 155 q 21 417 21 279 q 74 678 21 554 q 218 893 128 803 q 433 1037 308 983 q 694 1090 557 1090 q 956 1037 832 1090 q 1171 893 1081 983 q 1315 678 1261 803 q 1368 417 1368 554 q 1315 155 1368 279 q 1171 -60 1261 31 q 956 -203 1081 -150 q 694 -257 832 -257 q 433 -203 557 -257 q 218 -60 308 -150 q 74 155 128 31 m 182 714 q 142 646 182 714 q 103 417 103 578 q 182 119 103 256 q 397 -96 261 -17 q 694 -175 533 -175 q 992 -96 856 -175 q 1207 119 1128 -17 q 1286 417 1286 256 q 1207 714 1286 578 q 992 929 1128 850 q 694 1008 856 1008 q 397 929 533 1008 q 182 714 261 850 m 1022 674 l 904 431 l 553 600 l 669 843 l 1022 674 m 486 142 l 506 183 l 611 153 l 583 94 q 603 71 600 82 q 597 40 606 60 q 563 -32 579 4 q 514 -49 546 -65 q 418 -3 465 -26 q 400 46 385 14 q 435 119 418 82 q 455 142 444 138 q 486 142 465 147 m 526 614 q 513 644 522 625 q 497 679 503 664 q 488 710 492 694 q 493 729 486 717 q 531 808 496 736 q 554 829 538 825 q 632 851 571 835 q 636 851 635 851 q 640 851 638 851 l 526 614 m 1046 654 q 1079 574 1076 583 q 1081 564 1081 569 q 1078 547 1081 556 q 1038 465 1060 507 q 1018 446 1031 451 q 935 422 1007 443 l 1046 654 m 665 513 l 763 465 q 738 417 750 440 q 732 414 736 414 q 631 443 706 421 l 665 513 m 557 288 l 581 339 l 686 308 l 661 257 l 557 288 m 519 210 q 530 232 522 217 q 542 256 538 247 q 547 260 543 260 l 549 260 q 649 231 571 253 q 626 186 631 192 q 618 182 624 182 q 519 210 607 185 m 618 415 l 724 386 q 701 340 706 349 q 694 336 699 336 q 693 338 693 336 q 593 365 669 343 l 618 415 m 901 765 l 813 808 q 838 822 822 818 q 867 819 853 825 q 901 765 903 806 z "},".":{"ha":1389,"x_min":19,"x_max":1369,"o":"m 776 681 q 735 579 714 632 q 767 543 744 557 q 813 533 789 529 q 883 619 871 540 l 1108 656 l 964 476 q 857 463 893 510 q 840 417 840 443 q 857 369 840 390 q 963 357 896 324 l 1108 178 l 883 214 q 811 301 869 296 q 765 289 788 303 q 735 253 743 275 q 776 154 714 199 l 694 -62 l 613 151 q 656 206 647 182 q 651 257 665 231 q 619 292 642 279 q 575 300 597 304 q 507 214 515 292 l 281 178 l 425 356 q 535 374 501 325 q 549 417 549 393 q 532 464 549 443 q 425 478 496 508 l 281 656 l 504 621 q 532 554 515 574 q 579 532 549 535 q 625 545 603 531 q 656 582 647 560 q 613 681 674 633 l 694 896 l 776 681 m 647 465 q 637 455 647 465 q 626 417 626 444 q 647 369 626 390 q 694 349 668 349 q 742 369 721 349 q 763 415 763 389 q 742 463 763 442 q 695 485 722 485 q 647 465 668 485 m 74 155 q 48 217 74 155 q 21 417 21 279 q 74 678 21 554 q 218 893 128 803 q 433 1037 308 983 q 694 1090 557 1090 q 956 1037 832 1090 q 1171 893 1081 983 q 1315 678 1261 803 q 1368 417 1368 554 q 1315 155 1368 279 q 1171 -60 1261 31 q 956 -203 1081 -150 q 694 -257 832 -257 q 433 -203 557 -257 q 218 -60 308 -150 q 74 155 128 31 m 182 714 q 142 646 182 714 q 103 417 103 578 q 182 119 103 256 q 397 -96 261 -17 q 694 -175 533 -175 q 992 -96 856 -175 q 1207 119 1128 -17 q 1286 417 1286 256 q 1207 714 1286 578 q 992 929 1128 850 q 694 1008 856 1008 q 397 929 533 1008 q 182 714 261 850 z "},"/":{"ha":1389,"x_min":19,"x_max":1369,"o":"m 74 155 q 48 217 74 155 q 21 417 21 279 q 74 678 21 554 q 218 893 128 803 q 433 1037 308 983 q 694 1090 557 1090 q 956 1037 832 1090 q 1171 893 1081 983 q 1315 678 1261 803 q 1368 417 1368 554 q 1315 155 1368 279 q 1171 -60 1261 31 q 956 -203 1081 -150 q 694 -257 832 -257 q 433 -203 557 -257 q 218 -60 308 -150 q 74 155 128 31 m 182 714 q 142 646 182 714 q 103 417 103 578 q 182 119 103 256 q 397 -96 261 -17 q 694 -175 533 -175 q 992 -96 856 -175 q 1207 119 1128 -17 q 1286 417 1286 256 q 1207 714 1286 578 q 992 929 1128 850 q 694 1008 856 1008 q 397 929 533 1008 q 182 714 261 850 m 944 632 q 939 425 946 578 q 925 331 936 372 q 902 260 914 289 q 860 197 890 232 q 809 142 831 163 q 739 78 788 121 q 725 65 729 69 q 694 38 721 63 q 664 65 679 53 q 651 78 660 69 q 581 142 603 121 q 529 197 558 163 q 488 260 500 232 q 465 331 475 289 q 451 425 454 372 q 446 632 443 574 q 458 663 446 646 q 485 683 471 679 q 694 760 572 719 q 904 683 817 719 q 931 663 918 679 q 944 632 943 646 m 703 222 q 706 399 706 306 q 703 575 706 490 q 694 750 700 678 q 686 575 689 682 q 683 399 683 492 q 686 222 683 311 q 694 47 689 121 q 703 222 700 119 m 1003 767 q 1028 747 1015 763 q 1042 721 1042 732 q 1032 415 1042 549 q 1008 280 1026 340 q 965 174 990 219 q 896 85 940 129 q 808 6 851 40 q 694 -75 765 -28 q 581 6 624 -28 q 493 85 538 40 q 424 174 449 129 q 381 280 399 219 q 357 415 363 340 q 347 721 347 550 q 360 747 347 732 q 386 767 374 763 q 694 872 508 811 q 1003 767 881 811 m 981 461 q 986 682 986 658 q 976 703 986 692 q 957 719 967 715 q 694 810 826 767 q 432 719 563 767 q 413 703 422 715 q 403 682 403 692 q 408 461 403 658 q 423 326 410 383 q 468 219 436 269 q 538 131 500 169 q 643 33 575 92 q 672 8 654 24 q 694 -12 689 -7 q 717 8 700 -7 q 746 33 735 24 q 851 131 814 92 q 921 219 889 169 q 966 326 953 269 q 981 461 979 383 z "},":":{"ha":1389,"x_min":19,"x_max":1369,"o":"m 74 155 q 48 217 74 155 q 21 417 21 279 q 74 678 21 554 q 218 893 128 803 q 433 1037 308 983 q 694 1090 557 1090 q 956 1037 832 1090 q 1171 893 1081 983 q 1315 678 1261 803 q 1368 417 1368 554 q 1315 155 1368 279 q 1171 -60 1261 31 q 956 -203 1081 -150 q 694 -257 832 -257 q 433 -203 557 -257 q 218 -60 308 -150 q 74 155 128 31 m 182 714 q 142 646 182 714 q 103 417 103 578 q 182 119 103 256 q 397 -96 261 -17 q 694 -175 533 -175 q 992 -96 856 -175 q 1207 119 1128 -17 q 1286 417 1286 256 q 1207 714 1286 578 q 992 929 1128 850 q 694 1008 856 1008 q 397 929 533 1008 q 182 714 261 850 m 817 397 q 829 376 829 378 q 890 321 849 349 q 964 300 924 300 q 981 300 972 300 q 990 303 985 301 q 997 307 993 304 q 990 313 994 310 q 971 319 982 317 q 893 357 929 333 q 844 413 861 379 q 824 475 829 442 q 822 481 824 476 q 832 483 826 481 q 842 486 838 485 q 850 489 846 488 q 910 538 890 500 q 914 547 913 542 q 913 551 914 550 q 908 551 911 551 q 893 544 901 549 q 876 535 888 542 q 858 526 864 529 q 803 508 832 513 q 788 500 790 507 q 786 493 786 496 q 788 488 786 490 q 793 458 793 474 q 792 446 793 453 q 781 385 786 411 q 753 343 774 360 q 733 338 744 338 q 714 347 721 339 q 710 358 711 351 q 703 400 708 368 q 694 449 699 432 q 679 525 694 454 q 679 528 679 526 q 683 549 674 539 q 761 618 721 585 q 821 658 790 640 q 875 664 849 674 q 901 654 889 660 q 990 597 940 638 q 1078 531 1035 563 q 1117 513 1096 517 q 1135 511 1126 511 q 1145 511 1136 511 q 1157 511 1154 511 q 1167 501 1167 511 l 1167 219 q 1157 208 1167 208 l 1133 208 q 1132 208 1133 208 q 1131 208 1131 208 q 1086 200 1108 208 q 1000 175 1044 183 q 908 167 954 167 q 868 168 889 167 q 792 183 829 171 l 788 185 q 810 200 799 192 q 833 297 851 238 q 808 333 828 319 q 807 336 807 335 q 807 338 807 336 q 810 372 810 354 q 815 394 810 375 q 817 397 815 396 m 731 633 q 711 618 714 619 q 658 565 671 579 q 644 538 646 554 l 644 531 q 264 533 410 531 q 263 533 263 533 q 235 544 247 533 q 222 571 224 556 q 222 578 222 575 q 228 603 222 592 q 256 622 236 622 q 375 625 269 622 q 597 631 481 628 q 725 633 714 633 l 731 633 m 760 308 q 742 300 750 304 q 671 289 707 289 q 664 289 667 289 q 596 296 629 289 q 563 318 571 300 q 564 379 551 344 q 614 375 572 375 q 642 375 614 375 q 671 375 671 375 q 676 371 675 375 q 679 350 676 364 q 708 313 683 325 q 736 307 722 307 q 758 310 747 307 l 760 308 m 618 260 q 651 258 650 258 q 667 258 658 258 q 743 268 706 258 q 794 303 778 278 q 799 297 797 301 q 806 247 813 271 q 774 214 797 222 q 701 200 739 200 q 653 206 676 200 q 625 225 632 211 q 618 260 618 238 m 671 406 q 590 406 661 406 q 558 419 571 406 q 544 450 546 432 q 556 483 544 469 q 588 497 568 496 q 650 497 596 497 q 654 493 654 497 q 671 406 663 454 z "},";":{"ha":1389,"x_min":19,"x_max":1369,"o":"m 608 92 q 650 8 647 15 q 631 -42 663 -21 q 571 -40 600 -62 q 556 14 542 -17 q 596 90 558 21 l 608 92 m 814 90 q 854 14 851 21 q 836 -42 869 -19 q 779 -42 808 -61 q 761 13 746 -19 q 803 92 761 14 l 814 90 m 493 271 q 535 193 532 199 q 517 138 550 158 q 460 138 488 118 q 442 193 426 158 q 483 271 444 201 l 493 271 m 699 272 q 743 186 739 194 q 721 136 754 157 q 693 128 708 128 q 665 138 678 128 q 644 188 633 158 q 689 271 649 196 l 699 272 m 904 269 q 946 194 943 200 q 930 138 961 160 q 868 139 899 117 q 853 196 838 161 q 894 269 856 203 l 904 269 m 1090 594 q 1189 501 1160 571 q 1186 365 1218 432 q 1076 294 1151 294 q 325 296 700 294 q 285 306 303 296 q 191 428 210 344 q 225 576 172 511 q 353 633 263 625 q 410 796 329 747 q 561 776 483 839 q 740 881 622 896 q 858 765 832 869 q 1031 746 958 817 q 1044 607 1085 692 q 1090 594 1088 594 m 564 517 q 576 489 564 500 q 604 478 588 478 q 633 489 621 478 q 646 517 644 500 l 646 681 q 633 709 644 697 q 604 721 621 721 q 576 709 588 721 q 564 681 564 697 l 564 671 q 543 657 556 661 q 494 667 522 650 q 488 669 492 669 q 474 656 474 669 q 481 644 474 649 q 551 631 519 621 q 564 636 558 633 l 564 517 m 631 369 q 643 355 631 369 q 694 340 654 340 q 756 369 733 340 q 785 429 779 397 l 757 433 q 753 415 757 428 q 733 385 749 401 q 693 368 717 368 q 667 374 679 368 q 649 390 656 381 q 638 410 643 399 q 632 426 633 421 q 629 433 631 431 l 603 429 q 631 369 608 397 m 901 644 q 907 656 907 649 q 894 669 907 669 q 886 668 890 669 q 839 657 858 651 q 818 671 826 661 l 818 681 q 806 710 818 697 q 777 722 794 722 q 748 710 760 722 q 736 681 736 697 l 736 517 q 748 488 736 500 q 777 476 760 476 q 806 488 794 476 q 818 517 818 500 l 818 636 q 831 631 824 633 q 901 644 863 621 m 74 155 q 48 217 74 155 q 21 417 21 279 q 74 678 21 554 q 218 893 128 803 q 433 1037 308 983 q 694 1090 557 1090 q 956 1037 832 1090 q 1171 893 1081 983 q 1315 678 1261 803 q 1368 417 1368 554 q 1315 155 1368 279 q 1171 -60 1261 31 q 956 -203 1081 -150 q 694 -257 832 -257 q 433 -203 557 -257 q 218 -60 308 -150 q 74 155 128 31 m 182 714 q 142 646 182 714 q 103 417 103 578 q 182 119 103 256 q 397 -96 261 -17 q 694 -175 533 -175 q 992 -96 856 -175 q 1207 119 1128 -17 q 1286 417 1286 256 q 1207 714 1286 578 q 992 929 1128 850 q 694 1008 856 1008 q 397 929 533 1008 q 182 714 261 850 z "},"A":{"ha":1389,"x_min":19,"x_max":1369,"o":"m 992 554 q 1011 563 1000 563 q 1030 554 1022 563 q 1038 535 1038 546 q 1032 519 1038 526 l 879 367 l 842 404 l 992 554 m 892 569 q 908 575 899 575 q 923 569 917 575 q 929 553 929 563 q 924 538 929 544 l 815 429 l 783 461 l 892 569 m 789 575 q 803 581 794 581 q 817 575 811 581 q 824 561 824 569 q 817 546 824 553 l 758 488 l 729 515 l 789 575 m 1147 465 q 1142 458 1144 461 q 1142 456 1142 457 l 850 165 l 528 165 l 422 271 l 301 271 q 290 378 290 324 q 353 614 290 504 l 579 614 l 678 515 l 867 326 q 872 315 869 321 q 879 290 879 304 q 876 278 879 283 q 868 265 874 271 q 856 257 863 260 q 843 254 850 254 q 817 261 829 256 q 808 265 813 264 l 807 267 l 647 425 q 634 432 642 432 q 622 426 626 432 q 617 413 617 421 q 622 400 617 406 l 782 240 q 783 239 782 240 q 783 239 783 239 q 801 228 792 232 q 843 218 821 218 q 869 224 857 218 q 894 240 883 229 q 911 265 906 251 q 915 290 915 276 q 906 332 915 313 q 903 338 904 333 l 1056 490 q 1060 494 1058 493 l 1076 513 q 1089 518 1083 515 q 1115 525 1101 524 q 1129 522 1122 525 q 1142 514 1136 519 q 1151 500 1147 508 q 1153 489 1153 494 q 1147 465 1153 476 m 74 155 q 48 217 74 155 q 21 417 21 279 q 74 678 21 554 q 218 893 128 803 q 433 1037 308 983 q 694 1090 557 1090 q 956 1037 832 1090 q 1171 893 1081 983 q 1315 678 1261 803 q 1368 417 1368 554 q 1315 155 1368 279 q 1171 -60 1261 31 q 956 -203 1081 -150 q 694 -257 832 -257 q 433 -203 557 -257 q 218 -60 308 -150 q 74 155 128 31 m 182 714 q 142 646 182 714 q 103 417 103 578 q 182 119 103 256 q 397 -96 261 -17 q 694 -175 533 -175 q 992 -96 856 -175 q 1207 119 1128 -17 q 1286 417 1286 256 q 1207 714 1286 578 q 992 929 1128 850 q 694 1008 856 1008 q 397 929 533 1008 q 182 714 261 850 z "},"D":{"ha":1389,"x_min":19,"x_max":1369,"o":"m 757 310 q 813 290 785 306 q 860 249 842 274 q 694 165 778 165 q 529 249 611 165 q 576 290 547 274 q 632 310 604 306 q 621 235 600 276 q 694 194 642 194 q 768 235 747 194 q 757 310 789 276 m 1040 451 q 1050 443 1046 449 q 1044 436 1047 439 q 1036 424 1039 428 q 972 274 999 364 q 961 231 968 265 q 947 165 954 197 q 919 93 939 133 q 874 23 900 53 q 801 -27 847 -7 q 694 -47 754 -47 q 588 -27 635 -47 q 515 23 542 -7 q 469 93 489 53 q 442 165 450 133 q 428 231 435 197 q 417 274 421 265 q 353 424 390 364 q 344 436 350 428 q 339 443 342 439 q 349 451 343 449 q 386 463 365 463 q 400 461 393 463 q 465 424 431 456 q 471 416 464 422 q 494 394 478 410 q 547 763 489 733 q 606 746 571 775 l 606 481 q 608 452 604 471 q 618 433 613 433 q 628 451 624 433 q 632 478 633 469 l 632 790 q 644 846 639 835 q 694 882 663 882 q 744 846 726 882 q 757 790 750 835 l 757 478 q 760 451 756 469 q 771 433 765 433 q 781 452 776 433 q 783 481 785 471 l 783 746 q 842 763 818 775 q 894 393 900 733 q 918 415 911 408 q 924 422 925 422 q 989 461 958 456 q 1003 463 996 463 q 1040 451 1024 463 m 485 250 q 694 138 581 138 q 904 250 808 138 q 694 353 810 353 q 485 250 579 353 m 74 155 q 48 217 74 155 q 21 417 21 279 q 74 678 21 554 q 218 893 128 803 q 433 1037 308 983 q 694 1090 557 1090 q 956 1037 832 1090 q 1171 893 1081 983 q 1315 678 1261 803 q 1368 417 1368 554 q 1315 155 1368 279 q 1171 -60 1261 31 q 956 -203 1081 -150 q 694 -257 832 -257 q 433 -203 557 -257 q 218 -60 308 -150 q 74 155 128 31 m 182 714 q 142 646 182 714 q 103 417 103 578 q 182 119 103 256 q 397 -96 261 -17 q 694 -175 533 -175 q 992 -96 856 -175 q 1207 119 1128 -17 q 1286 417 1286 256 q 1207 714 1286 578 q 992 929 1128 850 q 694 1008 856 1008 q 397 929 533 1008 q 182 714 261 850 z "},"E":{"ha":1389,"x_min":19,"x_max":1369,"o":"m 74 155 q 48 217 74 155 q 21 417 21 279 q 74 678 21 554 q 218 893 128 803 q 433 1037 308 983 q 694 1090 557 1090 q 956 1037 832 1090 q 1171 893 1081 983 q 1315 678 1261 803 q 1368 417 1368 554 q 1315 155 1368 279 q 1171 -60 1261 31 q 956 -203 1081 -150 q 694 -257 832 -257 q 433 -203 557 -257 q 218 -60 308 -150 q 74 155 128 31 m 182 714 q 142 646 182 714 q 103 417 103 578 q 182 119 103 256 q 397 -96 261 -17 q 694 -175 533 -175 q 992 -96 856 -175 q 1207 119 1128 -17 q 1286 417 1286 256 q 1207 714 1286 578 q 992 929 1128 850 q 694 1008 856 1008 q 397 929 533 1008 q 182 714 261 850 m 454 303 q 454 304 454 304 q 454 306 454 304 q 449 401 471 340 q 390 442 438 432 q 336 435 364 447 q 297 400 308 424 q 285 350 285 376 q 290 314 285 331 q 292 310 292 313 q 293 306 293 307 l 146 306 l 143 310 l 158 340 l 135 376 q 168 404 167 403 q 328 465 240 453 q 478 506 382 472 q 753 553 621 557 q 917 538 813 551 q 1142 506 982 529 q 1233 488 1151 504 q 1243 485 1239 486 q 1224 411 1219 446 l 1256 408 q 1244 385 1256 400 q 1240 358 1233 369 q 1219 344 1221 346 q 1181 325 1201 335 q 1144 317 1164 319 q 1138 317 1142 317 q 1132 317 1135 317 q 1133 333 1132 322 q 1135 353 1135 344 q 1136 368 1136 361 q 1115 431 1138 407 q 1054 457 1093 454 q 1049 457 1051 457 q 1014 453 1031 457 q 956 397 969 442 q 960 303 939 346 l 454 303 m 425 468 q 511 454 467 454 q 542 456 526 454 q 668 471 546 456 q 736 481 686 474 q 749 533 743 513 q 425 468 574 539 m 754 482 l 833 494 q 813 522 824 517 q 765 531 801 528 l 754 482 m 803 363 q 850 389 838 367 q 885 442 851 390 q 888 445 886 443 q 890 449 889 447 q 893 454 892 451 l 864 451 q 840 410 858 443 q 803 363 821 376 m 1042 449 q 1102 424 1078 449 q 1128 363 1126 399 q 1103 303 1128 328 q 1042 278 1078 278 q 981 303 1007 278 q 956 363 956 328 q 981 424 956 399 q 1042 449 1007 449 m 1042 308 q 1080 324 1064 308 q 1097 363 1096 340 q 1081 402 1097 386 q 1042 418 1064 418 q 1003 402 1019 418 q 988 363 988 386 q 1003 324 988 340 q 1042 308 1019 308 m 376 438 q 431 413 408 436 q 453 358 453 390 q 453 356 453 357 q 428 301 451 324 q 374 279 406 279 q 317 302 340 279 q 294 358 294 325 q 317 415 294 392 q 374 438 340 438 q 376 438 375 438 m 372 307 q 408 322 393 307 q 424 357 424 336 q 424 358 424 358 q 409 394 424 379 q 373 408 394 408 q 337 394 351 408 q 322 358 322 379 q 337 323 322 338 q 372 307 351 308 z "},"F":{"ha":1389,"x_min":19,"x_max":1369,"o":"m 411 417 q 457 374 456 410 q 457 365 457 369 q 453 325 457 344 q 471 293 450 303 q 586 231 521 268 q 628 233 608 218 q 679 269 653 253 q 710 317 708 286 q 714 360 711 332 q 717 400 717 388 q 711 419 717 404 q 706 426 708 424 q 685 450 696 438 q 674 465 674 463 q 664 471 674 467 q 652 474 654 475 q 631 473 650 472 q 596 475 611 474 q 593 475 594 475 q 564 464 576 475 q 514 431 540 444 q 486 422 496 421 q 457 438 476 424 q 540 518 539 518 q 561 525 544 522 q 605 532 575 528 q 650 539 635 536 q 683 532 671 542 q 686 531 685 531 q 799 425 768 493 q 809 406 803 415 q 823 384 815 396 q 835 367 831 372 q 864 356 844 349 q 869 379 879 363 q 843 422 861 393 q 815 467 825 451 q 756 528 789 511 q 742 546 744 533 q 735 583 740 564 q 726 615 731 601 q 712 651 721 629 q 698 683 703 672 q 681 718 693 693 q 665 750 668 743 q 664 807 649 783 q 710 835 678 832 q 763 717 761 722 q 896 379 849 506 q 899 251 914 332 q 858 13 893 225 q 858 6 858 11 q 857 -1 858 1 q 851 -17 856 -14 q 828 -21 846 -21 q 596 -21 828 -21 q 572 -10 581 -21 q 428 218 500 104 q 403 253 419 231 q 382 285 388 275 q 374 306 371 300 q 411 417 379 325 m 867 565 q 853 604 854 601 q 841 634 849 613 q 826 671 833 656 q 811 700 819 686 q 792 772 794 731 q 792 846 789 814 q 853 883 793 874 l 874 567 l 867 565 m 918 507 l 918 506 q 914 544 914 542 q 906 679 907 650 q 906 681 906 681 q 914 717 906 700 q 957 738 925 739 l 922 507 l 918 507 m 74 155 q 48 217 74 155 q 21 417 21 279 q 74 678 21 554 q 218 893 128 803 q 433 1037 308 983 q 694 1090 557 1090 q 956 1037 832 1090 q 1171 893 1081 983 q 1315 678 1261 803 q 1368 417 1368 554 q 1315 155 1368 279 q 1171 -60 1261 31 q 956 -203 1081 -150 q 694 -257 832 -257 q 433 -203 557 -257 q 218 -60 308 -150 q 74 155 128 31 m 182 714 q 142 646 182 714 q 103 417 103 578 q 182 119 103 256 q 397 -96 261 -17 q 694 -175 533 -175 q 992 -96 856 -175 q 1207 119 1128 -17 q 1286 417 1286 256 q 1207 714 1286 578 q 992 929 1128 850 q 694 1008 856 1008 q 397 929 533 1008 q 182 714 261 850 z "},"G":{"ha":1389,"x_min":19,"x_max":1369,"o":"m 439 499 q 439 491 439 499 q 419 483 439 483 q 335 483 399 483 q 251 483 271 483 q 233 497 235 483 q 237 510 232 506 q 251 515 242 515 l 419 515 q 439 499 439 515 m 1139 515 q 1157 499 1157 515 q 1139 483 1156 483 q 1053 483 1117 483 q 968 483 990 483 q 953 489 958 483 q 950 503 949 494 q 965 515 953 515 q 967 515 967 515 q 1139 515 1053 515 m 490 682 q 369 801 429 742 q 365 821 360 813 q 378 832 367 822 q 392 824 385 829 q 513 704 451 764 q 514 679 525 690 q 490 682 503 669 m 682 760 q 678 771 678 763 l 678 944 q 694 961 678 961 q 710 944 710 961 l 710 771 q 699 756 710 757 q 697 756 699 756 q 682 760 689 756 m 899 681 q 875 679 886 669 q 876 703 864 690 q 999 825 958 786 q 1011 829 1004 829 q 1015 829 1014 829 q 1028 817 1017 828 q 1019 803 1025 808 q 899 681 960 742 m 819 771 q 803 778 808 771 q 803 793 799 785 q 828 854 804 799 q 836 875 836 875 q 851 885 840 885 q 862 880 857 885 q 867 868 867 875 q 865 863 867 865 q 831 781 846 814 q 819 771 831 781 m 317 642 q 310 661 304 647 q 329 671 317 675 q 415 633 376 651 q 422 624 415 633 q 416 608 422 614 q 403 606 410 603 q 317 642 360 624 m 1071 357 q 1079 346 1072 356 q 1073 331 1079 336 q 1060 328 1067 325 q 975 364 1024 342 q 965 378 965 368 q 967 383 965 381 q 981 393 971 393 q 988 392 983 393 q 1071 357 1043 369 m 547 819 q 531 864 543 832 q 538 886 524 879 q 558 875 553 892 q 592 796 567 856 q 592 792 592 794 q 593 789 593 789 l 596 786 q 582 774 582 774 q 576 772 579 772 q 563 782 567 772 q 547 819 561 786 m 419 388 q 410 367 425 374 q 331 335 390 358 q 319 332 331 335 q 307 344 308 343 q 307 350 307 347 q 315 363 307 360 q 397 396 340 374 q 419 388 414 403 m 978 631 q 987 634 982 632 q 999 639 992 636 q 1008 643 1006 642 q 1035 654 1018 647 q 1058 663 1051 661 q 1081 655 1075 669 q 1071 635 1086 640 q 992 603 1049 625 q 985 600 992 603 q 968 613 971 601 q 968 617 968 614 q 978 631 968 626 m 679 122 q 626 6 678 51 q 563 -57 611 -10 l 439 39 q 515 139 501 121 q 531 182 531 158 q 531 183 531 183 q 531 269 531 226 q 558 447 532 374 q 650 690 567 469 q 654 697 651 694 q 665 703 658 703 q 668 703 667 703 q 678 692 675 700 q 679 686 679 689 q 679 679 679 683 q 669 607 678 672 q 656 507 660 542 q 640 486 653 492 q 603 438 607 475 q 601 413 601 429 l 597 260 q 615 242 596 240 q 629 261 631 242 q 629 286 629 269 q 630 319 631 296 q 629 351 629 343 q 630 392 631 365 q 629 432 629 418 q 650 458 631 451 q 675 447 665 464 q 679 413 679 439 q 679 122 681 211 m 694 475 l 694 475 q 685 493 685 492 q 694 564 689 550 q 706 493 700 550 q 694 475 706 492 m 710 122 q 710 413 708 206 q 714 447 710 439 q 739 458 722 464 q 760 432 758 451 q 760 392 760 418 q 760 353 760 365 q 759 319 760 343 q 760 286 758 296 q 760 261 760 269 q 774 242 758 242 q 792 260 793 240 l 788 413 q 786 438 788 429 q 749 486 782 475 q 733 507 736 492 q 710 681 726 564 q 710 686 710 683 q 711 693 710 689 q 721 703 714 700 q 724 703 722 703 q 735 697 731 703 q 739 690 738 694 q 831 447 822 469 q 858 269 857 374 q 858 183 858 226 q 858 182 858 183 q 874 139 858 158 q 950 39 897 107 l 828 -57 q 763 6 778 -10 q 710 122 711 51 m 433 1037 q 495 1064 433 1037 q 694 1090 557 1090 q 956 1037 832 1090 q 1171 893 1081 983 q 1315 678 1261 803 q 1368 417 1368 554 q 1315 155 1368 279 q 1171 -60 1261 31 q 956 -203 1081 -150 q 694 -257 832 -257 q 433 -203 557 -257 q 218 -60 308 -150 q 74 155 128 31 q 21 417 21 279 q 74 678 21 554 q 218 893 128 803 q 433 1037 308 983 m 397 -96 q 465 -135 397 -96 q 694 -175 533 -175 q 992 -96 856 -175 q 1207 119 1128 -17 q 1286 417 1286 256 q 1207 714 1286 578 q 992 929 1128 850 q 694 1008 856 1008 q 397 929 533 1008 q 182 714 261 850 q 103 417 103 578 q 182 119 103 256 q 397 -96 261 -17 z "},"H":{"ha":1389,"x_min":19,"x_max":1369,"o":"m 1021 419 q 979 419 1006 419 q 933 419 953 418 q 914 419 914 419 q 894 400 894 418 q 914 382 896 382 q 952 382 926 382 q 990 382 978 382 q 1022 370 1010 382 q 1035 340 1035 358 q 1023 309 1035 321 q 992 297 1011 297 l 881 297 q 867 292 872 297 q 863 279 863 286 q 872 263 863 267 q 885 260 878 260 q 885 260 885 260 q 958 260 918 260 q 990 249 978 260 q 1003 219 1003 238 q 990 188 1003 200 q 957 175 978 175 l 851 175 q 829 158 829 175 q 851 139 829 139 l 928 139 q 958 127 946 139 q 969 97 969 115 q 969 96 969 96 q 958 66 969 78 q 929 54 946 54 q 928 54 929 54 l 729 54 q 567 82 668 54 q 471 106 518 94 q 385 108 419 108 q 343 124 358 108 q 328 167 328 140 l 328 474 q 343 515 328 499 q 383 531 358 531 l 471 529 q 550 568 506 546 q 708 739 657 619 q 720 768 713 749 q 729 793 728 788 q 744 828 739 818 q 799 857 761 865 q 828 839 817 853 q 839 807 839 825 q 840 775 840 796 q 840 744 840 754 q 775 549 842 632 q 771 542 774 546 q 767 536 768 538 q 761 522 761 531 q 763 514 761 518 q 782 504 768 504 l 1018 504 q 1049 492 1036 504 q 1061 464 1061 481 q 1051 432 1063 444 q 1021 419 1039 419 m 74 155 q 48 217 74 155 q 21 417 21 279 q 74 678 21 554 q 218 893 128 803 q 433 1037 308 983 q 694 1090 557 1090 q 956 1037 832 1090 q 1171 893 1081 983 q 1315 678 1261 803 q 1368 417 1368 554 q 1315 155 1368 279 q 1171 -60 1261 31 q 956 -203 1081 -150 q 694 -257 832 -257 q 433 -203 557 -257 q 218 -60 308 -150 q 74 155 128 31 m 182 714 q 142 646 182 714 q 103 417 103 578 q 182 119 103 256 q 397 -96 261 -17 q 694 -175 533 -175 q 992 -96 856 -175 q 1207 119 1128 -17 q 1286 417 1286 256 q 1207 714 1286 578 q 992 929 1128 850 q 694 1008 856 1008 q 397 929 533 1008 q 182 714 261 850 z "},"I":{"ha":1389,"x_min":19,"x_max":1369,"o":"m 189 354 q 279 474 214 435 q 425 496 344 513 q 443 496 438 493 q 450 511 449 499 q 479 640 453 524 l 419 640 q 374 608 378 639 q 408 560 368 572 q 419 557 417 558 q 426 551 422 556 q 426 540 431 546 q 413 531 422 532 q 363 553 383 533 q 344 600 343 574 q 363 648 344 631 q 413 667 381 665 q 451 668 421 668 q 490 668 482 668 q 503 665 499 668 q 507 651 507 661 q 507 647 507 650 q 506 629 507 639 q 505 597 501 601 q 535 592 508 592 q 789 592 753 592 q 818 614 814 592 q 835 668 824 642 q 835 684 839 681 q 819 686 832 688 q 807 685 814 685 q 790 686 799 685 q 772 697 789 686 q 776 703 774 699 q 781 709 779 707 q 786 711 783 711 q 907 722 861 719 q 926 696 929 724 q 903 675 924 674 q 890 677 899 675 q 877 679 881 679 q 869 678 874 679 q 860 657 864 672 q 854 638 856 642 q 869 531 825 578 q 887 506 875 526 q 908 482 899 486 q 924 482 918 481 q 944 489 931 483 q 964 496 957 494 q 1011 501 986 501 q 1125 465 1074 501 q 1197 369 1176 428 q 1207 343 1197 368 q 1207 267 1214 311 l 1197 239 q 1131 147 1178 183 q 1029 108 1085 111 q 913 132 965 104 q 833 215 861 160 q 828 230 832 219 q 820 247 824 240 q 811 254 817 253 q 797 257 801 257 q 779 253 792 257 q 763 250 767 250 q 747 246 750 249 q 738 231 736 236 q 740 217 739 226 q 743 201 740 208 q 756 192 746 194 q 758 187 757 192 q 760 179 760 182 q 749 172 757 174 q 733 171 740 171 q 725 171 729 171 q 714 193 704 171 q 718 213 721 207 q 683 281 693 269 q 492 496 650 319 q 479 506 486 501 q 476 483 472 490 q 492 467 479 475 q 575 276 593 393 q 428 113 556 144 q 226 182 310 85 q 193 255 203 211 q 185 323 183 299 q 189 354 188 347 m 379 472 q 378 472 378 472 q 285 443 326 472 q 224 368 243 414 q 211 304 211 338 q 260 185 211 233 q 347 138 297 149 q 444 147 397 128 q 547 276 533 185 q 485 438 563 375 q 480 442 483 438 q 474 447 476 446 q 469 447 472 449 q 461 438 465 444 q 440 390 456 424 q 415 340 424 357 q 410 311 410 326 q 410 310 410 311 q 389 278 410 283 q 356 292 365 269 q 367 329 344 315 q 385 346 381 339 q 426 419 419 401 q 436 461 440 454 q 394 472 432 468 q 388 472 392 472 q 379 472 383 472 m 1010 475 q 949 461 974 476 q 944 460 947 461 q 932 449 933 453 q 939 432 931 444 q 985 365 940 429 q 990 359 986 364 q 994 352 993 354 q 999 347 996 350 q 1003 341 1001 343 q 1009 336 1006 339 q 1017 331 1013 333 q 1025 328 1021 329 q 1036 293 1047 321 q 1001 278 1029 272 q 964 281 983 281 q 951 281 958 281 q 908 274 936 279 q 874 268 879 268 q 850 259 853 264 q 856 235 847 254 q 918 162 876 189 q 1011 135 960 135 q 1058 140 1035 135 q 1151 210 1115 157 q 1179 319 1188 264 q 1123 432 1169 389 q 1010 475 1076 475 m 718 314 l 726 314 l 803 564 q 514 564 575 564 q 490 556 513 564 q 499 531 499 531 q 682 325 550 472 q 697 310 683 324 l 704 315 q 682 344 685 340 q 679 356 678 351 q 690 364 683 363 q 715 364 708 367 q 725 346 726 360 q 718 314 725 344 m 826 546 l 758 326 q 752 281 747 286 q 797 283 757 275 q 800 283 800 283 q 805 288 801 285 q 810 294 808 292 q 813 299 813 297 q 876 450 813 388 q 880 459 879 453 q 879 468 881 465 q 826 546 872 481 m 986 315 l 903 435 q 842 310 847 388 q 844 296 840 300 q 858 293 849 292 l 986 315 m 74 155 q 48 217 74 155 q 21 417 21 279 q 74 678 21 554 q 218 893 128 803 q 433 1037 308 983 q 694 1090 557 1090 q 956 1037 832 1090 q 1171 893 1081 983 q 1315 678 1261 803 q 1368 417 1368 554 q 1315 155 1368 279 q 1171 -60 1261 31 q 956 -203 1081 -150 q 694 -257 832 -257 q 433 -203 557 -257 q 218 -60 308 -150 q 74 155 128 31 m 182 714 q 142 646 182 714 q 103 417 103 578 q 182 119 103 256 q 397 -96 261 -17 q 694 -175 533 -175 q 992 -96 856 -175 q 1207 119 1128 -17 q 1286 417 1286 256 q 1207 714 1286 578 q 992 929 1128 850 q 694 1008 856 1008 q 397 929 533 1008 q 182 714 261 850 z "},"J":{"ha":1389,"x_min":19,"x_max":1369,"o":"m 675 296 q 654 268 654 269 q 654 244 647 253 q 661 243 657 243 q 678 250 671 243 q 769 328 717 300 q 904 386 822 357 q 947 417 924 393 q 990 461 961 431 q 1035 508 1018 492 q 1154 539 1082 553 q 1165 501 1192 532 q 1160 496 1163 499 q 1092 433 1124 468 q 1021 344 1061 399 q 965 271 981 289 q 903 199 946 246 q 840 129 860 153 q 813 63 825 110 q 790 6 800 14 q 731 -3 779 -3 q 511 -3 538 -3 q 483 3 492 -3 q 476 29 475 10 q 474 73 478 49 q 467 111 471 97 q 455 156 464 125 q 443 194 446 186 q 406 358 443 196 q 397 388 403 374 l 294 642 q 283 672 289 656 q 300 714 275 701 q 342 701 322 726 q 361 671 353 688 q 431 547 431 547 q 451 522 436 538 q 471 500 467 506 q 481 476 479 490 q 482 383 481 475 q 525 310 482 331 q 610 319 571 289 q 629 319 618 325 q 675 296 635 317 m 604 483 q 604 385 604 388 q 564 333 604 335 q 528 346 542 333 q 513 383 514 358 q 513 582 511 471 q 526 617 513 604 q 563 629 540 629 q 604 582 604 628 q 604 551 604 567 q 604 515 604 535 q 604 483 604 494 m 715 504 q 715 381 715 390 q 678 333 715 335 q 649 347 660 333 q 638 382 638 360 q 638 629 636 506 q 675 675 638 675 q 715 628 715 676 q 715 589 715 610 q 715 543 715 568 q 715 504 715 518 m 749 510 l 750 510 q 749 547 750 524 q 749 591 749 571 q 750 628 749 611 q 788 675 750 675 q 817 663 806 676 q 829 628 828 649 q 828 408 829 518 q 814 386 828 397 q 788 373 814 386 q 755 364 761 360 q 749 399 749 368 l 749 510 m 74 155 q 48 217 74 155 q 21 417 21 279 q 74 678 21 554 q 218 893 128 803 q 433 1037 308 983 q 694 1090 557 1090 q 956 1037 832 1090 q 1171 893 1081 983 q 1315 678 1261 803 q 1368 417 1368 554 q 1315 155 1368 279 q 1171 -60 1261 31 q 956 -203 1081 -150 q 694 -257 832 -257 q 433 -203 557 -257 q 218 -60 308 -150 q 74 155 128 31 m 182 714 q 142 646 182 714 q 103 417 103 578 q 182 119 103 256 q 397 -96 261 -17 q 694 -175 533 -175 q 992 -96 856 -175 q 1207 119 1128 -17 q 1286 417 1286 256 q 1207 714 1286 578 q 992 929 1128 850 q 694 1008 856 1008 q 397 929 533 1008 q 182 714 261 850 z "},"K":{"ha":1389,"x_min":19,"x_max":1369,"o":"m 582 285 q 642 258 618 257 q 699 290 667 260 q 703 285 703 286 q 783 264 740 246 q 833 338 832 285 q 833 426 833 360 q 833 515 832 493 q 851 608 835 540 q 886 733 865 663 q 904 772 892 754 q 950 786 919 796 q 972 749 975 778 q 965 681 971 725 q 957 615 960 636 q 942 496 954 578 q 925 351 931 414 q 921 229 919 288 q 882 107 924 160 q 871 72 874 97 q 869 47 869 68 q 869 21 869 25 q 835 -17 868 -17 q 528 -17 681 -17 q 492 21 493 -17 q 492 51 492 29 q 492 81 492 72 q 481 106 490 94 q 428 286 408 172 q 450 321 432 307 q 551 417 510 358 q 556 422 553 418 q 558 426 558 425 q 606 451 585 464 q 626 420 621 442 q 622 383 631 399 q 586 338 606 358 q 519 276 561 313 q 514 248 503 261 q 543 250 525 235 q 582 285 546 253 m 472 385 q 443 760 449 688 q 442 792 440 774 q 453 824 443 811 q 488 842 469 843 q 514 818 506 840 q 535 724 524 790 q 558 561 550 632 q 560 486 560 554 q 560 485 560 485 q 558 478 560 481 q 478 382 538 453 l 472 385 m 715 440 q 715 479 715 451 q 715 522 715 507 q 715 525 715 524 q 717 544 715 535 q 750 583 724 579 q 789 558 776 586 q 801 514 800 536 q 801 360 801 494 l 801 353 q 801 344 801 344 q 788 307 800 322 q 760 292 775 292 q 730 308 743 292 q 715 346 717 324 q 715 440 715 353 m 611 307 q 654 369 650 364 q 653 446 674 404 q 590 492 633 488 q 593 513 592 499 q 597 539 594 528 q 603 560 599 550 q 628 581 610 579 q 657 568 646 583 q 679 518 678 543 q 679 351 681 475 l 679 350 q 674 319 679 335 q 647 294 664 297 q 611 307 629 290 m 74 155 q 48 217 74 155 q 21 417 21 279 q 74 678 21 554 q 218 893 128 803 q 433 1037 308 983 q 694 1090 557 1090 q 956 1037 832 1090 q 1171 893 1081 983 q 1315 678 1261 803 q 1368 417 1368 554 q 1315 155 1368 279 q 1171 -60 1261 31 q 956 -203 1081 -150 q 694 -257 832 -257 q 433 -203 557 -257 q 218 -60 308 -150 q 74 155 128 31 m 182 714 q 142 646 182 714 q 103 417 103 578 q 182 119 103 256 q 397 -96 261 -17 q 694 -175 533 -175 q 992 -96 856 -175 q 1207 119 1128 -17 q 1286 417 1286 256 q 1207 714 1286 578 q 992 929 1128 850 q 694 1008 856 1008 q 397 929 533 1008 q 182 714 261 850 z "},"L":{"ha":1389,"x_min":19,"x_max":1369,"o":"m 386 583 q 394 568 389 578 q 403 551 400 558 q 411 538 407 543 q 511 490 453 474 q 544 511 531 496 q 564 515 554 519 q 636 515 594 501 q 647 522 646 518 q 673 540 656 540 q 707 533 690 540 q 601 364 617 460 l 606 361 q 622 388 622 386 q 731 517 674 471 q 767 536 747 531 q 806 542 788 542 q 846 542 825 542 q 861 532 851 542 q 951 503 892 499 q 961 508 953 503 q 953 514 957 511 q 928 526 946 518 q 900 538 910 533 q 900 554 882 544 q 953 614 947 576 q 953 643 953 615 q 936 624 936 624 q 847 571 907 571 q 835 571 840 571 q 750 578 792 571 q 704 639 703 588 q 718 657 704 656 q 876 718 785 669 q 906 728 890 725 q 975 701 951 739 q 1054 511 1036 604 q 1056 492 1056 501 q 1035 429 1056 456 q 958 344 1000 383 q 856 256 924 311 q 817 176 817 224 q 822 14 817 158 q 822 11 822 14 q 822 8 822 8 q 822 -15 825 -11 q 800 -18 819 -18 q 468 -18 567 -18 q 453 -14 457 -18 q 449 1 449 -10 q 451 133 453 82 q 438 181 451 164 q 388 324 400 228 q 383 574 374 435 q 386 583 385 579 m 640 599 q 640 579 640 581 q 635 549 640 558 q 617 538 629 540 q 556 563 571 528 q 533 626 543 594 q 501 740 510 706 q 524 804 490 785 q 600 806 564 829 q 617 778 614 794 q 640 599 621 749 m 711 565 q 681 568 690 563 q 669 592 671 574 q 644 779 651 719 q 658 829 642 810 q 706 850 675 849 q 710 850 708 850 q 735 847 722 850 q 776 799 776 839 q 771 708 776 769 q 760 697 769 700 q 744 692 753 694 q 726 688 736 690 q 710 683 715 685 q 676 639 676 674 q 711 565 676 589 m 390 667 q 413 715 390 697 q 460 725 435 733 q 481 704 474 719 q 524 567 488 683 q 525 562 525 564 q 526 552 525 560 q 528 540 528 544 q 526 531 528 536 q 519 522 524 526 q 471 518 497 507 q 449 533 458 524 q 390 667 400 592 m 935 783 q 933 767 935 775 q 924 757 929 757 q 901 755 913 757 q 878 748 890 753 q 859 740 865 743 q 837 729 853 738 q 818 719 821 721 q 801 714 810 715 q 800 728 800 721 q 800 731 800 729 q 806 790 803 764 q 833 840 810 825 q 886 849 857 854 q 924 830 913 844 q 935 783 935 815 m 74 155 q 48 217 74 155 q 21 417 21 279 q 74 678 21 554 q 218 893 128 803 q 433 1037 308 983 q 694 1090 557 1090 q 956 1037 832 1090 q 1171 893 1081 983 q 1315 678 1261 803 q 1368 417 1368 554 q 1315 155 1368 279 q 1171 -60 1261 31 q 956 -203 1081 -150 q 694 -257 832 -257 q 433 -203 557 -257 q 218 -60 308 -150 q 74 155 128 31 m 182 714 q 142 646 182 714 q 103 417 103 578 q 182 119 103 256 q 397 -96 261 -17 q 694 -175 533 -175 q 992 -96 856 -175 q 1207 119 1128 -17 q 1286 417 1286 256 q 1207 714 1286 578 q 992 929 1128 850 q 694 1008 856 1008 q 397 929 533 1008 q 182 714 261 850 z "},"O":{"ha":1389,"x_min":19,"x_max":1369,"o":"m 435 353 q 524 459 458 379 q 635 590 589 539 q 732 686 682 642 q 721 698 729 689 q 708 711 713 707 q 708 736 696 724 q 781 808 744 772 q 804 807 793 821 q 842 769 814 799 q 931 797 924 796 q 969 801 950 801 q 1013 796 992 801 q 1071 726 1064 782 q 1050 597 1079 665 q 1045 585 1049 593 q 1040 574 1042 576 l 1079 533 q 1081 510 1092 521 q 1001 431 1067 494 q 993 429 1001 431 l 958 460 q 861 362 914 410 q 733 253 808 314 q 626 164 658 192 q 664 126 661 129 q 664 94 679 111 q 599 29 632 61 q 583 19 589 19 q 568 31 578 19 q 524 76 565 32 q 501 61 503 61 q 458 33 481 46 q 404 39 426 18 q 313 131 354 86 q 300 163 300 144 q 306 186 300 175 q 335 233 313 199 q 349 249 342 242 q 328 269 344 253 q 304 293 313 285 q 292 311 293 306 q 303 328 292 317 q 368 392 340 364 q 383 401 376 401 q 399 392 389 401 q 435 353 400 390 m 1047 693 q 1004 769 1047 757 q 968 775 988 775 q 960 775 964 775 q 839 731 903 771 q 603 508 731 660 q 374 235 488 372 q 336 185 356 214 q 338 143 319 163 q 415 65 369 108 q 454 63 432 49 q 481 81 468 69 q 660 231 606 183 q 858 400 814 360 q 1008 578 951 482 q 1047 693 1043 635 m 544 97 l 582 58 l 638 110 l 601 144 l 544 97 m 382 367 l 331 314 l 368 271 l 415 328 l 382 367 m 754 706 l 819 753 l 794 778 l 738 724 l 754 706 m 978 483 l 992 469 l 1047 518 l 1024 547 l 978 483 m 903 663 q 897 648 903 654 q 881 642 890 642 q 865 649 871 642 q 858 664 858 656 q 865 678 860 672 q 879 685 871 685 q 882 683 881 685 q 897 677 890 683 q 903 663 903 671 m 801 606 q 808 620 801 614 q 822 626 814 626 l 824 626 q 838 620 832 626 q 843 604 843 614 q 837 589 843 596 q 821 582 831 582 q 807 590 813 583 q 801 604 801 596 q 801 606 801 606 m 493 256 q 478 262 485 256 q 472 277 472 268 q 478 292 472 286 q 493 299 485 299 q 496 299 494 299 q 510 292 504 299 q 517 277 517 286 q 510 262 517 268 q 496 256 504 256 q 493 256 494 256 m 957 608 q 950 593 957 599 q 935 586 943 588 q 920 594 926 588 q 914 610 914 600 q 921 624 914 618 q 936 631 928 631 q 951 624 944 631 q 957 608 957 617 m 899 550 q 892 534 899 540 q 876 528 885 528 q 861 536 868 529 q 854 551 854 543 q 862 566 856 560 q 878 572 868 572 q 892 565 886 571 q 899 550 899 558 m 513 164 q 490 142 511 143 q 475 149 482 142 q 468 164 468 156 q 476 178 469 172 q 490 186 482 185 q 506 178 500 185 q 513 164 513 172 m 569 222 q 563 208 569 214 q 549 201 557 201 q 534 208 540 201 q 528 222 528 214 q 534 238 528 232 q 549 244 540 244 q 565 238 558 244 q 571 224 571 232 q 569 222 571 222 m 415 218 q 415 219 415 218 q 421 234 415 228 q 436 240 426 240 q 451 234 444 240 q 457 218 457 228 q 451 203 457 210 q 438 196 446 197 q 436 196 436 196 q 422 202 428 196 q 415 218 415 208 m 74 155 q 48 217 74 155 q 21 417 21 279 q 74 678 21 554 q 218 893 128 803 q 433 1037 308 983 q 694 1090 557 1090 q 956 1037 832 1090 q 1171 893 1081 983 q 1315 678 1261 803 q 1368 417 1368 554 q 1315 155 1368 279 q 1171 -60 1261 31 q 956 -203 1081 -150 q 694 -257 832 -257 q 433 -203 557 -257 q 218 -60 308 -150 q 74 155 128 31 m 182 714 q 142 646 182 714 q 103 417 103 578 q 182 119 103 256 q 397 -96 261 -17 q 694 -175 533 -175 q 992 -96 856 -175 q 1207 119 1128 -17 q 1286 417 1286 256 q 1207 714 1286 578 q 992 929 1128 850 q 694 1008 856 1008 q 397 929 533 1008 q 182 714 261 850 z "},"P":{"ha":1389,"x_min":19,"x_max":1369,"o":"m 1133 119 q 1106 76 1136 81 q 1087 74 1103 76 q 1063 72 1071 72 q 438 65 558 65 q 408 68 422 65 q 381 78 394 71 q 359 90 368 85 q 335 107 350 94 q 316 124 321 119 q 295 144 311 128 q 276 164 279 161 l 279 172 l 1133 119 m 1035 211 l 1033 211 l 1033 211 l 1035 211 m 1133 158 l 1132 143 l 250 197 l 211 274 q 256 258 226 268 q 306 242 285 249 q 347 233 326 236 q 651 203 399 226 q 794 190 676 200 l 799 228 l 365 268 l 790 913 l 792 914 l 790 913 q 781 606 769 757 q 809 350 792 454 q 829 243 826 246 l 835 242 q 828 376 835 307 q 809 540 821 444 q 792 679 797 636 q 910 458 796 676 q 1026 233 1024 239 q 1033 211 1031 222 l 869 219 l 868 183 l 1133 158 m 842 186 l 844 221 l 822 224 l 818 189 l 842 186 m 74 155 q 48 217 74 155 q 21 417 21 279 q 74 678 21 554 q 218 893 128 803 q 433 1037 308 983 q 694 1090 557 1090 q 956 1037 832 1090 q 1171 893 1081 983 q 1315 678 1261 803 q 1368 417 1368 554 q 1315 155 1368 279 q 1171 -60 1261 31 q 956 -203 1081 -150 q 694 -257 832 -257 q 433 -203 557 -257 q 218 -60 308 -150 q 74 155 128 31 m 182 714 q 142 646 182 714 q 103 417 103 578 q 182 119 103 256 q 397 -96 261 -17 q 694 -175 533 -175 q 992 -96 856 -175 q 1207 119 1128 -17 q 1286 417 1286 256 q 1207 714 1286 578 q 992 929 1128 850 q 694 1008 856 1008 q 397 929 533 1008 q 182 714 261 850 z "},"Q":{"ha":1389,"x_min":19,"x_max":1369,"o":"m 369 92 l 375 113 l 254 178 l 254 186 q 282 199 281 199 q 331 196 288 200 l 422 190 q 629 443 485 314 q 531 501 583 478 q 396 549 479 524 q 289 585 313 575 q 322 621 319 617 q 342 626 331 626 q 443 617 382 624 q 449 617 446 617 q 468 626 460 617 q 494 651 469 628 l 517 629 q 511 621 514 625 q 506 613 508 617 q 564 607 560 607 q 569 606 567 606 q 588 614 581 606 q 613 639 589 615 l 635 615 q 631 608 632 611 q 626 601 629 604 q 751 589 735 590 q 758 588 754 588 q 788 601 775 588 q 827 642 800 615 q 867 682 854 668 q 993 765 913 729 q 1038 782 996 767 l 1060 782 l 1060 760 q 1043 715 1044 717 q 960 589 1007 633 q 919 549 946 576 q 879 510 893 522 q 865 479 865 497 q 867 474 865 476 q 879 349 868 456 q 885 352 882 350 q 893 357 889 354 l 917 335 q 892 310 893 311 q 883 292 883 303 q 885 286 883 289 q 890 228 885 279 q 899 233 894 231 q 907 239 903 236 l 929 217 q 904 190 908 194 q 894 171 894 182 q 894 165 894 168 q 904 64 901 103 q 899 44 904 53 q 863 11 894 42 q 828 118 854 35 q 778 253 801 201 q 721 351 756 306 q 468 144 592 207 l 475 53 q 476 4 478 10 q 474 -4 476 0 q 469 -15 472 -8 q 464 -24 465 -21 l 456 -24 l 390 97 l 369 92 m 74 155 q 48 217 74 155 q 21 417 21 279 q 74 678 21 554 q 218 893 128 803 q 433 1037 308 983 q 694 1090 557 1090 q 956 1037 832 1090 q 1171 893 1081 983 q 1315 678 1261 803 q 1368 417 1368 554 q 1315 155 1368 279 q 1171 -60 1261 31 q 956 -203 1081 -150 q 694 -257 832 -257 q 433 -203 557 -257 q 218 -60 308 -150 q 74 155 128 31 m 182 714 q 142 646 182 714 q 103 417 103 578 q 182 119 103 256 q 397 -96 261 -17 q 694 -175 533 -175 q 992 -96 856 -175 q 1207 119 1128 -17 q 1286 417 1286 256 q 1207 714 1286 578 q 992 929 1128 850 q 694 1008 856 1008 q 397 929 533 1008 q 182 714 261 850 z "},"R":{"ha":1389,"x_min":19,"x_max":1369,"o":"m 782 497 q 825 475 797 475 q 831 475 828 475 q 857 476 843 475 q 1088 500 1046 496 q 1131 528 1117 503 q 1144 552 1135 536 q 1157 574 1154 568 q 1181 588 1165 589 q 1224 588 1183 588 q 1215 560 1215 561 q 1185 488 1192 503 q 1183 438 1171 461 q 1201 393 1186 432 q 1174 390 1174 390 q 1117 417 1138 386 q 1108 428 1117 418 q 1097 433 1104 433 q 1092 432 1094 433 q 839 350 907 381 q 792 318 813 339 q 658 250 744 268 q 626 240 632 244 q 615 208 621 235 q 614 200 615 204 q 622 190 611 190 l 753 190 q 765 181 764 190 q 754 168 767 169 q 739 168 754 168 q 393 168 436 168 q 359 176 375 168 q 337 192 343 185 q 317 217 331 199 q 317 220 315 217 q 319 224 318 224 q 346 218 338 231 q 419 189 367 190 q 453 198 442 189 q 472 226 464 207 q 474 229 472 226 q 481 247 482 246 q 461 254 481 249 q 379 285 399 275 q 339 315 356 294 q 317 378 314 343 q 349 439 319 413 q 432 485 385 471 q 517 504 465 493 q 558 526 544 510 q 578 544 568 536 q 589 565 589 553 q 585 585 589 582 q 565 589 582 589 l 215 589 q 211 589 213 589 q 188 590 200 589 q 176 594 182 592 q 178 601 176 596 q 181 608 179 606 q 189 610 183 610 q 208 611 194 611 l 557 611 q 565 610 558 611 q 574 610 572 610 q 581 613 576 611 q 588 617 585 614 q 592 628 590 621 q 600 632 592 632 q 608 628 608 632 q 611 619 610 622 q 617 614 613 615 q 622 612 621 613 q 630 611 624 611 q 636 611 636 611 l 1003 611 q 1010 613 1006 613 q 1019 611 1014 613 q 1026 608 1022 611 q 1029 606 1029 606 q 1022 592 1026 593 q 1000 589 1011 589 q 996 589 997 589 l 635 589 q 615 586 618 589 q 613 567 613 583 q 616 547 613 550 q 636 544 619 544 q 775 544 760 544 q 806 526 799 544 q 811 518 808 522 q 817 505 818 507 q 801 500 815 503 q 782 497 796 500 m 525 478 q 439 463 485 481 q 371 421 393 444 q 351 396 360 410 q 347 358 342 382 q 368 343 351 342 q 397 343 383 343 q 426 343 413 343 q 464 365 451 342 q 492 416 474 383 q 514 456 510 449 q 525 478 515 458 m 481 194 q 486 192 483 193 q 552 192 519 192 q 590 197 585 192 q 601 235 596 203 q 593 246 603 246 q 574 246 586 246 q 550 246 561 246 q 531 246 539 246 q 490 221 501 247 q 481 194 482 200 m 517 368 q 528 368 521 368 q 542 368 536 368 q 553 368 547 368 q 556 368 554 368 q 571 379 568 368 q 588 416 576 392 q 603 446 600 440 q 614 475 615 472 q 579 478 613 478 q 578 478 578 478 q 561 467 564 478 q 517 368 556 454 m 74 155 q 48 217 74 155 q 21 417 21 279 q 74 678 21 554 q 218 893 128 803 q 433 1037 308 983 q 694 1090 557 1090 q 956 1037 832 1090 q 1171 893 1081 983 q 1315 678 1261 803 q 1368 417 1368 554 q 1315 155 1368 279 q 1171 -60 1261 31 q 956 -203 1081 -150 q 694 -257 832 -257 q 433 -203 557 -257 q 218 -60 308 -150 q 74 155 128 31 m 182 714 q 142 646 182 714 q 103 417 103 578 q 182 119 103 256 q 397 -96 261 -17 q 694 -175 533 -175 q 992 -96 856 -175 q 1207 119 1128 -17 q 1286 417 1286 256 q 1207 714 1286 578 q 992 929 1128 850 q 694 1008 856 1008 q 397 929 533 1008 q 182 714 261 850 z "},"S":{"ha":1389,"x_min":19,"x_max":1369,"o":"m 497 361 l 497 360 l 490 368 q 496 364 492 368 l 497 361 m 954 146 q 915 45 953 83 q 813 7 876 7 l 667 7 q 561 58 601 7 q 476 172 524 107 q 392 283 428 238 q 399 350 364 321 q 465 342 433 379 q 480 323 479 325 q 496 304 481 321 q 522 292 511 288 q 532 297 529 293 q 535 303 535 300 q 535 312 535 306 q 535 319 535 318 q 535 514 535 342 q 572 558 535 557 q 611 514 611 560 l 611 403 q 631 392 618 392 q 649 403 643 392 q 649 842 649 836 q 660 870 650 860 q 688 881 671 881 q 715 870 704 881 q 725 842 725 860 q 725 737 725 808 q 725 602 725 665 q 725 481 725 539 q 725 421 725 422 q 744 407 731 407 q 763 421 758 407 q 763 539 763 539 q 794 576 764 574 q 824 572 814 578 q 836 546 833 565 q 839 489 838 540 q 839 383 839 489 q 858 373 849 372 q 875 383 868 374 q 877 446 875 389 q 881 511 879 503 q 915 539 885 539 q 950 511 944 539 q 953 476 953 494 l 953 475 q 953 146 954 311 l 954 146 m 433 1037 q 495 1064 433 1037 q 694 1090 557 1090 q 956 1037 832 1090 q 1171 893 1081 983 q 1315 678 1261 803 q 1368 417 1368 554 q 1315 155 1368 279 q 1171 -60 1261 31 q 956 -203 1081 -150 q 694 -257 832 -257 q 433 -203 557 -257 q 218 -60 308 -150 q 74 155 128 31 q 21 417 21 279 q 74 678 21 554 q 218 893 128 803 q 433 1037 308 983 m 397 -96 q 465 -135 397 -96 q 694 -175 533 -175 q 992 -96 856 -175 q 1207 119 1128 -17 q 1286 417 1286 256 q 1207 714 1286 578 q 992 929 1128 850 q 694 1008 856 1008 q 397 929 533 1008 q 182 714 261 850 q 103 417 103 578 q 182 119 103 256 q 397 -96 261 -17 z "},"T":{"ha":1389,"x_min":19,"x_max":1369,"o":"m 1072 801 q 1079 794 1081 803 q 1076 782 1078 786 q 1069 717 1069 717 q 917 340 1036 504 q 804 217 858 260 q 799 206 800 211 q 799 176 799 200 q 797 140 799 153 q 754 57 792 89 q 607 -21 694 8 q 560 -36 606 -22 l 557 -36 q 581 139 565 26 q 565 139 575 139 q 547 139 554 139 q 532 139 539 139 q 531 139 531 139 q 514 146 521 139 q 424 236 469 192 q 415 253 415 243 q 417 254 415 254 q 417 303 417 254 q 242 279 251 281 l 242 283 q 246 294 246 293 q 338 478 278 410 q 388 513 358 503 q 476 522 425 525 q 500 532 493 521 q 515 551 507 543 q 706 694 600 638 q 1015 796 851 775 q 1047 798 1026 796 q 1072 801 1067 800 m 849 572 q 839 582 849 572 q 800 592 829 592 q 751 572 771 592 q 731 522 731 551 q 751 473 731 493 q 800 453 771 453 q 849 473 829 453 q 869 522 869 493 q 869 522 869 522 q 849 572 869 551 m 404 193 q 381 108 365 161 q 388 101 382 103 q 471 125 440 90 q 472 125 472 125 q 485 109 483 114 q 478 89 486 104 q 421 49 461 63 q 319 33 381 33 q 311 42 311 33 q 331 156 311 111 q 375 204 346 189 q 399 200 390 211 q 404 193 401 196 m 74 155 q 48 217 74 155 q 21 417 21 279 q 74 678 21 554 q 218 893 128 803 q 433 1037 308 983 q 694 1090 557 1090 q 956 1037 832 1090 q 1171 893 1081 983 q 1315 678 1261 803 q 1368 417 1368 554 q 1315 155 1368 279 q 1171 -60 1261 31 q 956 -203 1081 -150 q 694 -257 832 -257 q 433 -203 557 -257 q 218 -60 308 -150 q 74 155 128 31 m 182 714 q 142 646 182 714 q 103 417 103 578 q 182 119 103 256 q 397 -96 261 -17 q 694 -175 533 -175 q 992 -96 856 -175 q 1207 119 1128 -17 q 1286 417 1286 256 q 1207 714 1286 578 q 992 929 1128 850 q 694 1008 856 1008 q 397 929 533 1008 q 182 714 261 850 z "},"U":{"ha":1389,"x_min":19,"x_max":1369,"o":"m 451 -35 q 433 -29 435 -29 q 375 8 399 -19 q 347 71 351 36 q 407 190 340 149 q 411 193 408 192 q 415 196 414 194 q 392 197 403 196 q 335 250 347 204 q 315 374 322 300 q 356 382 354 382 q 475 389 424 393 q 565 360 528 383 q 717 276 651 304 q 840 250 768 254 q 1082 272 942 242 q 1089 274 1082 274 q 1092 249 1092 261 q 1092 247 1092 249 q 1097 236 1092 240 q 1165 174 1131 206 q 1163 154 1176 163 l 1061 93 q 1043 100 1047 85 q 1019 189 1032 144 q 1013 196 1018 196 q 903 196 1013 196 q 907 193 904 194 q 911 190 910 192 q 955 147 939 175 q 971 86 971 119 q 942 8 971 42 q 871 -33 914 -25 q 867 -35 869 -33 l 833 -35 q 828 -33 831 -33 q 761 4 789 -25 q 729 74 733 33 q 728 86 728 79 q 742 142 728 115 q 700 178 703 175 q 651 196 679 200 q 640 194 640 194 q 575 143 626 183 q 578 136 578 138 q 589 86 589 113 q 564 13 589 44 q 500 -31 539 -19 q 485 -35 493 -32 l 451 -35 m 850 21 q 897 40 878 21 q 915 86 915 58 q 915 88 915 86 q 896 133 915 114 q 849 153 876 153 q 803 133 822 153 q 783 87 783 114 q 803 40 783 60 q 849 21 822 21 l 850 21 m 468 21 q 515 40 496 21 q 535 86 533 58 q 514 132 533 113 q 468 151 494 151 q 422 133 442 151 q 401 86 403 114 q 421 40 401 60 q 468 21 440 21 m 668 247 l 668 250 q 632 268 661 253 q 590 289 603 283 q 554 302 578 294 q 510 311 531 310 l 503 250 l 668 247 m 732 196 l 761 171 l 794 196 l 732 196 m 554 171 l 586 196 l 521 196 q 539 185 533 188 q 554 171 540 183 m 314 406 q 314 428 314 414 q 314 453 314 442 q 314 475 314 465 q 346 610 315 526 q 367 729 367 667 q 364 769 367 750 q 360 801 364 772 q 403 813 364 801 q 461 829 442 824 q 600 853 529 847 q 685 846 653 856 q 725 807 721 835 q 724 767 725 804 l 660 767 q 655 767 657 767 q 651 767 653 767 q 636 751 636 765 q 636 750 636 750 q 651 736 638 736 q 653 736 653 736 q 672 736 660 736 q 694 736 683 736 q 713 736 704 736 q 722 736 721 736 l 724 703 q 709 701 722 703 q 689 700 696 700 q 676 699 686 700 q 660 697 665 699 q 647 692 650 696 q 643 681 643 686 q 644 676 643 678 q 660 667 646 665 q 696 669 668 667 q 726 672 724 671 l 733 640 l 676 628 q 661 610 658 625 q 683 599 664 594 q 742 611 721 606 l 754 583 q 700 553 701 554 q 692 539 692 549 q 694 532 692 535 q 707 524 699 524 q 715 526 711 524 q 767 554 717 528 q 769 557 768 556 l 800 525 q 764 497 772 504 q 757 485 757 493 q 757 482 757 483 q 769 469 760 471 q 771 469 771 469 q 783 474 778 469 q 826 506 799 485 q 831 508 828 508 q 836 506 833 508 q 1047 400 925 451 q 1093 339 1079 388 q 1096 312 1099 317 q 1071 300 1093 307 q 899 275 988 275 q 897 275 897 275 q 586 381 721 276 q 499 417 551 408 q 318 407 421 431 q 314 406 315 407 m 881 86 q 872 65 881 74 q 850 56 863 56 q 849 56 850 56 q 827 65 836 56 q 818 86 818 74 l 818 88 q 827 109 818 100 q 849 118 836 118 q 872 109 863 118 q 881 86 881 100 m 468 56 q 445 65 454 56 q 436 86 436 74 q 447 106 438 99 q 468 114 456 114 q 490 106 481 114 q 500 86 499 99 q 490 65 499 74 q 468 56 481 56 m 74 155 q 48 217 74 155 q 21 417 21 279 q 74 678 21 554 q 218 893 128 803 q 433 1037 308 983 q 694 1090 557 1090 q 956 1037 832 1090 q 1171 893 1081 983 q 1315 678 1261 803 q 1368 417 1368 554 q 1315 155 1368 279 q 1171 -60 1261 31 q 956 -203 1081 -150 q 694 -257 832 -257 q 433 -203 557 -257 q 218 -60 308 -150 q 74 155 128 31 m 182 714 q 142 646 182 714 q 103 417 103 578 q 182 119 103 256 q 397 -96 261 -17 q 694 -175 533 -175 q 992 -96 856 -175 q 1207 119 1128 -17 q 1286 417 1286 256 q 1207 714 1286 578 q 992 929 1128 850 q 694 1008 856 1008 q 397 929 533 1008 q 182 714 261 850 z "},"W":{"ha":1389,"x_min":19,"x_max":1369,"o":"m 1203 297 l 1203 251 l 972 251 q 948 208 968 225 q 901 190 928 190 q 847 217 868 190 q 829 251 833 232 q 822 251 826 251 q 813 251 817 251 q 806 251 810 251 q 803 251 804 251 q 778 208 799 225 q 732 190 758 190 q 669 228 690 190 q 663 246 665 236 q 656 251 660 250 q 633 251 651 251 q 609 208 629 225 q 563 190 589 190 q 519 206 538 190 q 494 246 500 222 q 493 250 493 247 l 469 250 l 469 225 q 460 215 469 215 q 403 215 408 215 q 394 224 396 217 q 393 238 393 231 q 394 247 393 242 l 386 247 q 368 207 385 224 q 328 190 351 190 q 288 207 304 190 q 271 247 271 224 q 271 249 271 247 l 271 251 l 186 251 l 186 297 l 242 297 l 242 356 l 329 356 q 325 375 328 365 q 311 431 311 401 q 325 489 311 461 q 329 504 329 496 q 340 515 329 515 l 374 515 l 374 643 l 438 643 l 438 515 l 535 515 q 535 565 535 561 q 535 568 535 567 q 549 592 535 583 q 578 600 563 600 q 601 596 590 600 q 621 565 621 586 q 621 515 621 565 l 675 515 l 675 556 q 688 568 675 569 q 714 568 700 568 q 728 556 728 568 l 728 515 l 803 515 l 803 599 l 1081 599 l 1081 567 l 1029 567 l 1029 494 l 1146 494 l 1146 297 l 1203 297 m 382 269 q 383 269 382 269 q 389 271 386 269 q 366 302 383 290 q 328 314 349 314 q 288 300 306 314 q 265 263 271 286 q 271 261 268 261 q 272 263 272 261 q 293 293 278 281 q 328 306 308 306 q 382 269 367 306 m 625 296 q 631 294 628 294 q 636 296 633 294 q 569 344 615 340 q 497 314 525 350 q 481 308 490 304 l 481 343 l 436 343 l 438 331 l 469 331 l 469 294 l 488 294 q 504 303 497 293 q 561 333 525 333 q 589 328 575 333 q 625 296 613 318 m 794 294 q 799 294 796 294 q 803 296 800 294 q 776 331 796 317 q 731 346 756 344 q 685 332 707 346 q 656 296 664 318 q 672 303 665 292 q 729 333 692 333 q 750 329 740 333 q 794 294 781 322 m 972 267 q 979 269 976 268 q 956 323 978 301 q 907 346 935 344 q 853 333 878 349 q 822 294 828 318 q 842 301 835 290 q 893 332 858 329 q 901 332 899 332 q 950 313 929 332 q 972 267 971 294 m 975 453 l 974 453 q 983 463 985 451 q 983 558 983 494 q 983 565 983 563 l 892 565 l 892 453 l 975 453 m 74 155 q 48 217 74 155 q 21 417 21 279 q 74 678 21 554 q 218 893 128 803 q 433 1037 308 983 q 694 1090 557 1090 q 956 1037 832 1090 q 1171 893 1081 983 q 1315 678 1261 803 q 1368 417 1368 554 q 1315 155 1368 279 q 1171 -60 1261 31 q 956 -203 1081 -150 q 694 -257 832 -257 q 433 -203 557 -257 q 218 -60 308 -150 q 74 155 128 31 m 182 714 q 142 646 182 714 q 103 417 103 578 q 182 119 103 256 q 397 -96 261 -17 q 694 -175 533 -175 q 992 -96 856 -175 q 1207 119 1128 -17 q 1286 417 1286 256 q 1207 714 1286 578 q 992 929 1128 850 q 694 1008 856 1008 q 397 929 533 1008 q 182 714 261 850 z "},"Y":{"ha":1389,"x_min":19,"x_max":1369,"o":"m 694 279 l 547 279 q 371 320 522 279 q 200 368 219 361 q 196 375 196 371 q 201 382 196 381 q 694 383 208 383 q 1188 382 1181 383 q 1193 375 1193 381 q 1189 368 1193 371 q 1018 320 1169 361 q 842 279 867 279 l 694 279 m 694 397 l 233 397 q 224 397 228 397 q 211 397 218 397 q 196 403 196 399 q 210 419 193 415 q 267 435 251 431 q 433 476 406 468 q 496 486 464 485 q 694 486 546 486 q 893 486 843 486 q 956 476 925 485 q 1122 433 985 468 q 1179 419 1138 431 q 1193 401 1196 415 q 1178 397 1193 399 q 1165 397 1171 397 q 1156 397 1161 397 l 694 397 m 690 214 q 679 206 692 204 l 668 206 q 646 217 654 206 l 624 253 q 622 265 619 258 q 631 271 624 271 q 675 271 674 271 q 690 258 686 268 q 691 245 690 254 q 691 226 692 236 q 690 214 690 215 m 699 214 q 698 226 699 215 q 698 245 697 236 q 699 258 699 254 q 714 271 703 268 q 758 271 715 271 q 767 265 765 271 q 765 253 769 258 l 743 217 q 721 206 735 206 l 710 206 q 699 214 697 204 m 628 206 q 619 211 626 206 q 605 221 611 217 q 589 232 599 225 q 572 244 579 239 q 560 253 565 249 q 551 262 554 258 q 550 265 549 265 q 599 267 565 271 q 611 260 607 265 q 628 233 617 251 q 640 213 639 214 q 640 210 640 211 q 635 206 640 206 l 628 206 m 761 206 l 754 206 q 749 210 749 206 q 749 213 749 211 q 761 233 750 214 q 778 260 772 251 q 790 267 782 265 q 839 265 824 271 q 838 262 840 265 q 829 253 835 258 q 817 244 824 249 q 800 232 810 239 q 784 221 790 225 q 770 211 778 217 q 761 206 763 206 m 554 582 q 694 629 614 629 q 835 582 775 629 q 847 571 842 576 q 838 547 836 564 q 864 531 838 531 q 865 531 864 531 q 876 532 871 531 q 885 518 881 525 q 890 503 890 506 q 876 501 889 501 l 513 501 q 499 503 500 501 q 504 518 499 506 q 513 532 508 525 q 524 531 518 531 q 525 531 525 531 q 551 547 551 531 q 542 571 553 564 q 554 582 547 576 m 635 547 q 608 575 636 575 q 582 547 581 575 q 608 531 582 531 q 635 547 633 531 m 781 575 q 754 547 754 575 q 781 531 756 531 q 807 547 807 531 q 781 575 808 575 m 668 547 q 694 531 669 531 q 721 547 719 531 q 694 575 722 575 q 668 547 667 575 m 74 155 q 48 217 74 155 q 21 417 21 279 q 74 678 21 554 q 218 893 128 803 q 433 1037 308 983 q 694 1090 557 1090 q 956 1037 832 1090 q 1171 893 1081 983 q 1315 678 1261 803 q 1368 417 1368 554 q 1315 155 1368 279 q 1171 -60 1261 31 q 956 -203 1081 -150 q 694 -257 832 -257 q 433 -203 557 -257 q 218 -60 308 -150 q 74 155 128 31 m 182 714 q 142 646 182 714 q 103 417 103 578 q 182 119 103 256 q 397 -96 261 -17 q 694 -175 533 -175 q 992 -96 856 -175 q 1207 119 1128 -17 q 1286 417 1286 256 q 1207 714 1286 578 q 992 929 1128 850 q 694 1008 856 1008 q 397 929 533 1008 q 182 714 261 850 z "},"a":{"ha":1389,"x_min":19,"x_max":1369,"o":"m 74 155 q 48 217 74 155 q 21 417 21 279 q 74 678 21 554 q 218 893 128 803 q 433 1037 308 983 q 694 1090 557 1090 q 956 1037 832 1090 q 1171 893 1081 983 q 1315 678 1261 803 q 1368 417 1368 554 q 1315 155 1368 279 q 1171 -60 1261 31 q 956 -203 1081 -150 q 694 -257 832 -257 q 433 -203 557 -257 q 218 -60 308 -150 q 74 155 128 31 m 182 714 q 142 646 182 714 q 103 417 103 578 q 182 119 103 256 q 397 -96 261 -17 q 694 -175 533 -175 q 992 -96 856 -175 q 1207 119 1128 -17 q 1286 417 1286 256 q 1207 714 1286 578 q 992 929 1128 850 q 694 1008 856 1008 q 397 929 533 1008 q 182 714 261 850 m 1122 590 q 1158 568 1153 586 q 1143 529 1164 550 l 997 388 q 964 330 976 367 q 957 264 951 293 l 992 64 q 981 23 997 35 q 939 26 965 11 l 760 119 q 694 135 733 135 q 629 119 656 135 l 450 26 q 408 23 424 11 q 397 64 392 35 l 432 264 q 425 330 438 293 q 392 388 413 367 l 246 529 q 231 568 225 550 q 267 590 236 586 l 467 619 q 528 647 497 624 q 572 696 558 669 l 663 878 q 694 906 675 906 q 726 878 714 906 l 817 696 q 861 647 831 669 q 922 619 892 624 l 1122 590 m 558 389 q 572 358 558 371 q 603 346 585 346 q 633 358 621 346 q 646 389 646 371 l 646 564 q 633 594 646 582 q 603 607 621 607 q 572 594 585 607 q 558 564 558 582 l 558 553 q 538 538 550 542 q 486 549 515 531 q 478 551 482 551 q 468 547 472 551 q 464 536 464 543 q 471 524 464 528 q 546 510 511 500 q 558 515 553 513 l 558 389 m 631 231 q 643 215 631 231 q 697 200 656 200 q 763 231 739 200 q 794 294 788 261 l 765 300 q 764 292 765 297 q 757 274 763 286 q 744 253 751 263 q 725 237 738 244 q 697 229 713 229 q 669 237 682 229 q 650 253 657 244 q 638 274 643 263 q 631 292 632 286 q 629 300 629 297 l 601 294 q 631 231 607 261 m 918 524 l 918 525 q 925 536 925 529 q 921 547 925 543 q 911 551 917 551 q 903 550 907 551 q 851 539 874 532 q 831 553 839 543 l 831 564 q 817 594 831 582 q 786 607 804 607 q 756 594 768 607 q 743 564 743 582 l 743 389 q 756 358 743 371 q 786 346 768 346 q 817 358 804 346 q 831 389 831 371 l 831 517 q 843 511 836 513 q 918 524 876 500 z "},"b":{"ha":1389,"x_min":19,"x_max":1369,"o":"m 1076 794 q 1047 743 1050 746 q 1031 718 1040 729 q 694 363 1026 714 q 675 335 682 350 q 681 285 663 306 q 729 269 699 264 q 774 297 750 274 q 800 325 782 306 q 825 351 815 342 q 875 374 846 374 l 911 375 l 882 354 q 831 296 860 339 q 813 268 819 278 q 715 214 771 214 q 678 221 696 214 q 626 251 657 228 q 603 267 607 267 q 581 254 599 267 l 574 249 l 531 292 l 536 299 q 549 322 549 317 q 533 344 549 326 q 503 396 510 375 q 550 531 475 474 q 578 550 560 538 q 636 600 619 578 l 656 629 l 656 593 q 633 543 654 564 q 606 518 624 535 q 579 492 588 500 q 551 447 556 468 q 567 399 546 417 q 617 393 588 381 q 644 413 632 401 q 1000 749 990 740 q 1025 765 1011 758 l 1076 794 m 436 107 l 389 154 l 518 283 l 565 236 l 436 107 m 336 118 q 369 140 358 140 q 401 119 379 140 q 422 86 422 97 q 400 53 422 75 l 399 51 l 399 50 q 369 32 381 32 q 339 50 358 32 l 339 51 q 336 54 336 53 l 332 57 q 314 88 314 76 q 333 117 314 99 l 336 118 m 948 1040 q 1011 1015 948 1040 q 1171 893 1074 990 q 1318 670 1268 796 q 1368 417 1368 544 q 1318 163 1368 289 q 1171 -60 1268 38 q 948 -207 1074 -157 q 694 -257 822 -257 q 441 -207 567 -257 q 218 -60 315 -157 q 71 163 121 38 q 21 417 21 289 q 71 670 21 544 q 218 893 121 796 q 441 1040 315 990 q 694 1090 567 1090 q 948 1040 822 1090 m 276 -1 q 542 -156 389 -115 q 847 -156 694 -196 q 1113 -2 1000 -115 q 1267 264 1226 111 q 1267 569 1307 417 q 1113 835 1226 722 q 847 989 1000 949 q 542 989 694 1029 q 276 835 389 949 q 147 640 190 750 q 103 417 103 529 q 147 194 103 304 q 276 -1 190 83 z "},"c":{"ha":1389,"x_min":19,"x_max":1369,"o":"m 871 503 l 967 522 q 1069 39 1044 157 q 1069 35 1069 38 q 1054 15 1069 18 q 996 3 1025 10 q 993 3 994 3 q 974 19 976 3 q 946 151 971 32 q 897 385 921 271 q 871 503 872 500 m 422 522 l 518 503 q 492 385 517 501 q 442 148 468 268 q 415 19 417 28 q 396 3 413 3 q 390 4 393 3 q 336 15 364 10 q 319 35 319 18 q 321 40 319 38 q 422 522 408 456 m 899 650 q 917 654 908 651 q 942 639 938 658 q 963 542 943 631 l 963 542 l 867 521 q 847 617 861 551 q 863 643 842 638 q 881 646 872 644 q 874 676 879 651 q 839 692 858 675 q 808 715 836 693 q 790 751 790 729 q 790 756 790 753 q 764 764 767 763 q 760 765 761 765 q 751 760 754 765 q 721 746 739 746 q 721 746 721 746 l 672 746 q 669 746 671 746 q 635 764 647 746 q 633 765 635 764 l 599 754 q 599 750 599 753 q 592 728 599 738 q 582 717 588 721 q 543 686 574 710 q 517 676 532 676 q 515 676 517 676 l 508 646 q 526 642 517 644 q 543 622 543 640 q 543 617 543 619 q 522 525 525 533 q 518 521 522 521 q 429 540 514 522 l 426 542 q 447 638 431 561 q 472 654 451 658 l 490 650 q 492 664 490 654 q 496 679 494 674 q 493 682 496 681 q 482 693 488 688 q 474 718 474 704 q 489 749 474 738 q 532 785 510 767 q 557 792 543 792 q 589 776 576 792 q 594 774 590 774 q 596 774 594 774 q 626 783 606 778 q 628 797 628 796 q 642 820 631 811 q 667 831 653 829 q 722 831 694 831 q 751 817 739 829 q 763 788 763 804 l 763 785 q 794 774 785 778 q 796 774 794 774 q 799 775 797 774 q 850 789 821 801 q 861 781 857 785 q 899 751 881 767 q 915 718 915 739 q 904 689 915 701 q 894 682 900 686 q 893 679 893 681 q 899 650 894 671 m 74 155 q 48 217 74 155 q 21 417 21 279 q 74 678 21 554 q 218 893 128 803 q 433 1037 308 983 q 694 1090 557 1090 q 956 1037 832 1090 q 1171 893 1081 983 q 1315 678 1261 803 q 1368 417 1368 554 q 1315 155 1368 279 q 1171 -60 1261 31 q 956 -203 1081 -150 q 694 -257 832 -257 q 433 -203 557 -257 q 218 -60 308 -150 q 74 155 128 31 m 182 714 q 142 646 182 714 q 103 417 103 578 q 182 119 103 256 q 397 -96 261 -17 q 694 -175 533 -175 q 992 -96 856 -175 q 1207 119 1128 -17 q 1286 417 1286 256 q 1207 714 1286 578 q 992 929 1128 850 q 694 1008 856 1008 q 397 929 533 1008 q 182 714 261 850 z "},"d":{"ha":1389,"x_min":19,"x_max":1369,"o":"m 719 710 q 834 777 769 760 q 958 778 899 794 q 1069 724 1018 761 q 1147 624 1119 686 q 1165 494 1174 563 q 1153 440 1163 465 q 1125 385 1144 414 q 1094 342 1106 357 q 1054 294 1083 328 q 1018 253 1025 261 q 935 153 992 222 q 835 33 879 83 q 746 -60 790 -18 q 699 -79 722 -78 q 652 -64 675 -81 q 615 -33 629 -47 q 579 7 600 -18 q 285 356 432 181 q 225 488 233 415 q 233 598 215 544 q 285 690 250 651 q 370 754 321 729 q 472 785 419 779 q 577 771 524 790 q 671 708 631 751 q 719 710 694 685 m 569 335 q 581 306 569 318 q 608 294 592 294 q 636 306 625 294 q 647 335 647 318 l 647 490 q 636 519 647 507 q 608 531 625 531 q 581 519 592 531 q 569 490 569 507 l 569 482 q 550 468 561 472 q 503 478 529 463 q 496 481 500 481 q 483 467 483 481 q 490 456 483 460 q 557 443 526 433 q 569 449 564 446 l 569 335 m 634 192 q 645 178 634 192 q 694 164 656 164 q 753 192 732 164 q 781 249 775 219 l 754 254 q 749 235 753 246 q 731 207 746 224 q 694 190 715 190 q 656 207 672 190 q 637 235 640 224 q 632 254 633 246 l 607 249 q 634 192 613 219 m 892 456 q 899 467 899 460 q 885 481 899 481 q 879 478 882 481 q 832 468 851 463 q 813 482 821 472 l 813 490 q 801 519 813 507 q 774 531 790 531 q 746 519 757 531 q 735 490 735 507 l 735 335 q 746 306 735 318 q 774 294 757 294 q 801 306 790 294 q 813 335 813 318 l 813 449 q 824 443 818 446 q 892 456 856 433 m 74 155 q 48 217 74 155 q 21 417 21 279 q 74 678 21 554 q 218 893 128 803 q 433 1037 308 983 q 694 1090 557 1090 q 956 1037 832 1090 q 1171 893 1081 983 q 1315 678 1261 803 q 1368 417 1368 554 q 1315 155 1368 279 q 1171 -60 1261 31 q 956 -203 1081 -150 q 694 -257 832 -257 q 433 -203 557 -257 q 218 -60 308 -150 q 74 155 128 31 m 182 714 q 142 646 182 714 q 103 417 103 578 q 182 119 103 256 q 397 -96 261 -17 q 694 -175 533 -175 q 992 -96 856 -175 q 1207 119 1128 -17 q 1286 417 1286 256 q 1207 714 1286 578 q 992 929 1128 850 q 694 1008 856 1008 q 397 929 533 1008 q 182 714 261 850 z "},"e":{"ha":1389,"x_min":19,"x_max":1369,"o":"m 74 155 q 48 217 74 155 q 21 417 21 279 q 74 678 21 554 q 218 893 128 803 q 433 1037 308 983 q 694 1090 557 1090 q 956 1037 832 1090 q 1171 893 1081 983 q 1315 678 1261 803 q 1368 417 1368 554 q 1315 155 1368 279 q 1171 -60 1261 31 q 956 -203 1081 -150 q 694 -257 832 -257 q 433 -203 557 -257 q 218 -60 308 -150 q 74 155 128 31 m 182 714 q 142 646 182 714 q 103 417 103 578 q 182 119 103 256 q 397 -96 261 -17 q 694 -175 533 -175 q 992 -96 856 -175 q 1207 119 1128 -17 q 1286 417 1286 256 q 1207 714 1286 578 q 992 929 1128 850 q 694 1008 856 1008 q 397 929 533 1008 q 182 714 261 850 m 703 390 q 769 239 769 329 q 729 117 769 171 q 625 43 689 63 q 560 32 593 32 q 415 93 476 32 q 354 235 354 151 q 354 238 354 236 q 354 239 354 239 q 358 279 354 260 q 479 247 415 249 q 481 247 481 247 q 611 286 551 247 q 703 390 674 324 m 667 406 q 589 317 642 349 q 479 285 539 285 q 386 307 431 285 q 313 371 342 329 q 282 429 293 397 q 272 493 272 460 q 272 494 272 493 q 322 628 272 571 q 456 699 372 688 q 450 647 450 674 q 450 644 450 646 q 511 486 450 553 q 667 406 572 417 m 1035 240 q 973 92 1035 151 q 826 32 911 32 q 726 58 774 32 q 807 239 807 131 q 807 240 807 239 q 786 338 807 290 q 726 421 765 386 q 776 440 750 433 q 826 447 801 447 q 972 388 910 447 q 1035 240 1035 328 m 882 735 q 726 654 788 724 q 665 496 665 586 q 665 493 665 494 q 665 492 665 492 q 669 443 665 467 q 538 513 589 453 q 488 647 488 569 q 488 649 488 649 q 488 650 488 649 q 497 710 488 681 q 526 769 507 742 q 601 833 557 810 q 693 854 644 854 l 694 854 q 804 824 754 854 q 882 735 857 792 m 1050 340 q 958 446 1021 407 q 828 485 900 485 q 828 485 828 485 q 826 485 826 485 q 765 478 796 485 q 707 451 735 469 q 704 474 704 468 q 703 492 703 482 q 703 494 703 493 q 703 497 703 496 q 764 640 703 582 q 906 700 822 700 q 908 700 907 700 q 909 700 908 700 q 910 700 910 700 q 974 689 943 700 q 1079 611 1040 668 q 1117 494 1117 558 q 1117 494 1117 494 q 1117 492 1117 493 q 1117 490 1117 492 q 1100 410 1117 449 q 1050 340 1083 369 z "},"f":{"ha":1389,"x_min":19,"x_max":1369,"o":"m 74 155 q 48 217 74 155 q 21 417 21 279 q 74 678 21 554 q 218 893 128 803 q 433 1037 308 983 q 694 1090 557 1090 q 956 1037 832 1090 q 1171 893 1081 983 q 1315 678 1261 803 q 1368 417 1368 554 q 1315 155 1368 279 q 1171 -60 1261 31 q 956 -203 1081 -150 q 694 -257 832 -257 q 433 -203 557 -257 q 218 -60 308 -150 q 74 155 128 31 m 182 714 q 142 646 182 714 q 103 417 103 578 q 182 119 103 256 q 397 -96 261 -17 q 694 -175 533 -175 q 992 -96 856 -175 q 1207 119 1128 -17 q 1286 417 1286 256 q 1207 714 1286 578 q 992 929 1128 850 q 694 1008 856 1008 q 397 929 533 1008 q 182 714 261 850 m 1143 267 q 1158 213 1144 264 l 1158 199 q 1158 195 1158 199 q 1157 189 1157 192 q 1068 76 1144 99 q 839 22 940 39 q 651 10 738 6 q 501 28 565 14 q 350 68 436 42 q 267 120 299 85 q 235 201 236 156 q 235 203 235 203 q 235 204 235 204 q 264 290 235 253 q 338 339 293 328 q 371 344 339 339 q 369 346 369 346 l 365 351 q 329 443 324 392 q 414 553 336 524 q 489 560 432 560 l 507 560 q 500 571 501 568 q 481 633 479 603 q 521 704 483 672 q 646 767 563 739 q 693 781 646 767 q 718 831 735 792 q 714 839 717 835 q 692 872 707 851 q 688 883 688 876 q 692 894 688 890 q 706 903 696 903 q 713 901 710 903 q 875 815 817 867 q 931 733 917 779 q 917 610 947 675 q 890 560 915 607 l 926 560 q 985 551 964 558 q 1058 480 1036 532 q 1049 376 1079 428 q 1025 344 1038 360 q 1026 343 1026 343 q 1031 343 1029 343 q 1143 267 1110 336 m 572 310 q 584 282 572 293 q 612 271 596 271 q 640 282 628 271 q 651 310 651 293 l 651 467 q 640 494 651 483 q 612 506 628 506 q 584 494 596 506 q 572 467 572 483 l 572 457 q 553 443 565 447 q 507 454 533 438 q 500 456 504 456 q 488 443 488 456 q 493 432 488 435 q 561 419 531 410 q 572 424 567 421 l 572 310 m 638 167 q 649 154 638 167 q 697 140 660 140 q 757 167 735 140 q 783 225 779 194 l 758 229 q 753 210 757 221 q 735 183 750 200 q 697 165 719 165 q 660 183 675 165 q 641 210 644 200 q 636 229 638 221 l 610 225 q 638 167 615 194 m 896 431 l 896 432 q 903 443 903 435 q 889 456 903 456 q 882 454 886 456 q 836 443 856 438 q 817 457 824 447 l 817 467 q 804 493 815 482 q 777 504 793 504 q 750 493 761 504 q 738 467 739 482 l 738 310 q 738 307 738 308 q 749 279 738 290 q 777 268 761 268 q 805 279 793 268 q 817 307 817 290 q 817 310 817 308 l 817 424 q 828 419 822 421 q 896 431 858 408 z "},"g":{"ha":1389,"x_min":19,"x_max":1369,"o":"m 710 583 q 908 476 832 572 l 457 476 q 653 583 532 571 q 643 606 644 593 q 656 630 644 619 q 681 640 667 640 q 707 630 696 640 q 718 606 718 619 q 710 583 718 593 m 828 244 q 825 206 825 225 q 825 205 825 206 q 825 203 825 204 q 871 60 825 124 q 683 8 785 8 q 681 8 682 8 q 501 54 582 8 q 379 175 419 100 q 346 204 361 188 q 233 383 276 282 q 232 442 208 449 q 363 379 300 417 q 374 407 368 393 l 374 640 q 428 771 374 717 q 558 825 482 825 l 800 825 q 930 771 876 825 q 983 640 983 717 l 983 417 q 1014 297 1014 360 q 1013 268 1014 282 l 832 268 l 828 244 m 415 454 l 943 454 l 943 640 q 901 742 943 700 q 800 783 858 783 l 558 783 q 458 742 500 783 q 415 640 415 700 l 415 454 m 579 239 l 579 240 q 589 217 579 226 q 612 208 599 208 q 634 217 625 208 q 643 240 643 226 l 643 367 q 634 389 643 379 q 612 399 625 399 q 589 389 599 399 q 579 367 579 379 l 579 360 q 564 349 574 351 q 526 356 547 343 q 521 358 524 358 q 510 347 510 358 q 515 338 510 342 q 571 328 544 319 q 579 332 575 329 l 579 239 m 632 124 q 641 113 632 124 q 681 101 650 101 q 728 124 711 101 q 750 171 746 146 l 729 174 q 726 159 729 168 q 711 137 724 150 q 681 124 699 124 q 650 137 663 124 q 635 159 638 150 q 631 174 632 168 l 610 171 q 632 124 614 146 m 786 328 q 842 338 811 319 q 846 347 846 342 q 835 357 846 357 q 831 356 833 357 q 793 349 808 343 q 776 358 783 351 l 776 367 q 767 389 776 379 q 745 399 758 399 q 723 389 732 399 q 714 367 714 379 l 714 239 q 723 217 714 226 q 745 208 732 208 q 767 217 758 208 q 776 239 776 226 l 776 332 q 786 328 782 329 m 1154 240 q 1157 206 1157 222 q 1113 71 1157 126 q 1005 15 1068 15 q 897 71 942 15 q 853 206 853 126 q 856 240 853 222 l 1154 240 m 961 128 q 965 117 961 121 q 976 113 969 113 q 988 117 983 113 q 993 128 993 121 l 993 192 q 988 203 993 199 q 976 208 983 208 q 965 203 969 208 q 961 192 961 199 l 961 189 q 953 183 957 185 q 933 186 944 181 q 931 188 932 188 q 925 182 925 188 q 928 178 925 179 q 956 172 943 168 q 961 175 958 174 l 961 128 m 987 69 q 991 64 987 69 q 1011 58 996 58 q 1035 69 1026 58 q 1047 93 1044 81 l 1036 94 q 1035 88 1036 92 q 1027 76 1033 83 q 1012 69 1021 69 q 997 76 1003 69 q 988 88 990 82 q 986 94 986 93 l 976 93 q 987 69 978 81 m 1093 178 q 1096 182 1096 179 q 1090 188 1096 188 q 1088 186 1089 188 q 1068 182 1076 181 q 1060 188 1064 185 l 1060 192 q 1056 203 1060 199 q 1044 208 1051 208 q 1033 203 1038 208 q 1028 192 1028 199 l 1028 128 q 1033 116 1028 121 q 1044 111 1038 111 q 1056 116 1051 111 q 1060 128 1060 121 l 1060 175 q 1065 172 1063 174 q 1093 178 1078 168 m 74 155 q 48 217 74 155 q 21 417 21 279 q 74 678 21 554 q 218 893 128 803 q 433 1037 308 983 q 694 1090 557 1090 q 956 1037 832 1090 q 1171 893 1081 983 q 1315 678 1261 803 q 1368 417 1368 554 q 1315 155 1368 279 q 1171 -60 1261 31 q 956 -203 1081 -150 q 694 -257 832 -257 q 433 -203 557 -257 q 218 -60 308 -150 q 74 155 128 31 m 182 714 q 142 646 182 714 q 103 417 103 578 q 182 119 103 256 q 397 -96 261 -17 q 694 -175 533 -175 q 992 -96 856 -175 q 1207 119 1128 -17 q 1286 417 1286 256 q 1207 714 1286 578 q 992 929 1128 850 q 694 1008 856 1008 q 397 929 533 1008 q 182 714 261 850 z "},"h":{"ha":1389,"x_min":19,"x_max":1369,"o":"m 1053 499 q 1061 178 1125 351 q 854 -54 1004 25 q 808 -65 833 -65 q 768 -61 782 -65 q 722 -46 754 -57 q 667 -46 692 -35 q 483 -25 569 -87 q 324 188 371 57 q 314 447 276 319 q 435 598 349 560 q 628 586 521 636 q 669 565 636 581 l 654 640 q 458 749 514 660 q 428 882 424 806 q 572 842 519 879 q 657 718 624 806 q 665 739 665 739 q 733 827 683 792 q 838 860 783 863 q 847 857 842 860 q 857 849 851 854 q 865 842 863 843 q 858 832 863 839 q 851 822 854 825 q 843 818 847 818 q 726 758 765 813 q 704 615 688 704 q 715 565 704 611 q 811 604 806 603 q 953 599 889 626 q 1053 499 1017 572 m 569 289 q 581 261 569 272 q 608 250 592 250 q 636 261 625 250 q 647 289 647 272 l 647 446 q 636 474 647 463 q 608 485 625 485 q 581 474 592 485 q 569 446 569 463 l 569 436 q 550 424 561 426 q 503 433 529 417 q 496 435 500 435 q 483 422 483 435 q 490 411 483 414 q 557 399 526 389 q 569 403 564 400 l 569 289 m 634 147 q 645 133 634 147 q 694 119 656 119 q 753 147 732 119 q 781 204 775 174 l 754 208 q 749 190 753 201 q 731 163 746 179 q 694 146 715 146 q 656 163 672 146 q 637 190 640 179 q 632 208 633 201 l 607 204 q 634 147 613 175 m 892 411 q 899 422 899 414 q 885 435 899 435 q 879 433 882 435 q 832 424 851 417 q 813 436 821 426 l 813 446 q 801 474 813 463 q 774 485 790 485 q 746 474 757 485 q 735 446 735 463 l 735 289 q 746 261 735 272 q 774 250 757 250 q 801 261 790 250 q 813 289 813 272 l 813 403 q 824 399 818 400 q 892 411 856 389 m 74 155 q 48 217 74 155 q 21 417 21 279 q 74 678 21 554 q 218 893 128 803 q 433 1037 308 983 q 694 1090 557 1090 q 956 1037 832 1090 q 1171 893 1081 983 q 1315 678 1261 803 q 1368 417 1368 554 q 1315 155 1368 279 q 1171 -60 1261 31 q 956 -203 1081 -150 q 694 -257 832 -257 q 433 -203 557 -257 q 218 -60 308 -150 q 74 155 128 31 m 182 714 q 142 646 182 714 q 103 417 103 578 q 182 119 103 256 q 397 -96 261 -17 q 694 -175 533 -175 q 992 -96 856 -175 q 1207 119 1128 -17 q 1286 417 1286 256 q 1207 714 1286 578 q 992 929 1128 850 q 694 1008 856 1008 q 397 929 533 1008 q 182 714 261 850 z "},"i":{"ha":1389,"x_min":19,"x_max":1369,"o":"m 1058 163 q 1099 124 1069 154 q 1093 100 1113 110 q 1083 94 1090 97 q 1074 89 1076 90 q 1054 94 1061 82 q 942 167 1028 147 q 813 217 874 182 q 827 203 817 213 q 845 188 838 194 q 861 178 853 182 q 918 157 875 169 q 1051 54 1003 135 q 1060 37 1061 40 q 1046 25 1058 33 q 1039 22 1040 22 q 1016 14 1021 13 q 1003 33 1011 15 q 907 131 972 103 q 799 219 825 165 q 772 239 781 219 q 759 259 767 253 q 735 267 751 265 q 728 274 732 267 q 716 285 724 282 q 686 285 708 289 q 693 329 682 310 q 722 351 701 343 q 760 356 743 360 q 794 338 781 351 q 778 314 782 328 q 777 289 775 300 q 778 278 779 278 q 769 267 768 269 q 782 256 775 256 q 813 231 806 256 q 831 219 814 224 q 928 197 901 201 q 954 194 936 197 q 983 190 972 192 q 1008 185 993 189 q 1035 176 1022 182 q 1058 163 1047 169 m 967 754 q 981 776 976 775 q 999 761 985 776 q 1047 731 1024 735 q 1064 724 1063 728 q 1056 707 1065 719 q 878 475 949 565 q 869 465 874 469 q 858 461 865 461 q 851 463 854 461 q 839 481 839 468 q 840 490 839 486 q 967 754 899 613 m 776 361 q 817 443 785 379 q 839 444 822 456 q 840 426 850 439 l 786 356 q 776 361 782 358 m 740 368 q 735 458 736 435 q 749 472 733 472 q 762 458 764 472 q 749 368 760 444 q 743 368 746 368 q 740 368 742 368 m 722 364 q 692 453 704 421 q 700 468 688 467 q 712 469 706 469 q 721 460 718 468 q 725 422 721 454 q 732 367 728 394 q 722 364 726 365 m 674 311 q 581 333 590 331 q 572 353 567 336 q 590 361 578 367 q 635 340 606 353 q 676 322 665 326 q 678 321 676 322 q 675 311 675 317 l 674 311 m 640 350 q 620 360 633 353 q 600 371 607 368 q 592 392 583 381 q 615 396 603 407 q 686 338 650 367 q 681 329 683 333 q 663 339 678 332 q 640 350 649 346 m 622 410 q 624 426 617 415 q 642 426 632 440 l 699 351 q 692 344 694 349 q 622 410 640 392 m 657 431 q 663 454 644 447 q 671 453 665 454 q 678 449 676 451 q 714 361 696 410 q 704 354 708 358 q 696 367 704 354 q 675 400 688 381 q 657 431 663 419 m 758 367 q 776 454 769 425 q 796 465 781 471 q 803 446 808 460 q 769 364 801 444 q 758 367 764 365 m 813 658 q 842 810 839 797 q 858 817 844 828 q 929 794 894 790 q 941 792 939 796 q 939 781 943 789 q 882 642 931 761 q 824 501 833 522 q 806 485 817 485 q 789 490 796 485 q 783 504 782 496 l 813 658 m 724 832 q 794 829 765 818 q 805 828 803 832 q 806 815 807 825 q 768 517 776 581 q 746 496 765 493 q 734 499 738 494 q 729 513 731 504 q 722 649 729 522 q 710 821 714 776 q 713 832 710 829 q 724 832 715 835 m 589 810 q 601 808 596 808 q 660 825 633 808 q 672 827 671 829 q 675 815 674 825 q 714 497 714 499 q 704 486 713 488 q 679 493 685 482 q 674 510 675 501 l 582 783 q 581 789 582 785 q 579 796 579 793 q 579 806 576 803 q 589 810 582 810 m 472 756 q 525 785 497 761 q 546 781 539 797 l 660 494 q 649 472 667 478 q 629 475 635 468 q 603 513 614 493 l 463 729 q 454 749 453 744 q 472 756 456 753 m 367 674 q 407 711 392 688 q 418 726 413 719 q 425 719 419 725 q 432 711 431 714 q 613 468 606 478 q 617 461 615 464 q 617 456 618 458 q 616 452 617 453 q 612 448 615 451 q 607 444 608 444 q 584 443 596 432 q 364 647 572 454 q 352 663 351 658 q 367 674 353 667 m 522 286 q 385 281 496 285 q 264 275 275 276 l 218 275 q 206 290 200 275 q 210 356 218 318 q 210 373 206 369 q 232 374 215 376 q 307 362 242 372 q 433 342 372 351 q 517 328 493 332 q 524 327 518 328 q 531 326 529 326 q 537 324 533 325 q 542 319 540 322 q 543 310 543 315 q 539 291 543 296 q 522 286 535 286 m 553 358 q 533 343 546 340 q 381 376 507 349 q 238 408 256 404 q 217 416 219 413 q 228 432 215 419 q 235 443 232 438 q 241 456 239 449 q 244 468 243 464 q 245 481 244 472 q 246 494 246 490 q 251 508 247 506 q 267 506 256 511 q 546 381 493 403 q 553 358 558 375 m 549 400 q 421 466 513 418 q 279 540 329 514 q 276 557 261 549 q 315 618 306 575 q 338 624 319 638 l 571 429 q 582 417 585 419 q 560 397 579 397 q 549 400 554 397 m 582 290 q 565 306 564 290 q 585 318 565 321 q 672 303 610 314 q 672 294 672 299 q 672 293 672 294 q 582 290 668 292 m 874 397 l 801 342 q 793 351 797 347 l 792 351 q 840 403 824 386 q 848 411 843 406 q 854 418 853 417 q 875 415 863 428 q 874 397 885 406 m 1157 615 q 914 429 1028 515 q 911 426 914 428 q 894 426 900 417 q 889 433 893 429 q 883 440 885 438 q 882 447 882 443 q 886 457 882 451 q 985 571 900 472 q 1086 689 1071 669 q 1099 699 1096 699 q 1110 688 1103 699 q 1161 633 1132 646 q 1169 626 1165 631 q 1157 615 1160 617 m 74 155 q 48 217 74 155 q 21 417 21 279 q 74 678 21 554 q 218 893 128 803 q 433 1037 308 983 q 694 1090 557 1090 q 956 1037 832 1090 q 1171 893 1081 983 q 1315 678 1261 803 q 1368 417 1368 554 q 1315 155 1368 279 q 1171 -60 1261 31 q 956 -203 1081 -150 q 694 -257 832 -257 q 433 -203 557 -257 q 218 -60 308 -150 q 74 155 128 31 m 182 714 q 142 646 182 714 q 103 417 103 578 q 182 119 103 256 q 397 -96 261 -17 q 694 -175 533 -175 q 992 -96 856 -175 q 1207 119 1128 -17 q 1286 417 1286 256 q 1207 714 1286 578 q 992 929 1128 850 q 694 1008 856 1008 q 397 929 533 1008 q 182 714 261 850 z "},"j":{"ha":1389,"x_min":19,"x_max":1369,"o":"m 433 1037 q 495 1064 433 1037 q 694 1090 557 1090 q 956 1037 832 1090 q 1171 893 1081 983 q 1315 678 1261 803 q 1368 417 1368 554 q 1315 155 1368 279 q 1171 -60 1261 31 q 956 -203 1081 -150 q 694 -257 832 -257 q 433 -203 557 -257 q 218 -60 308 -150 q 74 155 128 31 q 21 417 21 279 q 74 678 21 554 q 218 893 128 803 q 433 1037 308 983 m 397 -96 q 465 -135 397 -96 q 694 -175 533 -175 q 992 -96 856 -175 q 1207 119 1128 -17 q 1286 417 1286 256 q 1207 714 1286 578 q 992 929 1128 850 q 694 1008 856 1008 q 397 929 533 1008 q 182 714 261 850 q 103 417 103 578 q 182 119 103 256 q 397 -96 261 -17 m 1076 503 q 1085 423 1096 463 q 1038 358 1074 383 q 921 328 989 325 q 861 338 890 329 q 858 339 860 339 q 854 336 856 339 q 735 201 794 268 q 734 199 735 200 q 733 199 733 199 q 717 151 717 181 l 722 -43 q 748 -83 725 -64 q 771 -112 771 -101 l 619 -112 q 642 -83 619 -101 q 668 -43 665 -64 q 665 229 667 183 q 649 261 665 249 q 592 304 629 275 q 536 347 554 333 q 531 349 533 349 q 526 349 528 349 q 389 347 453 331 q 325 383 349 358 q 301 435 303 406 q 318 492 299 464 q 379 544 339 522 l 385 547 q 368 558 369 558 q 361 613 340 582 q 397 644 375 633 q 401 647 399 644 q 403 647 403 647 q 393 681 393 679 q 419 735 390 710 q 472 761 443 754 l 479 764 q 479 824 465 796 q 522 867 493 851 q 592 883 556 883 q 614 882 603 883 q 617 881 615 881 q 626 886 624 881 q 693 929 649 919 q 813 911 761 946 q 853 847 850 888 q 852 840 853 844 q 851 835 851 836 q 885 828 882 829 q 942 793 919 821 q 958 749 958 774 q 953 724 958 735 l 951 721 q 999 710 996 711 q 1044 681 1026 703 q 1044 607 1076 644 q 1003 579 1031 590 l 1008 575 q 1076 503 1056 546 m 503 700 q 568 688 539 679 q 578 693 574 690 l 578 585 q 578 583 578 583 q 589 557 578 568 q 615 546 600 546 q 642 557 631 546 q 653 583 653 568 q 653 585 653 583 l 653 733 q 642 759 653 749 q 615 769 631 769 q 590 759 600 769 q 578 733 579 749 l 578 725 q 560 711 571 715 q 515 721 542 706 q 508 724 513 724 q 496 711 496 724 q 503 700 496 703 m 668 306 q 681 361 669 308 q 607 379 642 365 q 604 381 606 381 q 603 379 603 381 q 564 360 596 376 q 596 339 593 340 q 657 301 631 317 q 668 306 667 296 m 640 449 q 651 435 640 449 q 697 422 661 422 q 754 449 733 422 q 779 504 775 475 l 756 508 q 751 490 754 501 q 733 463 747 479 q 697 447 718 447 q 662 464 676 447 q 644 490 647 481 q 639 508 640 500 l 614 503 q 640 449 619 475 m 811 329 q 831 349 817 335 q 794 372 803 367 q 792 372 793 372 q 790 372 792 372 q 715 360 754 361 q 718 297 717 303 q 722 263 718 279 q 733 257 724 250 q 743 265 739 261 q 811 329 778 297 m 886 700 q 892 710 892 703 q 879 722 892 722 q 872 721 876 722 q 829 711 847 706 q 810 725 818 715 l 810 733 q 799 759 810 749 q 773 769 788 769 q 747 759 758 769 q 736 733 736 749 l 736 585 q 736 583 736 583 q 747 557 736 568 q 773 546 757 546 q 799 557 789 546 q 810 583 810 568 q 810 585 810 583 l 810 693 q 821 688 815 690 q 886 700 850 679 z "},"k":{"ha":1389,"x_min":19,"x_max":1369,"o":"m 950 671 q 1017 577 1010 638 q 976 468 1024 517 q 946 424 957 449 q 859 226 915 354 q 763 5 803 97 q 719 -92 722 -87 q 694 -114 708 -114 q 671 -92 681 -114 q 558 166 647 -39 q 458 393 468 371 q 404 479 435 449 q 373 579 364 522 q 433 667 382 636 q 471 725 465 685 q 547 859 482 806 q 697 912 611 913 q 847 855 783 911 q 919 714 910 799 q 950 671 924 685 m 897 415 q 899 418 899 417 q 890 425 899 425 q 879 425 885 425 q 856 428 867 425 l 817 396 l 861 361 l 882 379 l 897 415 m 542 315 l 538 311 q 569 238 549 283 l 604 265 l 542 315 m 646 414 l 625 393 l 697 339 l 769 396 l 746 415 q 694 403 722 403 q 646 414 668 403 m 601 411 l 619 428 q 586 457 601 440 q 581 460 585 460 q 578 460 579 460 q 556 446 565 454 l 601 411 m 772 431 l 793 414 l 829 443 q 810 460 821 453 q 807 460 808 460 q 801 458 803 460 q 772 431 788 443 m 586 200 l 625 163 l 678 207 l 628 247 l 581 211 l 586 200 m 650 265 l 700 226 l 747 265 l 697 303 l 650 265 m 721 321 l 769 285 l 839 343 l 793 378 l 721 321 m 674 321 l 604 374 l 563 335 l 628 285 l 674 321 m 624 125 l 621 121 l 650 53 l 675 76 l 624 125 m 646 143 l 697 94 l 754 146 l 701 189 l 646 143 m 769 122 l 718 75 l 740 54 l 769 122 m 797 185 l 811 217 l 771 247 l 724 208 l 776 165 l 797 185 m 793 267 l 824 244 l 857 319 l 793 267 m 726 726 l 726 597 q 736 575 726 585 q 759 565 746 565 q 781 575 772 565 q 790 597 790 585 l 790 690 q 800 688 796 689 q 856 697 825 679 q 861 706 861 700 q 850 717 861 717 q 844 715 847 717 q 807 707 822 703 q 790 718 797 711 l 790 726 q 781 749 790 739 q 759 758 772 758 q 736 749 746 758 q 726 726 726 739 m 724 494 q 717 488 724 494 q 693 481 711 481 q 663 494 675 481 q 647 517 650 508 q 643 532 644 525 l 622 528 q 644 481 626 504 q 693 458 663 458 q 742 481 724 458 q 764 528 760 504 l 743 532 q 739 517 742 525 q 724 494 736 508 m 524 711 q 522 707 522 710 q 526 697 522 700 q 582 688 557 679 q 592 692 588 689 l 592 597 q 601 574 592 583 q 624 564 610 564 q 647 574 638 564 q 656 597 656 583 l 656 726 q 646 748 656 739 q 624 757 636 757 q 601 748 611 757 q 592 726 592 739 l 592 718 q 575 707 585 711 q 538 715 560 703 q 532 717 535 717 q 524 711 526 717 m 496 426 q 489 419 489 426 q 490 415 489 417 q 506 381 496 404 l 540 353 l 581 390 l 526 432 q 496 426 511 426 m 701 -35 l 701 -33 q 728 26 710 -15 l 696 56 l 663 25 l 688 -35 q 695 -39 690 -39 q 701 -35 700 -39 m 74 155 q 48 217 74 155 q 21 417 21 279 q 74 678 21 554 q 218 893 128 803 q 433 1037 308 983 q 694 1090 557 1090 q 956 1037 832 1090 q 1171 893 1081 983 q 1315 678 1261 803 q 1368 417 1368 554 q 1315 155 1368 279 q 1171 -60 1261 31 q 956 -203 1081 -150 q 694 -257 832 -257 q 433 -203 557 -257 q 218 -60 308 -150 q 74 155 128 31 m 182 714 q 142 646 182 714 q 103 417 103 578 q 182 119 103 256 q 397 -96 261 -17 q 694 -175 533 -175 q 992 -96 856 -175 q 1207 119 1128 -17 q 1286 417 1286 256 q 1207 714 1286 578 q 992 929 1128 850 q 694 1008 856 1008 q 397 929 533 1008 q 182 714 261 850 z "},"l":{"ha":1389,"x_min":19,"x_max":1369,"o":"m 990 479 q 996 418 996 449 q 996 415 996 417 q 942 242 996 321 q 801 132 888 164 q 694 113 750 113 q 671 113 683 113 q 506 180 578 121 q 407 326 433 239 q 403 497 381 413 q 493 643 426 582 q 658 719 563 710 q 872 665 776 735 q 990 479 967 594 m 572 390 q 584 363 572 375 q 612 351 596 351 q 640 363 628 351 q 651 390 651 375 l 651 547 q 640 575 651 564 q 612 586 628 586 q 584 575 596 586 q 572 547 572 564 l 572 539 q 553 525 565 529 q 507 535 533 518 q 500 536 504 536 q 488 524 488 536 q 493 513 488 517 q 561 500 531 490 q 572 504 567 501 l 572 390 m 638 249 q 649 235 638 249 q 697 221 660 221 q 757 249 735 221 q 783 306 779 276 l 758 310 q 753 292 757 303 q 735 264 750 281 q 697 247 719 247 q 660 264 675 247 q 641 292 644 281 q 636 310 638 303 l 610 306 q 638 249 615 276 m 896 513 q 903 524 903 517 q 889 536 903 536 q 882 535 886 536 q 836 525 856 518 q 817 538 824 529 l 817 547 q 804 574 815 564 q 777 585 793 585 q 750 574 761 585 q 738 547 739 564 l 738 390 q 738 389 738 390 q 749 362 738 374 q 777 350 761 350 q 805 362 793 350 q 817 389 817 374 q 817 390 817 390 l 817 504 q 828 500 822 501 q 896 513 858 490 m 1068 794 l 981 607 q 883 707 940 665 l 1068 796 l 1068 794 m 322 794 l 506 707 q 408 607 450 664 l 321 794 l 322 794 m 358 349 l 167 417 l 167 418 l 358 486 q 354 415 354 451 q 358 349 354 382 m 408 226 q 506 126 450 169 l 322 39 l 321 40 l 408 226 m 1032 347 q 1035 417 1035 411 q 1032 486 1035 422 l 1222 417 l 1032 347 m 763 758 q 694 763 696 763 q 626 758 686 763 l 694 951 l 763 758 m 763 75 l 694 -118 l 626 75 q 694 71 692 71 q 716 72 704 71 q 742 74 728 72 q 763 75 756 75 m 883 128 q 981 225 935 165 l 1068 40 l 1068 39 l 883 128 m 74 155 q 48 217 74 155 q 21 417 21 279 q 74 678 21 554 q 218 893 128 803 q 433 1037 308 983 q 694 1090 557 1090 q 956 1037 832 1090 q 1171 893 1081 983 q 1315 678 1261 803 q 1368 417 1368 554 q 1315 155 1368 279 q 1171 -60 1261 31 q 956 -203 1081 -150 q 694 -257 832 -257 q 433 -203 557 -257 q 218 -60 308 -150 q 74 155 128 31 m 182 714 q 142 646 182 714 q 103 417 103 578 q 182 119 103 256 q 397 -96 261 -17 q 694 -175 533 -175 q 992 -96 856 -175 q 1207 119 1128 -17 q 1286 417 1286 256 q 1207 714 1286 578 q 992 929 1128 850 q 694 1008 856 1008 q 397 929 533 1008 q 182 714 261 850 z "},"m":{"ha":1389,"x_min":19,"x_max":1369,"o":"m 731 567 q 743 631 729 604 q 744 635 744 632 q 742 640 744 638 q 651 754 696 697 q 649 758 649 758 q 647 767 647 763 l 656 767 q 690 746 665 761 q 722 726 701 739 q 760 704 743 714 q 790 685 776 694 q 795 685 793 685 q 799 685 797 685 q 851 697 824 697 q 901 685 878 697 q 906 685 904 685 q 911 686 908 685 q 1025 765 968 726 q 1040 775 1033 771 q 1049 776 1044 776 q 1050 776 1050 776 q 1049 767 1050 768 q 1004 703 1042 757 q 960 638 967 649 q 958 632 958 635 q 958 629 958 631 q 958 526 982 576 q 958 522 958 525 q 960 517 958 519 q 1036 392 999 454 q 1040 385 1039 388 q 1042 378 1042 381 q 1040 375 1042 376 q 1031 376 1032 376 q 1007 396 1026 379 q 915 468 961 432 q 910 471 913 471 q 904 469 907 471 q 817 461 861 449 q 747 515 772 474 q 731 567 732 539 m 546 221 q 540 185 556 201 l 401 46 q 335 35 369 15 q 310 79 310 49 q 324 115 310 100 q 469 261 396 188 q 501 265 483 275 q 531 293 526 289 q 587 350 547 310 q 658 422 626 390 q 694 460 689 454 q 720 469 706 471 q 743 454 735 468 q 738 415 756 435 l 550 225 q 548 222 549 224 q 546 221 547 221 m 696 588 q 696 580 696 585 q 696 571 696 575 q 696 564 696 567 q 683 554 694 551 q 594 572 625 565 q 588 578 594 572 q 596 585 594 585 q 685 599 625 589 q 693 596 690 599 q 696 588 696 593 m 846 421 q 861 422 861 422 q 871 410 874 422 q 858 322 863 351 q 851 315 858 322 q 846 322 846 321 q 828 410 836 365 q 838 422 825 421 l 846 422 l 846 421 m 1006 571 q 1009 592 1004 589 q 1028 590 1014 594 q 1061 583 1038 588 q 1097 575 1085 578 q 1107 569 1099 575 q 1097 563 1097 563 q 1018 550 1072 558 q 1004 563 1004 547 q 1005 567 1004 564 q 1006 571 1006 571 m 836 731 q 825 733 828 731 q 824 743 822 736 q 836 825 831 788 q 843 833 836 825 q 849 825 849 825 q 865 746 854 804 q 854 732 868 732 l 844 732 q 838 732 842 732 q 836 731 836 731 m 74 155 q 48 217 74 155 q 21 417 21 279 q 74 678 21 554 q 218 893 128 803 q 433 1037 308 983 q 694 1090 557 1090 q 956 1037 832 1090 q 1171 893 1081 983 q 1315 678 1261 803 q 1368 417 1368 554 q 1315 155 1368 279 q 1171 -60 1261 31 q 956 -203 1081 -150 q 694 -257 832 -257 q 433 -203 557 -257 q 218 -60 308 -150 q 74 155 128 31 m 182 714 q 142 646 182 714 q 103 417 103 578 q 182 119 103 256 q 397 -96 261 -17 q 694 -175 533 -175 q 992 -96 856 -175 q 1207 119 1128 -17 q 1286 417 1286 256 q 1207 714 1286 578 q 992 929 1128 850 q 694 1008 856 1008 q 397 929 533 1008 q 182 714 261 850 z "},"n":{"ha":1389,"x_min":19,"x_max":1369,"o":"m 1053 499 q 1061 178 1125 351 q 854 -54 1004 25 q 808 -65 833 -65 q 768 -61 782 -65 q 722 -46 754 -57 q 667 -46 692 -35 q 483 -25 569 -87 q 324 188 371 57 q 314 447 276 319 q 435 598 349 560 q 628 586 521 636 q 669 565 636 581 l 654 640 q 458 749 514 660 q 428 882 424 806 q 572 842 519 879 q 657 718 624 806 q 665 739 665 739 q 733 827 683 792 q 838 860 783 863 q 847 857 842 860 q 857 849 851 854 q 865 842 863 843 q 858 832 863 839 q 851 822 854 825 q 843 818 847 818 q 726 758 765 813 q 704 615 688 704 q 715 565 704 611 q 811 604 806 603 q 953 599 889 626 q 1053 499 1017 572 m 569 289 q 581 261 569 272 q 608 250 592 250 q 636 261 625 250 q 647 289 647 272 l 647 446 q 636 474 647 463 q 608 485 625 485 q 581 474 592 485 q 569 446 569 463 l 569 436 q 550 424 561 426 q 503 433 529 417 q 496 435 500 435 q 483 422 483 435 q 490 411 483 414 q 557 399 526 389 q 569 403 564 400 l 569 289 m 634 147 q 645 133 634 147 q 694 119 656 119 q 753 147 732 119 q 781 204 775 174 l 754 208 q 749 190 753 201 q 731 163 746 179 q 694 146 715 146 q 656 163 672 146 q 637 190 640 179 q 632 208 633 201 l 607 204 q 634 147 613 175 m 892 411 q 899 422 899 414 q 885 435 899 435 q 879 433 882 435 q 832 424 851 417 q 813 436 821 426 l 813 446 q 801 474 813 463 q 774 485 790 485 q 746 474 757 485 q 735 446 735 463 l 735 289 q 746 261 735 272 q 774 250 757 250 q 801 261 790 250 q 813 289 813 272 l 813 403 q 824 399 818 400 q 892 411 856 389 m 74 155 q 48 217 74 155 q 21 417 21 279 q 74 678 21 554 q 218 893 128 803 q 433 1037 308 983 q 694 1090 557 1090 q 956 1037 832 1090 q 1171 893 1081 983 q 1315 678 1261 803 q 1368 417 1368 554 q 1315 155 1368 279 q 1171 -60 1261 31 q 956 -203 1081 -150 q 694 -257 832 -257 q 433 -203 557 -257 q 218 -60 308 -150 q 74 155 128 31 m 182 714 q 142 646 182 714 q 103 417 103 578 q 182 119 103 256 q 397 -96 261 -17 q 694 -175 533 -175 q 992 -96 856 -175 q 1207 119 1128 -17 q 1286 417 1286 256 q 1207 714 1286 578 q 992 929 1128 850 q 694 1008 856 1008 q 397 929 533 1008 q 182 714 261 850 z "},"o":{"ha":1389,"x_min":19,"x_max":1369,"o":"m 694 303 q 649 324 667 304 q 569 504 569 403 q 614 625 571 564 q 646 668 626 642 q 694 751 679 713 q 743 668 710 713 q 775 625 763 642 q 818 504 818 564 q 740 324 819 403 q 694 303 722 304 m 138 354 q 165 349 151 350 q 195 351 179 349 q 221 354 211 353 q 249 360 231 356 q 275 365 268 364 q 368 378 338 379 q 428 360 400 376 q 569 301 494 318 q 572 299 571 300 q 560 293 565 297 q 508 261 515 267 q 413 219 468 225 q 215 263 304 206 q 140 347 167 294 q 138 354 139 349 m 1251 354 q 1249 347 1249 347 q 1174 263 1224 294 q 976 219 1085 206 q 881 261 921 225 q 829 293 874 267 q 817 299 824 297 q 819 301 818 300 q 961 360 894 318 q 1021 378 989 376 q 1114 365 1051 379 q 1140 360 1121 364 q 1168 354 1158 356 q 1194 351 1178 353 q 1224 349 1210 349 q 1251 354 1238 350 m 629 310 q 538 324 590 307 q 413 386 471 346 q 340 474 367 415 q 317 621 307 549 q 319 632 317 624 q 321 638 319 632 q 332 625 329 628 q 457 546 383 568 q 465 536 464 543 q 567 347 471 419 q 618 315 571 344 q 624 312 621 314 q 629 310 628 310 m 760 310 q 765 312 761 310 q 771 315 768 314 q 822 347 818 344 q 924 536 918 419 q 932 546 925 543 q 1057 625 1006 568 q 1068 638 1060 628 q 1069 632 1069 632 q 1072 621 1072 624 q 1049 474 1082 549 q 976 386 1022 415 q 851 324 918 346 q 760 310 799 307 m 694 82 q 619 149 629 140 q 596 183 606 164 q 607 246 579 217 q 694 283 643 283 q 782 246 746 283 q 793 183 810 217 q 769 149 783 164 q 694 82 761 140 m 499 679 q 594 619 531 644 q 558 465 547 546 q 631 326 571 388 l 629 324 q 588 349 599 342 q 486 486 508 401 q 488 638 468 554 q 491 650 489 643 q 495 665 493 657 q 499 679 497 674 m 890 679 q 894 661 890 676 q 901 638 899 646 q 903 486 921 554 q 801 349 881 401 q 760 324 790 342 l 758 326 q 831 465 818 388 q 794 619 842 546 q 890 679 858 644 m 388 156 q 444 190 440 188 q 463 205 453 197 q 483 222 472 213 q 501 238 494 232 q 599 290 551 279 q 633 294 615 294 q 656 293 644 294 q 658 292 657 292 q 628 276 629 278 q 603 260 614 269 q 575 207 576 240 q 565 179 574 192 q 488 119 536 128 q 407 142 450 114 q 388 156 404 143 m 1001 156 q 982 142 985 143 q 901 119 939 114 q 824 179 853 128 q 814 207 815 192 q 786 260 813 240 q 761 276 775 269 q 731 292 760 278 q 733 293 732 292 q 756 294 744 294 q 790 290 774 294 q 888 238 838 279 q 912 217 890 236 q 944 190 933 199 q 1001 156 949 188 m 379 393 q 313 386 317 386 q 244 407 271 378 q 211 538 200 458 q 231 517 219 526 q 252 502 243 507 q 277 489 261 497 q 300 476 293 481 q 349 432 329 460 q 359 419 354 425 q 370 405 364 413 q 379 393 376 397 m 1010 393 q 1022 408 1010 393 q 1040 432 1033 424 q 1089 476 1058 460 q 1112 489 1096 481 q 1136 502 1128 497 q 1156 517 1144 507 q 1176 538 1168 526 q 1143 407 1188 458 q 1076 386 1118 378 q 1010 393 1072 386 m 74 155 q 48 217 74 155 q 21 417 21 279 q 74 678 21 554 q 218 893 128 803 q 433 1037 308 983 q 694 1090 557 1090 q 956 1037 832 1090 q 1171 893 1081 983 q 1315 678 1261 803 q 1368 417 1368 554 q 1315 155 1368 279 q 1171 -60 1261 31 q 956 -203 1081 -150 q 694 -257 832 -257 q 433 -203 557 -257 q 218 -60 308 -150 q 74 155 128 31 m 182 714 q 142 646 182 714 q 103 417 103 578 q 182 119 103 256 q 397 -96 261 -17 q 694 -175 533 -175 q 992 -96 856 -175 q 1207 119 1128 -17 q 1286 417 1286 256 q 1207 714 1286 578 q 992 929 1128 850 q 694 1008 856 1008 q 397 929 533 1008 q 182 714 261 850 z "},"p":{"ha":1389,"x_min":19,"x_max":1369,"o":"m 567 336 l 607 304 l 690 239 l 650 206 l 565 272 l 525 304 l 435 376 l 475 408 l 567 336 m 742 199 l 697 164 l 660 133 q 561 96 613 96 q 538 99 549 96 q 478 143 497 107 q 473 221 461 181 q 517 294 485 261 l 556 264 q 523 213 533 242 q 522 165 513 183 q 547 147 531 150 q 629 174 586 139 l 657 194 l 700 231 l 785 297 l 826 265 l 742 199 m 1165 511 q 1208 472 1192 497 q 1225 418 1225 447 q 1208 365 1225 390 q 1163 326 1192 340 q 1024 343 1094 292 l 982 376 l 1022 408 q 1054 383 1054 383 q 1140 372 1099 350 q 1174 418 1174 389 q 1142 465 1174 450 q 1054 449 1103 485 l 1013 417 l 972 385 l 886 314 l 886 315 l 846 347 l 932 417 l 972 449 q 1024 489 996 468 q 1165 511 1097 544 m 876 307 q 925 244 911 276 q 935 201 935 224 q 924 157 935 178 q 865 106 907 117 q 740 136 807 90 l 711 158 l 751 190 l 768 176 q 851 154 817 144 q 878 178 871 160 q 836 275 900 224 l 796 306 q 710 374 763 332 l 750 407 q 836 339 807 361 l 876 307 m 553 485 l 465 417 l 424 385 l 354 331 q 229 313 290 282 q 183 356 201 326 q 164 416 164 385 q 183 476 164 447 q 231 521 201 506 q 281 533 254 533 q 339 515 313 533 l 414 456 l 374 424 l 310 474 q 281 483 297 483 q 254 476 267 483 q 226 450 238 467 q 215 416 215 433 q 226 382 215 399 q 251 357 236 365 q 324 371 285 342 l 374 408 l 444 464 l 443 464 l 513 517 l 553 485 m 782 519 l 822 488 q 746 422 775 446 l 689 374 l 690 374 q 617 313 647 336 l 576 344 q 661 414 608 369 l 660 414 l 700 447 q 782 519 761 500 m 700 664 l 701 663 q 725 683 722 681 q 801 728 763 715 q 922 699 875 751 q 943 646 943 675 q 943 639 943 642 q 881 538 939 592 l 840 569 q 892 643 890 614 q 892 646 892 644 q 885 665 892 657 q 817 679 860 693 q 758 644 788 669 l 694 594 l 615 532 l 575 565 l 654 626 l 700 664 m 871 529 l 961 457 l 922 425 l 838 492 l 785 532 l 711 592 l 751 624 l 831 561 l 871 529 m 610 519 l 690 456 l 650 422 l 524 525 q 483 576 500 546 q 465 639 465 607 q 465 640 465 640 q 500 714 465 685 q 604 728 544 751 q 686 675 633 717 l 690 672 l 650 639 q 561 686 589 686 q 533 675 544 686 q 515 640 515 663 q 515 639 515 639 q 526 601 515 622 q 557 564 538 579 l 610 519 m 74 155 q 48 217 74 155 q 21 417 21 279 q 74 678 21 554 q 218 893 128 803 q 433 1037 308 983 q 694 1090 557 1090 q 956 1037 832 1090 q 1171 893 1081 983 q 1315 678 1261 803 q 1368 417 1368 554 q 1315 155 1368 279 q 1171 -60 1261 31 q 956 -203 1081 -150 q 694 -257 832 -257 q 433 -203 557 -257 q 218 -60 308 -150 q 74 155 128 31 m 182 714 q 142 646 182 714 q 103 417 103 578 q 182 119 103 256 q 397 -96 261 -17 q 694 -175 533 -175 q 992 -96 856 -175 q 1207 119 1128 -17 q 1286 417 1286 256 q 1207 714 1286 578 q 992 929 1128 850 q 694 1008 856 1008 q 397 929 533 1008 q 182 714 261 850 z "},"q":{"ha":1389,"x_min":19,"x_max":1369,"o":"m 356 417 l 356 497 l 443 497 l 443 417 l 356 417 m 897 497 l 897 417 l 526 417 q 528 497 528 464 l 897 497 m 517 579 q 458 26 519 194 l 338 26 q 421 406 403 203 l 454 406 l 454 508 l 426 508 q 428 579 428 535 l 517 579 m 1035 417 l 975 417 q 969 497 971 456 l 1035 497 l 1035 417 m 1047 26 l 926 28 q 869 406 878 161 l 908 406 l 908 508 l 868 508 l 868 579 l 958 579 q 1047 26 958 269 m 364 590 l 364 613 l 1017 613 l 1017 590 l 364 590 m 1013 621 l 376 621 q 310 660 332 621 q 288 753 288 699 q 323 733 299 742 q 367 724 347 724 l 1022 724 q 1066 733 1042 724 q 1101 753 1090 742 q 1079 660 1101 699 q 1013 621 1057 621 m 649 504 l 649 583 l 738 583 l 738 504 l 649 504 m 74 155 q 48 217 74 155 q 21 417 21 279 q 74 678 21 554 q 218 893 128 803 q 433 1037 308 983 q 694 1090 557 1090 q 956 1037 832 1090 q 1171 893 1081 983 q 1315 678 1261 803 q 1368 417 1368 554 q 1315 155 1368 279 q 1171 -60 1261 31 q 956 -203 1081 -150 q 694 -257 832 -257 q 433 -203 557 -257 q 218 -60 308 -150 q 74 155 128 31 m 182 714 q 142 646 182 714 q 103 417 103 578 q 182 119 103 256 q 397 -96 261 -17 q 694 -175 533 -175 q 992 -96 856 -175 q 1207 119 1128 -17 q 1286 417 1286 256 q 1207 714 1286 578 q 992 929 1128 850 q 694 1008 856 1008 q 397 929 533 1008 q 182 714 261 850 z "},"r":{"ha":1389,"x_min":19,"x_max":1369,"o":"m 74 155 q 48 217 74 155 q 21 417 21 279 q 74 678 21 554 q 218 893 128 803 q 433 1037 308 983 q 694 1090 557 1090 q 956 1037 832 1090 q 1171 893 1081 983 q 1315 678 1261 803 q 1368 417 1368 554 q 1315 155 1368 279 q 1171 -60 1261 31 q 956 -203 1081 -150 q 694 -257 832 -257 q 433 -203 557 -257 q 218 -60 308 -150 q 74 155 128 31 m 182 714 q 142 646 182 714 q 103 417 103 578 q 182 119 103 256 q 397 -96 261 -17 q 694 -175 533 -175 q 992 -96 856 -175 q 1207 119 1128 -17 q 1286 417 1286 256 q 1207 714 1286 578 q 992 929 1128 850 q 694 1008 856 1008 q 397 929 533 1008 q 182 714 261 850 m 364 511 q 467 760 364 657 q 717 864 571 864 q 966 760 863 864 q 1069 511 1069 657 q 1035 358 1069 429 q 940 238 1001 288 l 549 238 q 520 242 532 238 q 504 251 508 247 q 500 258 500 256 q 503 272 500 269 q 526 281 507 275 q 593 292 567 292 l 621 292 q 678 302 654 292 q 710 328 701 313 q 723 356 719 344 q 726 379 726 368 q 606 475 726 475 l 365 475 q 364 511 364 494 m 119 454 l 606 454 q 682 436 658 454 q 706 379 706 418 q 703 360 706 369 q 692 338 700 350 q 665 319 683 326 q 621 313 647 313 l 590 313 q 606 332 600 321 l 621 332 q 660 346 646 332 q 675 379 675 360 q 599 433 675 433 l 119 433 l 119 454 m 1221 197 l 549 197 q 456 258 456 197 q 465 292 456 279 q 485 310 475 306 q 513 319 494 314 l 526 322 q 561 360 561 333 q 560 370 561 364 q 547 385 558 376 q 518 393 536 393 l 115 393 l 115 413 l 524 413 q 561 406 546 413 q 583 390 576 400 q 591 374 589 381 q 593 360 593 367 q 577 327 593 342 q 533 304 561 313 l 521 300 q 488 285 497 293 q 479 258 479 278 q 497 231 479 244 q 549 217 514 217 l 1231 217 l 1221 197 m 1196 136 l 1186 117 l 415 117 q 375 118 392 117 q 333 126 358 119 q 292 149 307 132 q 274 194 276 167 q 274 204 274 197 q 374 299 274 282 q 361 285 367 292 q 296 208 296 258 q 296 201 296 204 q 432 136 303 135 l 1196 136 m 1214 178 l 1204 157 l 472 157 q 401 173 429 157 q 365 215 372 189 q 406 300 351 263 q 421 333 428 315 q 390 353 415 353 l 118 353 l 118 374 l 396 374 q 456 340 447 374 q 425 289 464 311 q 394 258 404 276 q 389 221 383 239 q 472 178 400 178 l 1214 178 z "},"s":{"ha":1389,"x_min":19,"x_max":1369,"o":"m 953 86 q 882 -29 986 3 q 793 -50 839 -43 q 694 -58 729 -58 q 596 -50 660 -58 q 507 -29 550 -43 q 436 86 403 3 q 475 160 449 115 q 514 240 501 204 q 525 319 525 275 q 514 399 525 364 q 606 506 486 488 q 694 513 650 513 q 783 506 739 513 q 875 399 903 488 q 864 319 864 364 q 875 240 864 275 q 914 160 888 204 q 953 86 940 115 m 606 243 q 614 224 606 232 q 634 215 622 215 q 654 224 646 215 q 663 243 663 232 l 663 357 q 663 360 663 358 q 654 379 663 371 q 634 388 646 388 q 614 379 622 388 q 606 360 606 371 q 606 357 606 358 l 606 350 q 592 340 600 343 q 558 347 578 336 q 553 349 556 349 q 544 340 544 349 q 549 332 544 335 q 597 322 575 315 q 606 326 603 324 l 606 243 m 653 140 q 661 131 653 140 q 697 121 669 121 q 740 140 724 121 q 760 182 756 160 l 740 185 q 738 172 740 179 q 724 151 735 164 q 697 139 713 139 q 669 151 681 139 q 656 172 658 164 q 651 185 653 181 l 633 182 q 653 140 638 160 m 840 332 q 844 340 844 335 q 836 349 844 349 q 831 347 833 349 q 797 340 811 336 q 783 350 789 343 l 783 357 q 775 378 783 369 q 755 386 767 386 q 735 378 743 386 q 726 357 726 369 l 726 243 q 735 224 726 232 q 755 215 743 215 q 775 224 767 215 q 783 243 783 232 l 783 326 q 792 322 786 324 q 840 332 814 315 m 933 518 q 694 540 831 540 q 457 518 558 540 q 394 501 425 513 q 383 499 392 501 q 304 456 306 476 q 479 389 303 422 q 506 381 499 386 q 511 365 513 376 q 503 357 511 357 q 501 357 501 357 q 472 363 486 360 q 445 368 457 365 q 429 371 433 371 q 286 403 351 385 q 214 438 247 414 q 174 485 181 463 q 182 549 165 510 q 242 613 199 588 q 351 681 274 631 q 472 754 429 731 q 694 818 592 818 q 917 754 797 818 q 1038 681 960 731 q 1149 613 1115 631 q 1207 549 1190 588 q 1217 485 1224 510 q 1176 438 1208 463 q 1103 403 1143 414 q 960 371 1036 385 q 944 368 957 371 q 917 363 932 365 q 888 357 903 360 q 886 357 888 357 q 878 365 878 357 q 883 381 876 376 q 910 389 890 386 q 1011 497 1196 443 q 994 503 997 501 q 933 518 964 513 m 74 155 q 48 217 74 155 q 21 417 21 279 q 74 678 21 554 q 218 893 128 803 q 433 1037 308 983 q 694 1090 557 1090 q 956 1037 832 1090 q 1171 893 1081 983 q 1315 678 1261 803 q 1368 417 1368 554 q 1315 155 1368 279 q 1171 -60 1261 31 q 956 -203 1081 -150 q 694 -257 832 -257 q 433 -203 557 -257 q 218 -60 308 -150 q 74 155 128 31 m 182 714 q 142 646 182 714 q 103 417 103 578 q 182 119 103 256 q 397 -96 261 -17 q 694 -175 533 -175 q 992 -96 856 -175 q 1207 119 1128 -17 q 1286 417 1286 256 q 1207 714 1286 578 q 992 929 1128 850 q 694 1008 856 1008 q 397 929 533 1008 q 182 714 261 850 z "},"t":{"ha":1389,"x_min":19,"x_max":1369,"o":"m 1247 418 q 1247 417 1247 418 q 1247 415 1247 415 q 1217 397 1221 399 q 1192 390 1197 394 q 1186 367 1188 386 q 1157 294 1183 326 q 1092 253 1131 263 q 965 272 1032 239 q 959 274 964 274 q 951 276 954 275 q 939 283 940 281 q 890 318 926 317 q 886 317 889 318 q 882 315 883 315 q 863 313 868 311 q 836 329 849 319 q 829 331 832 331 q 825 331 826 331 q 821 325 825 331 q 815 332 815 332 q 786 354 804 354 q 785 354 786 354 q 774 357 779 354 q 751 363 764 363 q 749 363 750 363 q 749 360 749 361 q 754 338 749 347 q 757 326 757 332 q 757 325 757 325 q 779 296 757 307 q 786 290 779 296 q 781 286 781 286 q 781 282 781 285 q 782 275 781 279 q 799 249 792 263 q 796 229 800 243 q 794 225 796 228 q 793 221 793 222 q 828 172 794 185 q 835 160 831 171 q 837 153 836 158 q 839 146 838 147 q 858 19 872 79 q 817 -46 849 -19 q 744 -75 785 -72 q 721 -81 725 -76 q 714 -106 717 -86 q 696 -136 713 -110 q 694 -136 696 -136 q 693 -136 693 -136 q 675 -106 676 -110 q 668 -81 672 -86 q 644 -75 664 -76 q 572 -46 604 -72 q 531 19 540 -19 q 550 146 517 79 q 552 152 551 147 q 554 160 553 157 q 561 172 558 171 q 596 221 594 185 q 594 225 596 222 q 593 229 593 228 q 590 249 589 243 q 607 275 597 263 q 608 282 608 279 q 608 286 608 285 q 603 290 608 286 q 610 296 610 296 q 632 325 632 307 q 632 326 632 325 q 635 338 632 332 q 640 360 640 347 q 640 363 640 361 q 638 363 639 363 q 615 357 625 363 q 604 354 610 354 q 603 354 603 354 q 574 332 585 354 q 568 325 574 332 q 564 331 564 331 q 560 331 563 331 q 553 329 557 331 q 526 313 540 319 q 507 315 521 311 q 503 317 506 315 q 499 318 500 318 q 450 283 463 317 q 438 276 449 281 q 431 274 436 275 q 424 272 425 274 q 297 253 357 239 q 232 294 258 263 q 203 367 206 326 q 197 390 201 386 q 172 397 192 394 q 142 415 168 399 q 142 417 142 415 q 142 418 142 418 q 172 436 168 435 q 197 443 192 439 q 203 467 201 447 q 232 539 206 507 q 297 581 258 571 q 424 561 357 594 q 430 559 425 560 q 438 557 435 558 q 450 550 449 553 q 499 515 463 517 q 503 517 500 515 q 507 518 506 518 q 526 521 521 522 q 553 504 540 514 q 560 503 557 503 q 564 503 563 503 q 568 508 564 503 q 574 501 574 501 q 603 479 585 479 q 604 479 603 479 q 615 476 610 479 q 638 471 625 471 q 640 471 639 471 q 640 474 640 472 q 635 496 640 486 q 632 507 632 501 q 632 508 632 508 q 610 538 632 526 q 603 543 610 538 q 608 547 608 547 q 608 551 608 549 q 607 558 608 554 q 590 585 597 571 q 593 604 589 590 q 594 608 593 606 q 596 613 596 611 q 561 661 594 649 q 554 674 558 663 q 552 681 553 675 q 550 688 551 686 q 531 814 517 754 q 572 879 540 853 q 644 908 604 906 q 668 915 664 910 q 675 939 672 919 q 693 969 676 943 q 694 969 693 969 q 696 969 696 969 q 714 939 713 943 q 721 915 717 919 q 744 908 725 910 q 817 879 785 906 q 858 814 849 853 q 839 688 872 754 q 837 681 838 686 q 835 674 836 676 q 828 661 831 663 q 793 613 794 649 q 794 608 793 611 q 796 604 796 606 q 799 585 800 590 q 782 558 792 571 q 781 551 781 554 q 781 547 781 549 q 786 543 781 547 q 779 538 779 538 q 757 508 757 526 q 757 507 757 508 q 754 496 757 501 q 749 474 749 486 q 749 471 749 472 q 751 471 750 471 q 774 476 764 471 q 785 479 779 479 q 786 479 786 479 q 815 501 804 479 q 821 508 815 501 q 825 503 825 503 q 829 503 826 503 q 836 504 832 503 q 863 521 849 514 q 882 518 868 522 q 886 517 883 518 q 890 515 889 515 q 939 550 926 517 q 951 557 940 553 q 958 559 953 558 q 965 561 964 560 q 1092 581 1032 594 q 1157 539 1131 571 q 1186 467 1183 507 q 1192 443 1188 447 q 1217 436 1197 439 q 1247 418 1221 435 m 489 383 q 494 386 492 383 q 497 388 497 388 q 489 393 490 393 q 442 390 465 393 q 403 383 428 388 q 371 378 378 379 q 360 376 365 376 q 350 378 356 376 q 278 392 279 394 q 229 389 240 389 q 226 385 228 389 q 225 381 224 382 q 304 329 256 332 q 419 361 354 325 q 489 383 457 382 m 489 440 q 497 446 489 440 q 489 450 490 450 q 419 472 457 451 q 304 504 356 508 q 225 453 256 501 q 226 448 224 451 q 229 444 228 444 q 278 442 240 443 q 350 456 279 439 q 360 457 356 457 q 371 456 365 457 q 403 449 379 454 q 442 443 428 444 q 489 440 465 440 m 733 761 q 735 751 735 756 q 733 740 735 746 q 727 708 732 732 q 721 669 722 683 q 718 622 718 646 q 724 614 718 621 q 728 622 728 621 q 750 692 729 654 q 782 807 786 756 q 731 886 779 856 q 726 885 729 888 q 722 882 722 883 q 719 833 722 871 q 733 761 717 832 m 639 692 q 661 622 660 654 q 665 614 661 621 q 671 622 671 621 q 668 669 671 646 q 662 708 667 683 q 656 740 657 733 q 654 751 654 746 q 656 761 654 756 q 669 833 672 832 q 667 882 668 871 q 663 885 667 883 q 658 886 660 888 q 607 807 610 856 q 639 692 603 757 m 656 72 q 654 82 654 78 q 656 93 654 88 q 662 126 657 101 q 668 164 667 150 q 671 211 671 188 q 665 219 671 213 q 661 211 661 213 q 639 142 660 179 q 607 26 603 78 q 658 -53 610 -22 q 663 -52 660 -54 q 667 -49 667 -50 q 669 0 668 -37 q 656 72 672 1 m 750 142 q 728 211 729 179 q 724 219 728 213 q 718 211 718 213 q 721 164 718 188 q 727 125 722 150 q 733 93 732 100 q 735 83 735 88 q 733 72 735 78 q 719 0 717 1 q 722 -49 721 -37 q 726 -52 722 -50 q 731 -53 729 -54 q 782 26 779 -22 q 750 142 786 76 m 653 376 q 662 367 653 376 q 694 358 671 358 q 735 376 718 358 q 753 417 753 393 q 735 458 753 440 q 694 475 718 475 q 653 458 671 475 q 636 417 636 440 q 653 376 636 393 m 1164 381 q 1163 385 1165 382 q 1160 389 1161 389 q 1111 392 1149 390 q 1039 378 1110 394 q 1028 376 1033 376 q 1018 378 1024 376 q 985 384 1010 379 q 947 390 961 389 q 900 393 924 393 q 892 388 899 393 q 900 383 899 383 q 969 361 932 382 q 1085 329 1033 325 q 1164 381 1133 332 m 1160 444 q 1163 448 1161 444 q 1164 453 1165 451 q 1085 506 1133 501 q 969 472 1035 508 q 900 450 932 451 q 892 446 899 450 q 900 440 899 440 q 947 443 924 440 q 986 450 961 446 q 1018 456 1011 454 q 1028 457 1024 457 q 1039 456 1033 457 q 1111 442 1110 440 q 1160 444 1149 444 m 664 386 q 658 392 664 386 q 651 417 651 399 q 664 447 651 435 q 694 460 676 460 q 725 447 713 460 q 738 417 738 435 q 725 386 738 399 q 694 374 713 374 q 664 386 676 374 m 74 155 q 48 217 74 155 q 21 417 21 279 q 74 678 21 554 q 218 893 128 803 q 433 1037 308 983 q 694 1090 557 1090 q 956 1037 832 1090 q 1171 893 1081 983 q 1315 678 1261 803 q 1368 417 1368 554 q 1315 155 1368 279 q 1171 -60 1261 31 q 956 -203 1081 -150 q 694 -257 832 -257 q 433 -203 557 -257 q 218 -60 308 -150 q 74 155 128 31 m 182 714 q 142 646 182 714 q 103 417 103 578 q 182 119 103 256 q 397 -96 261 -17 q 694 -175 533 -175 q 992 -96 856 -175 q 1207 119 1128 -17 q 1286 417 1286 256 q 1207 714 1286 578 q 992 929 1128 850 q 694 1008 856 1008 q 397 929 533 1008 q 182 714 261 850 z "},"u":{"ha":1389,"x_min":19,"x_max":1369,"o":"m 329 744 q 333 778 321 765 q 367 782 346 790 q 399 749 390 774 q 407 736 401 742 q 460 706 421 721 q 461 706 460 706 q 467 708 464 706 q 647 783 547 769 q 658 792 656 783 q 672 846 671 824 q 672 847 672 847 q 669 860 672 853 q 663 885 663 871 q 667 907 663 896 q 693 928 675 926 l 696 928 q 721 907 714 926 q 726 885 726 896 q 719 860 726 871 q 717 847 717 853 l 717 846 q 731 792 718 824 q 742 783 733 783 q 922 708 842 769 q 928 706 924 706 q 929 706 928 706 q 982 736 968 722 q 990 749 988 742 q 1022 782 999 774 q 1056 778 1043 790 q 1060 744 1068 765 q 1026 713 1051 721 q 1014 704 1019 710 q 983 651 999 690 q 983 650 983 651 q 986 644 983 647 q 1060 464 1047 564 q 1069 453 1061 456 q 1124 439 1101 440 q 1125 439 1124 439 q 1138 442 1131 439 q 1163 449 1149 449 q 1185 444 1174 449 q 1206 418 1204 436 l 1206 415 q 1185 390 1204 397 q 1163 385 1174 385 q 1138 392 1149 385 q 1125 394 1131 394 l 1124 394 q 1069 381 1101 393 q 1060 369 1061 378 q 986 189 1047 269 q 983 183 983 188 q 983 182 983 183 q 1014 129 1000 143 q 1026 121 1019 124 q 1060 89 1051 113 q 1056 56 1068 68 q 1022 51 1043 43 q 990 85 999 60 q 982 97 988 92 q 929 128 968 113 q 928 128 928 128 q 922 125 924 128 q 742 51 842 64 q 731 42 733 50 q 717 -12 718 10 q 717 -14 717 -12 q 719 -26 717 -19 q 726 -51 726 -37 q 721 -74 726 -62 q 696 -94 714 -93 l 693 -94 q 667 -74 675 -93 q 663 -51 663 -62 q 669 -26 663 -37 q 672 -14 672 -19 l 672 -12 q 658 42 671 10 q 647 51 656 50 q 467 125 547 64 q 461 128 464 128 q 460 128 460 128 q 407 97 421 111 q 399 85 401 92 q 367 51 390 60 q 333 56 346 43 q 329 89 321 68 q 363 121 338 113 q 375 129 369 124 q 406 182 390 143 q 406 183 406 183 q 403 189 406 188 q 328 369 342 269 q 319 381 328 378 q 265 394 288 393 q 264 394 264 394 q 251 392 258 394 q 226 385 240 385 q 204 390 215 385 q 183 415 185 397 l 183 418 q 204 444 185 436 q 226 449 215 449 q 251 442 240 449 q 264 439 258 439 l 265 439 q 319 453 288 440 q 328 464 328 456 q 403 644 342 564 q 406 650 406 647 q 406 651 406 651 q 375 704 389 690 q 363 713 369 710 q 329 744 338 721 m 671 539 q 656 614 668 586 q 657 642 650 625 q 669 688 660 650 q 664 694 672 696 q 519 635 583 686 q 521 625 513 629 q 564 601 560 603 q 582 585 578 594 q 625 518 597 547 q 639 517 631 513 q 662 526 650 522 q 671 539 674 529 m 572 393 q 497 378 525 390 q 469 379 486 372 q 424 392 461 382 q 417 386 415 394 q 476 242 425 306 q 486 243 482 235 q 510 286 508 282 q 526 304 517 300 q 593 347 564 319 q 594 361 599 353 q 585 384 589 372 q 572 393 582 396 m 718 294 q 733 219 721 247 q 732 192 739 208 q 719 146 729 183 q 725 139 717 138 q 869 199 806 147 q 868 208 876 204 q 825 232 835 226 q 807 249 811 239 q 764 315 792 286 q 750 317 758 321 q 727 308 739 311 q 718 294 715 304 m 817 440 q 892 456 864 443 q 919 454 903 461 q 965 442 928 451 q 972 447 974 439 q 913 592 964 528 q 903 590 907 599 q 879 547 885 557 q 863 529 872 533 q 796 486 825 514 q 794 472 790 481 q 803 449 800 461 q 817 440 807 438 m 728 526 q 751 517 740 524 q 764 518 758 513 q 807 585 792 547 q 825 601 811 596 q 868 625 836 607 q 869 636 876 631 q 725 694 806 686 q 719 689 718 696 q 733 642 728 654 q 733 614 739 625 q 718 539 721 586 q 728 526 714 529 m 585 450 q 594 474 588 463 q 593 486 599 481 q 526 529 564 514 q 510 547 515 533 q 486 590 504 558 q 475 592 481 599 q 417 447 425 528 q 422 442 415 440 q 469 456 457 450 q 497 456 486 461 q 572 440 525 443 q 585 450 582 436 m 661 307 q 638 317 649 310 q 625 315 631 321 q 582 249 597 286 q 564 232 578 238 q 521 208 553 226 q 519 197 513 203 q 664 139 583 147 q 669 144 671 138 q 656 192 660 181 q 656 219 650 208 q 671 294 668 247 q 661 307 675 304 m 804 383 q 794 360 801 371 q 796 347 790 353 q 863 304 825 319 q 879 286 874 300 q 903 243 885 275 q 914 242 908 235 q 972 386 964 306 q 967 392 974 393 q 919 378 931 382 q 892 378 903 372 q 817 393 864 390 q 804 383 807 397 m 74 155 q 48 217 74 155 q 21 417 21 279 q 74 678 21 554 q 218 893 128 803 q 433 1037 308 983 q 694 1090 557 1090 q 956 1037 832 1090 q 1171 893 1081 983 q 1315 678 1261 803 q 1368 417 1368 554 q 1315 155 1368 279 q 1171 -60 1261 31 q 956 -203 1081 -150 q 694 -257 832 -257 q 433 -203 557 -257 q 218 -60 308 -150 q 74 155 128 31 m 182 714 q 142 646 182 714 q 103 417 103 578 q 182 119 103 256 q 397 -96 261 -17 q 694 -175 533 -175 q 992 -96 856 -175 q 1207 119 1128 -17 q 1286 417 1286 256 q 1207 714 1286 578 q 992 929 1128 850 q 694 1008 856 1008 q 397 929 533 1008 q 182 714 261 850 z "},"v":{"ha":1389,"x_min":19,"x_max":1369,"o":"m 929 254 q 947 197 911 215 q 968 190 953 194 q 990 182 983 186 q 1015 156 1015 168 q 993 128 1015 142 q 956 117 983 121 q 694 100 826 100 q 419 119 558 100 q 392 133 410 121 q 374 154 375 146 q 373 163 374 160 q 376 169 372 165 q 380 174 379 172 q 386 178 381 175 q 393 181 392 181 q 401 183 394 182 q 408 186 407 185 q 447 201 439 196 q 458 253 476 218 q 279 289 339 207 q 256 370 254 324 q 288 450 258 417 q 362 492 317 485 q 453 478 407 499 q 547 599 458 576 q 692 544 636 621 q 790 604 733 597 q 889 576 846 611 q 940 482 932 542 q 1113 435 1063 515 q 1133 354 1136 399 q 1101 278 1129 310 q 929 254 1036 206 m 696 383 q 637 340 661 350 q 564 329 613 331 q 514 308 529 329 q 508 254 499 288 q 565 190 521 208 q 815 186 689 136 q 864 222 844 199 q 878 301 897 261 q 814 329 864 331 q 696 383 739 329 m 301 360 q 322 306 300 331 q 374 279 344 281 q 444 302 418 276 q 469 361 469 328 q 390 449 471 443 q 329 426 354 450 q 301 360 304 401 m 665 474 q 641 534 665 508 q 585 560 617 560 q 524 533 551 560 q 496 474 496 506 q 523 416 496 442 q 583 390 550 390 q 641 414 617 389 q 665 474 665 439 m 1004 449 l 1003 449 q 944 424 969 449 q 919 366 919 400 q 943 306 918 332 q 1003 281 968 281 q 1062 305 1038 281 q 1086 364 1086 329 q 1062 423 1086 399 q 1004 449 1038 447 m 806 557 q 746 533 771 557 q 721 474 721 508 q 746 414 721 439 q 806 389 771 389 q 808 390 807 389 q 865 415 842 390 q 890 472 889 439 q 890 474 890 474 q 865 533 890 508 q 807 557 840 557 l 806 557 m 515 806 l 586 625 l 524 613 l 510 804 l 515 806 m 878 807 l 864 614 l 803 625 l 874 807 l 878 807 m 1133 671 l 1083 494 l 1025 514 l 1129 672 l 1133 671 m 310 493 l 261 664 l 267 667 l 368 513 l 310 493 m 74 155 q 48 217 74 155 q 21 417 21 279 q 74 678 21 554 q 218 893 128 803 q 433 1037 308 983 q 694 1090 557 1090 q 956 1037 832 1090 q 1171 893 1081 983 q 1315 678 1261 803 q 1368 417 1368 554 q 1315 155 1368 279 q 1171 -60 1261 31 q 956 -203 1081 -150 q 694 -257 832 -257 q 433 -203 557 -257 q 218 -60 308 -150 q 74 155 128 31 m 182 714 q 142 646 182 714 q 103 417 103 578 q 182 119 103 256 q 397 -96 261 -17 q 694 -175 533 -175 q 992 -96 856 -175 q 1207 119 1128 -17 q 1286 417 1286 256 q 1207 714 1286 578 q 992 929 1128 850 q 694 1008 856 1008 q 397 929 533 1008 q 182 714 261 850 z "},"w":{"ha":1389,"x_min":19,"x_max":1369,"o":"m 74 155 q 48 217 74 155 q 21 417 21 279 q 74 678 21 554 q 218 893 128 803 q 433 1037 308 983 q 694 1090 557 1090 q 956 1037 832 1090 q 1171 893 1081 983 q 1315 678 1261 803 q 1368 417 1368 554 q 1315 155 1368 279 q 1171 -60 1261 31 q 956 -203 1081 -150 q 694 -257 832 -257 q 433 -203 557 -257 q 218 -60 308 -150 q 74 155 128 31 m 182 714 q 142 646 182 714 q 103 417 103 578 q 182 119 103 256 q 397 -96 261 -17 q 694 -175 533 -175 q 992 -96 856 -175 q 1207 119 1128 -17 q 1286 417 1286 256 q 1207 714 1286 578 q 992 929 1128 850 q 694 1008 856 1008 q 397 929 533 1008 q 182 714 261 850 m 1013 678 q 1084 627 1032 668 q 1165 569 1136 586 q 1133 475 1151 539 q 1106 393 1115 411 q 1059 340 1090 360 q 990 321 1028 321 l 989 321 l 990 321 q 1043 217 1043 282 q 1042 194 1043 206 q 1015 112 1038 174 q 985 17 992 50 q 883 17 951 19 q 799 18 815 15 q 734 47 763 24 q 694 106 706 71 l 694 107 l 694 106 q 655 47 683 71 q 590 18 626 24 q 506 17 569 15 q 404 17 442 19 q 374 112 396 50 q 347 194 351 174 q 346 217 346 206 q 399 321 346 282 l 399 321 q 330 340 361 321 q 283 393 299 360 q 256 475 274 411 q 224 569 238 539 q 305 627 253 586 q 376 678 357 668 q 436 693 404 693 q 511 668 478 693 l 513 668 q 506 708 506 688 q 544 800 506 763 q 615 852 560 815 q 694 911 669 889 q 774 852 719 889 q 844 800 829 815 q 883 708 883 763 q 876 668 883 688 l 876 668 q 953 693 911 693 q 1013 678 985 693 m 1089 544 q 1038 580 1076 549 q 983 619 999 611 q 932 627 960 626 q 867 606 904 628 q 799 543 829 585 l 743 467 q 728 479 736 474 l 782 556 q 821 639 813 597 q 822 708 829 681 q 799 754 815 736 q 744 794 786 767 q 694 832 703 821 q 645 794 688 821 q 592 754 603 767 q 567 708 575 736 q 568 639 560 681 q 607 556 576 597 l 661 479 q 646 467 653 475 l 590 543 q 522 606 560 585 q 457 627 485 628 q 406 619 429 626 q 351 581 390 613 q 300 544 313 549 q 320 486 307 535 q 342 422 333 438 q 378 386 354 401 q 444 365 403 371 q 536 376 485 358 l 625 404 q 632 386 626 394 l 542 357 q 440 289 471 333 q 413 206 408 244 q 433 141 415 188 q 450 81 450 94 q 512 83 463 85 q 581 83 561 81 q 651 135 619 92 q 685 253 683 178 l 685 347 q 694 346 689 346 q 704 347 700 346 l 704 253 q 738 135 706 178 q 808 83 769 92 q 877 83 825 81 q 938 82 929 85 q 956 141 939 94 q 976 206 974 188 q 949 289 981 244 q 847 357 918 333 l 757 386 q 764 404 763 394 l 853 375 q 945 365 904 358 q 1010 386 986 371 q 1047 422 1035 401 q 1069 486 1056 438 q 1089 544 1082 535 m 740 462 q 749 452 740 462 q 758 417 758 443 q 740 372 758 390 q 694 353 721 353 q 649 372 668 353 q 631 417 631 390 q 649 462 631 443 q 694 481 668 481 q 740 462 721 481 m 706 486 q 694 488 700 488 q 683 486 689 488 l 682 589 q 694 601 682 601 q 707 589 707 601 l 706 486 m 632 449 q 628 438 629 443 q 625 428 626 433 l 528 458 q 518 471 518 460 q 531 483 518 483 q 535 482 533 483 l 632 449 m 644 367 q 653 360 649 363 q 663 354 657 357 l 604 271 q 593 264 600 264 q 581 276 581 264 q 583 285 581 282 l 644 367 m 726 354 q 736 360 732 357 q 744 367 740 363 l 806 285 q 808 278 808 282 q 796 265 808 265 q 785 271 789 265 l 726 354 m 764 428 q 761 438 763 433 q 757 449 760 443 l 854 482 q 858 482 856 482 q 871 469 871 482 q 863 458 871 461 l 764 428 m 369 690 q 360 685 365 688 q 374 723 364 694 q 392 774 385 751 q 404 817 400 796 q 543 817 422 815 q 536 810 539 813 q 501 758 514 788 q 446 760 458 756 q 431 706 446 747 q 369 690 399 704 m 335 192 q 336 182 335 188 q 304 207 329 188 q 260 240 279 226 q 224 264 242 254 q 240 305 232 283 q 256 358 247 326 q 267 397 264 389 q 271 386 269 390 q 311 339 286 358 q 292 286 299 296 q 338 254 304 282 q 333 214 333 235 q 335 192 333 203 m 797 6 q 807 4 800 4 q 774 -19 801 0 q 728 -51 746 -37 q 694 -78 710 -64 q 660 -50 679 -64 q 615 -19 642 -36 q 581 4 589 -1 q 592 6 589 4 q 650 28 624 10 q 694 -7 688 3 q 739 28 701 3 q 797 6 765 10 m 1118 386 q 1122 397 1119 392 q 1133 357 1125 388 q 1149 305 1142 326 q 1165 264 1157 283 q 1128 240 1147 253 q 1085 207 1110 226 q 1051 182 1060 188 q 1054 192 1054 188 q 1056 215 1056 204 q 1051 254 1056 235 q 1097 286 1085 282 q 1078 339 1090 296 q 1118 386 1103 358 m 854 810 q 846 817 851 811 q 985 817 967 815 q 1029 683 990 796 q 1019 689 1022 688 q 960 706 992 704 q 943 760 944 747 q 888 757 932 756 q 854 810 876 788 z "},"x":{"ha":1389,"x_min":19,"x_max":1369,"o":"m 74 155 q 48 217 74 155 q 21 417 21 279 q 74 678 21 554 q 218 893 128 803 q 433 1037 308 983 q 694 1090 557 1090 q 956 1037 832 1090 q 1171 893 1081 983 q 1315 678 1261 803 q 1368 417 1368 554 q 1315 155 1368 279 q 1171 -60 1261 31 q 956 -203 1081 -150 q 694 -257 832 -257 q 433 -203 557 -257 q 218 -60 308 -150 q 74 155 128 31 m 182 714 q 142 646 182 714 q 103 417 103 578 q 182 119 103 256 q 397 -96 261 -17 q 694 -175 533 -175 q 992 -96 856 -175 q 1207 119 1128 -17 q 1286 417 1286 256 q 1207 714 1286 578 q 992 929 1128 850 q 694 1008 856 1008 q 397 929 533 1008 q 182 714 261 850 m 363 839 q 428 828 417 831 q 442 819 436 826 q 608 614 496 731 q 928 324 726 493 q 935 319 929 324 l 974 364 l 993 349 q 978 306 978 310 q 983 279 974 286 q 1147 142 1015 251 l 1147 136 l 1090 67 l 1085 67 q 1076 75 1081 71 l 932 194 q 905 210 914 210 q 876 199 896 211 l 869 194 q 851 186 856 186 q 832 200 847 186 l 865 239 l 833 267 q 850 306 840 286 q 844 332 858 319 q 597 557 642 514 q 422 779 494 656 q 417 782 421 782 q 425 767 424 769 q 611 528 492 642 q 824 332 642 497 q 838 315 838 319 q 832 296 839 311 q 825 285 831 294 q 736 363 742 357 q 469 638 564 515 q 364 819 394 735 q 360 839 361 829 l 363 839 m 242 142 q 275 168 274 167 q 394 268 335 218 q 414 291 411 282 q 408 321 417 300 q 404 329 406 326 q 399 349 397 344 q 417 364 401 353 l 456 318 l 604 446 l 638 411 l 532 321 l 554 267 l 522 239 l 556 199 l 536 183 q 501 204 503 204 q 471 206 483 215 q 306 67 439 179 l 299 67 l 242 136 l 242 142 m 1032 839 q 893 603 999 729 q 785 481 886 594 l 758 504 q 971 782 907 651 q 750 514 894 653 l 714 547 q 720 553 717 549 q 727 560 724 557 q 733 565 731 563 q 938 804 872 700 q 979 831 953 831 q 1026 839 983 832 l 1032 839 m 650 404 l 675 381 l 564 285 q 551 311 553 307 q 551 314 551 313 q 554 321 551 318 q 650 404 574 338 z "},"y":{"ha":1389,"x_min":19,"x_max":1369,"o":"m 74 155 q 48 217 74 155 q 21 417 21 279 q 74 678 21 554 q 218 893 128 803 q 433 1037 308 983 q 694 1090 557 1090 q 956 1037 832 1090 q 1171 893 1081 983 q 1315 678 1261 803 q 1368 417 1368 554 q 1315 155 1368 279 q 1171 -60 1261 31 q 956 -203 1081 -150 q 694 -257 832 -257 q 433 -203 557 -257 q 218 -60 308 -150 q 74 155 128 31 m 182 714 q 142 646 182 714 q 103 417 103 578 q 182 119 103 256 q 397 -96 261 -17 q 694 -175 533 -175 q 992 -96 856 -175 q 1207 119 1128 -17 q 1286 417 1286 256 q 1207 714 1286 578 q 992 929 1128 850 q 694 1008 856 1008 q 397 929 533 1008 q 182 714 261 850 m 533 693 q 694 739 596 739 q 856 693 793 739 q 867 672 867 686 q 863 660 867 665 q 838 654 851 644 q 840 682 826 664 q 694 721 782 721 q 549 682 607 721 q 551 654 563 664 q 526 660 538 644 q 522 672 522 665 q 533 693 522 686 m 379 511 q 474 650 410 606 q 489 656 481 656 q 508 646 500 656 q 504 621 518 631 q 481 631 493 613 q 397 505 424 588 q 390 354 369 422 q 417 349 411 363 q 404 326 422 332 q 397 325 401 325 q 374 343 379 325 q 379 511 349 417 m 657 83 q 500 141 581 83 q 397 272 419 199 q 396 282 396 276 q 411 304 396 299 q 433 294 429 310 q 431 282 436 288 q 417 274 425 276 q 511 156 440 207 q 653 103 582 104 q 667 125 651 125 q 678 119 674 125 q 683 107 683 114 q 676 90 683 97 q 658 83 668 83 q 657 83 657 83 m 992 272 q 889 141 969 199 q 732 83 808 83 q 731 83 731 83 q 714 90 721 83 q 706 107 707 97 q 710 119 706 114 q 724 125 715 125 q 738 103 738 125 q 878 156 807 104 q 972 274 949 207 q 956 294 951 279 q 978 304 960 310 q 994 282 994 299 q 992 272 994 276 m 526 704 q 510 674 510 693 l 454 750 q 471 839 422 803 q 569 887 508 868 q 694 906 629 906 q 820 887 760 906 q 918 839 881 868 q 935 750 967 803 l 879 674 q 863 704 879 693 q 694 753 797 753 q 526 704 592 753 m 361 339 q 385 315 367 321 l 296 286 q 215 329 235 271 q 201 435 200 369 q 222 563 201 500 q 279 676 243 625 q 354 754 315 728 q 444 742 404 789 l 499 667 q 489 668 494 668 q 465 660 476 668 q 368 515 400 613 q 361 339 336 417 m 657 71 q 658 71 657 71 q 688 85 676 71 l 688 -8 q 622 -72 683 -71 q 515 -52 575 -72 q 403 7 456 -32 q 312 97 350 46 q 260 192 274 147 q 300 274 243 250 l 389 303 q 382 282 382 293 q 385 269 382 275 q 492 131 408 192 q 657 71 576 69 m 1004 269 q 1007 282 1007 275 q 1000 303 1007 293 l 1089 274 q 1129 192 1146 250 q 1077 96 1115 146 q 986 7 1039 46 q 874 -52 933 -32 q 767 -72 814 -72 q 701 -8 706 -71 l 701 85 q 731 71 713 71 q 732 71 731 71 q 897 131 813 69 q 1004 269 981 192 m 924 660 q 900 668 913 668 q 890 667 894 668 l 944 742 q 1035 756 985 789 q 1110 676 1074 728 q 1167 562 1146 625 q 1188 434 1188 499 q 1174 328 1189 369 q 1093 286 1154 271 l 1004 315 q 1028 339 1022 321 q 1021 515 1053 417 q 924 660 989 613 m 915 650 q 1010 511 979 606 q 1015 343 1040 417 q 992 325 1010 325 q 985 326 988 325 q 972 349 967 333 q 999 354 978 363 q 992 506 1019 422 q 908 632 965 589 q 885 621 896 613 q 881 646 871 631 q 900 656 889 656 q 915 650 908 656 m 531 580 q 565 614 531 580 q 694 647 599 647 q 858 580 790 647 q 925 417 925 513 q 858 253 925 321 q 694 186 790 186 q 531 253 599 186 q 464 417 464 321 q 531 580 464 513 m 868 450 q 819 542 858 503 q 728 590 781 581 l 728 450 l 868 450 m 661 590 q 569 542 608 581 q 521 450 531 503 l 661 450 l 661 590 m 521 383 q 569 292 531 331 q 661 242 608 253 l 661 383 l 521 383 m 728 242 l 728 243 q 819 292 781 253 q 868 383 858 331 l 728 383 l 728 242 z "},"z":{"ha":1389,"x_min":19,"x_max":1369,"o":"m 74 155 q 48 217 74 155 q 21 417 21 279 q 74 678 21 554 q 218 893 128 803 q 433 1037 308 983 q 694 1090 557 1090 q 956 1037 832 1090 q 1171 893 1081 983 q 1315 678 1261 803 q 1368 417 1368 554 q 1315 155 1368 279 q 1171 -60 1261 31 q 956 -203 1081 -150 q 694 -257 832 -257 q 433 -203 557 -257 q 218 -60 308 -150 q 74 155 128 31 m 182 714 q 142 646 182 714 q 103 417 103 578 q 182 119 103 256 q 397 -96 261 -17 q 694 -175 533 -175 q 992 -96 856 -175 q 1207 119 1128 -17 q 1286 417 1286 256 q 1207 714 1286 578 q 992 929 1128 850 q 694 1008 856 1008 q 397 929 533 1008 q 182 714 261 850 m 363 839 q 428 828 417 831 q 442 819 436 826 q 608 614 496 731 q 928 324 726 493 q 935 319 929 324 l 974 364 l 993 349 q 978 306 978 310 q 983 279 974 286 q 1147 142 1015 251 l 1147 136 l 1090 67 l 1085 67 q 1076 75 1081 71 l 932 194 q 905 210 914 210 q 876 199 896 211 l 869 194 q 851 186 856 186 q 832 200 847 186 l 865 239 l 833 267 q 850 306 840 286 q 844 332 858 319 q 597 557 642 514 q 422 779 494 656 q 417 782 421 782 q 425 767 424 769 q 611 528 492 642 q 824 332 642 497 q 838 315 838 319 q 832 296 839 311 q 825 285 831 294 q 736 363 742 357 q 469 638 564 515 q 364 819 394 735 q 360 839 361 829 l 363 839 m 242 142 q 275 168 274 167 q 394 268 335 218 q 414 291 411 282 q 408 321 417 300 q 404 329 406 326 q 399 349 397 344 q 417 364 401 353 l 456 318 l 604 446 l 638 411 l 532 321 l 554 267 l 522 239 l 556 199 l 536 183 q 501 204 503 204 q 471 206 483 215 q 306 67 439 179 l 299 67 l 242 136 l 242 142 m 1032 839 q 893 603 999 729 q 785 481 886 594 l 758 504 q 971 782 907 651 q 750 514 894 653 l 714 547 q 720 553 717 549 q 727 560 724 557 q 733 565 731 563 q 938 804 872 700 q 979 831 953 831 q 1026 839 983 832 l 1032 839 m 650 404 l 675 381 l 564 285 q 551 311 553 307 q 551 314 551 313 q 554 321 551 318 q 650 404 574 338 z "}}}
